<?xml version="1.0" encoding="utf-8" standalone="no"?>
<!DOCTYPE svg PUBLIC "-//W3C//DTD SVG 1.1//EN"
  "http://www.w3.org/Graphics/SVG/1.1/DTD/svg11.dtd">
<svg xmlns:xlink="http://www.w3.org/1999/xlink" width="460.8pt" height="345.6pt" viewBox="0 0 460.8 345.6" xmlns="http://www.w3.org/2000/svg" version="1.1">
 <metadata>
  <rdf:RDF xmlns:dc="http://purl.org/dc/elements/1.1/" xmlns:cc="http://creativecommons.org/ns#" xmlns:rdf="http://www.w3.org/1999/02/22-rdf-syntax-ns#">
   <cc:Work>
    <dc:type rdf:resource="http://purl.org/dc/dcmitype/StillImage"/>
    <dc:date>2026-02-25T06:48:38.351348</dc:date>
    <dc:format>image/svg+xml</dc:format>
    <dc:creator>
     <cc:Agent>
      <dc:title>Matplotlib v3.7.5, https://matplotlib.org/</dc:title>
     </cc:Agent>
    </dc:creator>
   </cc:Work>
  </rdf:RDF>
 </metadata>
 <defs>
  <style type="text/css">*{stroke-linejoin: round; stroke-linecap: butt}</style>
 </defs>
 <g id="figure_1">
  <g id="patch_1">
   <path d="M 0 345.6 
L 460.8 345.6 
L 460.8 0 
L 0 0 
z
" style="fill: #ffffff"/>
  </g>
  <g id="axes_1">
   <g id="patch_2">
    <path d="M 47.72 303.64 
L 443.655 303.64 
L 443.655 14.76 
L 47.72 14.76 
z
" style="fill: #ffffff"/>
   </g>
   <g id="PolyCollection_1">
    <path d="M 48.115935 303.64 
L 48.115935 -23769.693333 
L 48.51187 -11733.026667 
L 48.907805 -7720.804444 
L 49.30374 -5714.693333 
L 49.699675 -4511.026667 
L 50.09561 -3708.582222 
L 50.491545 -3135.407619 
L 50.88748 -2705.526667 
L 51.283415 -2371.174815 
L 51.67935 -2103.693333 
L 52.075285 -1884.844848 
L 52.47122 -1702.471111 
L 52.867155 -1548.154872 
L 53.26309 -1415.88381 
L 53.659025 -1301.248889 
L 54.05496 -1200.943333 
L 54.450895 -1112.438431 
L 54.84683 -1033.767407 
L 55.242765 -963.377544 
L 55.6387 -900.026667 
L 56.034635 -842.709206 
L 56.43057 -790.602424 
L 56.826505 -743.026667 
L 57.22244 -699.415556 
L 57.618375 -659.293333 
L 58.01431 -622.257436 
L 58.410245 -587.964938 
L 58.80618 -556.121905 
L 59.202115 -526.474943 
L 59.59805 -498.804444 
L 59.993985 -472.91914 
L 60.38992 -448.651667 
L 60.785855 -425.854949 
L 61.18179 -404.399216 
L 61.577725 -384.169524 
L 61.97366 -365.063704 
L 62.369595 -346.990631 
L 62.76553 -329.868772 
L 63.161465 -313.624957 
L 63.5574 -298.193333 
L 63.953335 -283.514472 
L 64.34927 -269.534603 
L 64.745205 -256.204961 
L 65.14114 -243.481212 
L 65.537075 -231.322963 
L 65.93301 -219.693333 
L 66.328945 -208.558582 
L 66.72488 -197.887778 
L 67.120815 -187.652517 
L 67.51675 -177.826667 
L 67.912685 -168.386144 
L 68.30862 -159.308718 
L 68.704555 -150.573836 
L 69.10049 -142.162469 
L 69.496425 -134.05697 
L 69.89236 -126.240952 
L 70.288295 -118.699181 
L 70.68423 -111.417471 
L 71.080165 -104.382599 
L 71.4761 -97.582222 
L 71.872035 -91.004809 
L 72.26797 -84.63957 
L 72.663905 -78.476402 
L 73.05984 -72.505833 
L 73.455775 -66.718974 
L 73.85171 -61.107475 
L 74.247645 -55.663483 
L 74.64358 -50.379608 
L 75.039515 -45.248889 
L 75.43545 -40.264762 
L 75.831385 -35.421033 
L 76.22732 -30.711852 
L 76.623255 -26.131689 
L 77.01919 -21.675315 
L 77.415125 -17.337778 
L 77.81106 -13.114386 
L 78.206995 -9.000693 
L 78.60293 -4.992479 
L 78.998865 -1.085738 
L 79.3948 2.723333 
L 79.790735 6.438354 
L 80.18667 10.062764 
L 80.582605 13.599839 
L 80.97854 17.052698 
L 81.374475 20.424314 
L 81.77041 23.717519 
L 82.166345 26.935019 
L 82.56228 30.079394 
L 82.958215 33.153109 
L 83.35415 36.158519 
L 83.750085 39.097875 
L 84.14602 41.973333 
L 84.541955 44.786953 
L 84.93789 47.540709 
L 85.333825 50.236491 
L 85.72976 52.876111 
L 86.125695 55.461306 
L 86.52163 57.993741 
L 86.917565 60.475017 
L 87.3135 62.906667 
L 87.709435 65.290165 
L 88.10537 67.626928 
L 88.501305 69.918317 
L 88.89724 72.165641 
L 89.293175 74.370159 
L 89.68911 76.533082 
L 90.085045 78.655576 
L 90.48098 80.738765 
L 90.876915 82.783731 
L 91.27285 84.791515 
L 91.668785 86.763123 
L 92.06472 88.699524 
L 92.460655 90.601652 
L 92.85659 92.470409 
L 93.252525 94.306667 
L 93.64846 96.111264 
L 94.044395 97.885014 
L 94.44033 99.628701 
L 94.836265 101.343081 
L 95.2322 103.028889 
L 95.628135 104.686832 
L 96.02407 106.317596 
L 96.420005 107.921843 
L 96.81594 109.500215 
L 97.211875 111.053333 
L 97.60781 112.581799 
L 98.003745 114.086194 
L 98.39968 115.567083 
L 98.795615 117.025013 
L 99.19155 118.460513 
L 99.587485 119.874097 
L 99.98342 121.266263 
L 100.379355 122.637494 
L 100.77529 123.988259 
L 101.171225 125.319012 
L 101.56716 126.630196 
L 101.963095 127.922238 
L 102.35903 129.195556 
L 102.754965 130.450552 
L 103.1509 131.687619 
L 103.546835 132.907139 
L 103.94277 134.109484 
L 104.338705 135.295012 
L 104.73464 136.464074 
L 105.130575 137.617011 
L 105.52651 138.754155 
L 105.922445 139.875828 
L 106.31838 140.982342 
L 106.714315 142.074004 
L 107.11025 143.151111 
L 107.506185 144.213951 
L 107.90212 145.262807 
L 108.298055 146.297952 
L 108.69399 147.319654 
L 109.089925 148.328172 
L 109.48586 149.323761 
L 109.881795 150.306667 
L 110.27773 151.277131 
L 110.673665 152.235388 
L 111.0696 153.181667 
L 111.465535 154.11619 
L 111.86147 155.039177 
L 112.257405 155.950838 
L 112.65334 156.851382 
L 113.049275 157.74101 
L 113.44521 158.61992 
L 113.841145 159.488303 
L 114.23708 160.346349 
L 114.633015 161.194241 
L 115.02895 162.032157 
L 115.424885 162.860273 
L 115.82082 163.67876 
L 116.216755 164.487784 
L 116.61269 165.28751 
L 117.008625 166.078095 
L 117.40456 166.859697 
L 117.800495 167.632467 
L 118.19643 168.396554 
L 118.592365 169.152104 
L 118.9883 169.899259 
L 119.384235 170.638158 
L 119.78017 171.368938 
L 120.176105 172.09173 
L 120.57204 172.806667 
L 120.967975 173.513874 
L 121.36391 174.213477 
L 121.759845 174.905597 
L 122.15578 175.590355 
L 122.551715 176.267866 
L 122.94765 176.938246 
L 123.343585 177.601606 
L 123.73952 178.258056 
L 124.135455 178.907703 
L 124.53139 179.550653 
L 124.927325 180.187009 
L 125.32326 180.816871 
L 125.719195 181.440338 
L 126.11513 182.057508 
L 126.511065 182.668476 
L 126.907 183.273333 
L 127.302935 183.872172 
L 127.69887 184.465083 
L 128.094805 185.052151 
L 128.49074 185.633464 
L 128.886675 186.209106 
L 129.28261 186.779159 
L 129.678545 187.343704 
L 130.07448 187.902821 
L 130.470415 188.456587 
L 130.86635 189.005079 
L 131.262285 189.548373 
L 131.65822 190.086541 
L 132.054155 190.619656 
L 132.45009 191.147788 
L 132.846025 191.671008 
L 133.24196 192.189383 
L 133.637895 192.70298 
L 134.03383 193.211865 
L 134.429765 193.716104 
L 134.8257 194.215758 
L 135.221635 194.71089 
L 135.61757 195.201562 
L 136.013505 195.687833 
L 136.40944 196.169762 
L 136.805375 196.647407 
L 137.20131 197.120826 
L 137.597245 197.590073 
L 137.99318 198.055205 
L 138.389115 198.516274 
L 138.78505 198.973333 
L 139.180985 199.426436 
L 139.57692 199.875632 
L 139.972855 200.320973 
L 140.36879 200.762507 
L 140.764725 201.200284 
L 141.16066 201.63435 
L 141.556595 202.064754 
L 141.95253 202.491541 
L 142.348465 202.914756 
L 142.7444 203.334444 
L 143.140335 203.75065 
L 143.53627 204.163416 
L 143.932205 204.572785 
L 144.32814 204.978798 
L 144.724075 205.381497 
L 145.12001 205.780921 
L 145.515945 206.177112 
L 145.91188 206.570108 
L 146.307815 206.959946 
L 146.70375 207.346667 
L 147.099685 207.730305 
L 147.49562 208.110899 
L 147.891555 208.488485 
L 148.28749 208.863097 
L 148.683425 209.234771 
L 149.07936 209.603542 
L 149.475295 209.969442 
L 149.87123 210.332506 
L 150.267165 210.692767 
L 150.6631 211.050256 
L 151.059035 211.405006 
L 151.45497 211.757048 
L 151.850905 212.106413 
L 152.24684 212.453131 
L 152.642775 212.797233 
L 153.03871 213.138747 
L 153.434645 213.477703 
L 153.83058 213.814129 
L 154.226515 214.148055 
L 154.62245 214.479506 
L 155.018385 214.808512 
L 155.41432 215.135098 
L 155.810255 215.459292 
L 156.20619 215.781119 
L 156.602125 216.100606 
L 156.99806 216.417778 
L 157.393995 216.732659 
L 157.78993 217.045276 
L 158.185865 217.355651 
L 158.5818 217.66381 
L 158.977735 217.969775 
L 159.37367 218.27357 
L 159.769605 218.575218 
L 160.16554 218.874742 
L 160.561475 219.172164 
L 160.95741 219.467506 
L 161.353345 219.76079 
L 161.74928 220.052037 
L 162.145215 220.341269 
L 162.54115 220.628506 
L 162.937085 220.913769 
L 163.33302 221.197078 
L 163.728955 221.478453 
L 164.12489 221.757914 
L 164.520825 222.03548 
L 164.91676 222.311171 
L 165.312695 222.585006 
L 165.70863 222.857002 
L 166.104565 223.127179 
L 166.5005 223.395556 
L 166.896435 223.662148 
L 167.29237 223.926976 
L 167.688305 224.190055 
L 168.08424 224.451404 
L 168.480175 224.711038 
L 168.87611 224.968976 
L 169.272045 225.225233 
L 169.66798 225.479827 
L 170.063915 225.732772 
L 170.45985 225.984086 
L 170.855785 226.233783 
L 171.25172 226.48188 
L 171.647655 226.728392 
L 172.04359 226.973333 
L 172.439525 227.21672 
L 172.83546 227.458565 
L 173.231395 227.698885 
L 173.62733 227.937694 
L 174.023265 228.175005 
L 174.4192 228.410833 
L 174.815135 228.645192 
L 175.21107 228.878095 
L 175.607005 229.109556 
L 176.00294 229.339588 
L 176.398875 229.568205 
L 176.79481 229.795419 
L 177.190745 230.021244 
L 177.58668 230.245691 
L 177.982615 230.468774 
L 178.37855 230.690505 
L 178.774485 230.910896 
L 179.17042 231.12996 
L 179.566355 231.347708 
L 179.96229 231.564152 
L 180.358225 231.779303 
L 180.75416 231.993175 
L 181.150095 232.205776 
L 181.54603 232.41712 
L 181.941965 232.627217 
L 182.3379 232.836078 
L 182.733835 233.043715 
L 183.12977 233.250136 
L 183.525705 233.455355 
L 183.92164 233.65938 
L 184.317575 233.862222 
L 184.71351 234.063892 
L 185.109445 234.2644 
L 185.50538 234.463755 
L 185.901315 234.661968 
L 186.29725 234.859048 
L 186.693185 235.055005 
L 187.08912 235.249848 
L 187.485055 235.443588 
L 187.88099 235.636234 
L 188.276925 235.827793 
L 188.67286 236.018277 
L 189.068795 236.207694 
L 189.46473 236.396052 
L 189.860665 236.583361 
L 190.2566 236.76963 
L 190.652535 236.954866 
L 191.04847 237.139079 
L 191.444405 237.322277 
L 191.84034 237.504469 
L 192.236275 237.685662 
L 192.63221 237.865865 
L 193.028145 238.045086 
L 193.42408 238.223333 
L 193.820015 238.400614 
L 194.21595 238.576937 
L 194.611885 238.752309 
L 195.00782 238.926738 
L 195.403755 239.100232 
L 195.79969 239.272799 
L 196.195625 239.444444 
L 196.59156 239.615177 
L 196.987495 239.785004 
L 197.38343 239.953933 
L 197.779365 240.12197 
L 198.1753 240.289123 
L 198.571235 240.455398 
L 198.96717 240.620803 
L 199.363105 240.785344 
L 199.75904 240.949028 
L 200.154975 241.111861 
L 200.55091 241.273851 
L 200.946845 241.435004 
L 201.34278 241.595326 
L 201.738715 241.754824 
L 202.13465 241.913504 
L 202.530585 242.071373 
L 202.92652 242.228435 
L 203.322455 242.384699 
L 203.71839 242.540169 
L 204.114325 242.694852 
L 204.51026 242.848754 
L 204.906195 243.001881 
L 205.30213 243.154238 
L 205.698065 243.305831 
L 206.094 243.456667 
L 206.489935 243.60675 
L 206.88587 243.756086 
L 207.281805 243.904682 
L 207.67774 244.052541 
L 208.073675 244.199671 
L 208.46961 244.346076 
L 208.865545 244.491761 
L 209.26148 244.636732 
L 209.657415 244.780994 
L 210.05335 244.924553 
L 210.449285 245.067413 
L 210.84522 245.209579 
L 211.241155 245.351057 
L 211.63709 245.491852 
L 212.033025 245.631968 
L 212.42896 245.77141 
L 212.824895 245.910184 
L 213.22083 246.048293 
L 213.616765 246.185744 
L 214.0127 246.32254 
L 214.408635 246.458686 
L 214.80457 246.594186 
L 215.200505 246.729046 
L 215.59644 246.86327 
L 215.992375 246.996863 
L 216.38831 247.129828 
L 216.784245 247.26217 
L 217.18018 247.393894 
L 217.576115 247.525004 
L 217.97205 247.655504 
L 218.367985 247.785398 
L 218.76392 247.914691 
L 219.159855 248.043387 
L 219.55579 248.17149 
L 219.951725 248.299004 
L 220.34766 248.425933 
L 220.743595 248.552281 
L 221.13953 248.678052 
L 221.535465 248.80325 
L 221.9314 248.927879 
L 222.327335 249.051943 
L 222.72327 249.175445 
L 223.119205 249.29839 
L 223.51514 249.420781 
L 223.911075 249.542622 
L 224.30701 249.663916 
L 224.702945 249.784668 
L 225.09888 249.904881 
L 225.494815 250.024558 
L 225.89075 250.143704 
L 226.286685 250.262321 
L 226.68262 250.380413 
L 227.078555 250.497984 
L 227.47449 250.615037 
L 227.870425 250.731575 
L 228.26636 250.847602 
L 228.662295 250.963122 
L 229.05823 251.078137 
L 229.454165 251.192651 
L 229.8501 251.306667 
L 230.246035 251.420188 
L 230.64197 251.533218 
L 231.037905 251.64576 
L 231.43384 251.757816 
L 231.829775 251.869391 
L 232.22571 251.980486 
L 232.621645 252.091106 
L 233.01758 252.201254 
L 233.413515 252.310931 
L 233.80945 252.420142 
L 234.205385 252.528889 
L 234.60132 252.637175 
L 234.997255 252.745004 
L 235.39319 252.852377 
L 235.789125 252.959298 
L 236.18506 253.06577 
L 236.580995 253.171796 
L 236.97693 253.277378 
L 237.372865 253.382519 
L 237.7688 253.487222 
L 238.164735 253.59149 
L 238.56067 253.695325 
L 238.956605 253.79873 
L 239.35254 253.901708 
L 239.748475 254.004261 
L 240.14441 254.106392 
L 240.540345 254.208104 
L 240.93628 254.309399 
L 241.332215 254.410279 
L 241.72815 254.510748 
L 242.124085 254.610808 
L 242.52002 254.710461 
L 242.915955 254.809709 
L 243.31189 254.908556 
L 243.707825 255.007003 
L 244.10376 255.105054 
L 244.499695 255.20271 
L 244.89563 255.299973 
L 245.291565 255.396847 
L 245.6875 255.493333 
L 246.083435 255.589434 
L 246.47937 255.685153 
L 246.875305 255.78049 
L 247.27124 255.87545 
L 247.667175 255.970033 
L 248.06311 256.064242 
L 248.459045 256.15808 
L 248.85498 256.251549 
L 249.250915 256.34465 
L 249.64685 256.437386 
L 250.042785 256.529759 
L 250.43872 256.621771 
L 250.834655 256.713424 
L 251.23059 256.804721 
L 251.626525 256.895663 
L 252.02246 256.986253 
L 252.418395 257.076493 
L 252.81433 257.166384 
L 253.210265 257.255928 
L 253.6062 257.345128 
L 254.002135 257.433986 
L 254.39807 257.522503 
L 254.794005 257.610682 
L 255.18994 257.698524 
L 255.585875 257.786032 
L 255.98181 257.873207 
L 256.377745 257.960051 
L 256.77368 258.046566 
L 257.169615 258.132754 
L 257.56555 258.218616 
L 257.961485 258.304156 
L 258.35742 258.389373 
L 258.753355 258.474271 
L 259.14929 258.558851 
L 259.545225 258.643115 
L 259.94116 258.727065 
L 260.337095 258.810701 
L 260.73303 258.894027 
L 261.128965 258.977044 
L 261.5249 259.059753 
L 261.920835 259.142157 
L 262.31677 259.224256 
L 262.712705 259.306053 
L 263.10864 259.387549 
L 263.504575 259.468746 
L 263.90051 259.549646 
L 264.296445 259.63025 
L 264.69238 259.71056 
L 265.088315 259.790577 
L 265.48425 259.870303 
L 265.880185 259.94974 
L 266.27612 260.028889 
L 266.672055 260.107752 
L 267.06799 260.18633 
L 267.463925 260.264625 
L 267.85986 260.342638 
L 268.255795 260.420371 
L 268.65173 260.497826 
L 269.047665 260.575003 
L 269.4436 260.651905 
L 269.839535 260.728532 
L 270.23547 260.804887 
L 270.631405 260.880971 
L 271.02734 260.956785 
L 271.423275 261.03233 
L 271.81921 261.107609 
L 272.215145 261.182622 
L 272.61108 261.257371 
L 273.007015 261.331857 
L 273.40295 261.406082 
L 273.798885 261.480047 
L 274.19482 261.553753 
L 274.590755 261.627202 
L 274.98669 261.700395 
L 275.382625 261.773333 
L 275.77856 261.846019 
L 276.174495 261.918452 
L 276.57043 261.990634 
L 276.966365 262.062568 
L 277.3623 262.134253 
L 277.758235 262.205691 
L 278.15417 262.276884 
L 278.550105 262.347833 
L 278.94604 262.418539 
L 279.341975 262.489003 
L 279.73791 262.559226 
L 280.133845 262.629211 
L 280.52978 262.698957 
L 280.925715 262.768466 
L 281.32165 262.83774 
L 281.717585 262.906779 
L 282.11352 262.975586 
L 282.509455 263.04416 
L 282.90539 263.112503 
L 283.301325 263.180616 
L 283.69726 263.248501 
L 284.093195 263.316159 
L 284.48913 263.38359 
L 284.885065 263.450796 
L 285.281 263.517778 
L 285.676935 263.584537 
L 286.07287 263.651074 
L 286.468805 263.717391 
L 286.86474 263.783488 
L 287.260675 263.849366 
L 287.65661 263.915028 
L 288.052545 263.980472 
L 288.44848 264.045702 
L 288.844415 264.110717 
L 289.24035 264.175519 
L 289.636285 264.240109 
L 290.03222 264.304488 
L 290.428155 264.368657 
L 290.82409 264.432617 
L 291.220025 264.496369 
L 291.61596 264.559913 
L 292.011895 264.623252 
L 292.40783 264.686386 
L 292.803765 264.749316 
L 293.1997 264.812043 
L 293.595635 264.874568 
L 293.99157 264.936892 
L 294.387505 264.999016 
L 294.78344 265.06094 
L 295.179375 265.122667 
L 295.57531 265.184196 
L 295.971245 265.245529 
L 296.36718 265.306667 
L 296.763115 265.36761 
L 297.15905 265.42836 
L 297.554985 265.488917 
L 297.95092 265.549283 
L 298.346855 265.609458 
L 298.74279 265.669443 
L 299.138725 265.729239 
L 299.53466 265.788847 
L 299.930595 265.848268 
L 300.32653 265.907503 
L 300.722465 265.966552 
L 301.1184 266.025417 
L 301.514335 266.084098 
L 301.91027 266.142596 
L 302.306205 266.200912 
L 302.70214 266.259048 
L 303.098075 266.317003 
L 303.49401 266.374778 
L 303.889945 266.432375 
L 304.28588 266.489794 
L 304.681815 266.547036 
L 305.07775 266.604103 
L 305.473685 266.660993 
L 305.86962 266.71771 
L 306.265555 266.774252 
L 306.66149 266.830622 
L 307.057425 266.886819 
L 307.45336 266.942846 
L 307.849295 266.998701 
L 308.24523 267.054387 
L 308.641165 267.109904 
L 309.0371 267.165253 
L 309.433035 267.220434 
L 309.82897 267.275448 
L 310.224905 267.330297 
L 310.62084 267.38498 
L 311.016775 267.439499 
L 311.41271 267.493854 
L 311.808645 267.548046 
L 312.20458 267.602076 
L 312.600515 267.655944 
L 312.99645 267.709652 
L 313.392385 267.763199 
L 313.78832 267.816587 
L 314.184255 267.869817 
L 314.58019 267.922888 
L 314.976125 267.975802 
L 315.37206 268.02856 
L 315.767995 268.081162 
L 316.16393 268.133609 
L 316.559865 268.185901 
L 316.9558 268.238039 
L 317.351735 268.290024 
L 317.74767 268.341857 
L 318.143605 268.393538 
L 318.53954 268.445068 
L 318.935475 268.496448 
L 319.33141 268.547677 
L 319.727345 268.598758 
L 320.12328 268.64969 
L 320.519215 268.700474 
L 320.91515 268.751111 
L 321.311085 268.801602 
L 321.70702 268.851946 
L 322.102955 268.902145 
L 322.49889 268.9522 
L 322.894825 269.00211 
L 323.29076 269.051877 
L 323.686695 269.101502 
L 324.08263 269.150984 
L 324.478565 269.200324 
L 324.8745 269.249524 
L 325.270435 269.298583 
L 325.66637 269.347502 
L 326.062305 269.396283 
L 326.45824 269.444924 
L 326.854175 269.493428 
L 327.25011 269.541794 
L 327.646045 269.590024 
L 328.04198 269.638117 
L 328.437915 269.686074 
L 328.83385 269.733897 
L 329.229785 269.781585 
L 329.62572 269.829139 
L 330.021655 269.876559 
L 330.41759 269.923847 
L 330.813525 269.971002 
L 331.20946 270.018026 
L 331.605395 270.064919 
L 332.00133 270.111681 
L 332.397265 270.158312 
L 332.7932 270.204815 
L 333.189135 270.251188 
L 333.58507 270.297433 
L 333.981005 270.34355 
L 334.37694 270.38954 
L 334.772875 270.435402 
L 335.16881 270.481139 
L 335.564745 270.526749 
L 335.96068 270.572234 
L 336.356615 270.617595 
L 336.75255 270.662831 
L 337.148485 270.707943 
L 337.54442 270.752933 
L 337.940355 270.797799 
L 338.33629 270.842543 
L 338.732225 270.887166 
L 339.12816 270.931667 
L 339.524095 270.976047 
L 339.92003 271.020307 
L 340.315965 271.064447 
L 340.7119 271.108468 
L 341.107835 271.152371 
L 341.50377 271.196155 
L 341.899705 271.239821 
L 342.29564 271.283369 
L 342.691575 271.326801 
L 343.08751 271.370116 
L 343.483445 271.413315 
L 343.87938 271.456399 
L 344.275315 271.499368 
L 344.67125 271.542222 
L 345.067185 271.584962 
L 345.46312 271.627589 
L 345.859055 271.670102 
L 346.25499 271.712502 
L 346.650925 271.75479 
L 347.04686 271.796966 
L 347.442795 271.839031 
L 347.83873 271.880985 
L 348.234665 271.922828 
L 348.6306 271.964561 
L 349.026535 272.006185 
L 349.42247 272.047699 
L 349.818405 272.089104 
L 350.21434 272.130401 
L 350.610275 272.17159 
L 351.00621 272.212672 
L 351.402145 272.253646 
L 351.79808 272.294514 
L 352.194015 272.335275 
L 352.58995 272.375931 
L 352.985885 272.416481 
L 353.38182 272.456926 
L 353.777755 272.497266 
L 354.17369 272.537502 
L 354.569625 272.577634 
L 354.96556 272.617663 
L 355.361495 272.657589 
L 355.75743 272.697412 
L 356.153365 272.737133 
L 356.5493 272.776752 
L 356.945235 272.81627 
L 357.34117 272.855686 
L 357.737105 272.895002 
L 358.13304 272.934218 
L 358.528975 272.973333 
L 358.92491 273.012349 
L 359.320845 273.051266 
L 359.71678 273.090085 
L 360.112715 273.128804 
L 360.50865 273.167426 
L 360.904585 273.20595 
L 361.30052 273.244377 
L 361.696455 273.282707 
L 362.09239 273.32094 
L 362.488325 273.359078 
L 362.88426 273.397119 
L 363.280195 273.435065 
L 363.67613 273.472916 
L 364.072065 273.510672 
L 364.468 273.548333 
L 364.863935 273.585901 
L 365.25987 273.623375 
L 365.655805 273.660756 
L 366.05174 273.698043 
L 366.447675 273.735238 
L 366.84361 273.772341 
L 367.239545 273.809352 
L 367.63548 273.846271 
L 368.031415 273.883098 
L 368.42735 273.919835 
L 368.823285 273.956482 
L 369.21922 273.993038 
L 369.615155 274.029504 
L 370.01109 274.06588 
L 370.407025 274.102168 
L 370.80296 274.138366 
L 371.198895 274.174476 
L 371.59483 274.210497 
L 371.990765 274.246431 
L 372.3867 274.282276 
L 372.782635 274.318035 
L 373.17857 274.353706 
L 373.574505 274.389291 
L 373.97044 274.42479 
L 374.366375 274.460202 
L 374.76231 274.495529 
L 375.158245 274.53077 
L 375.55418 274.565926 
L 375.950115 274.600997 
L 376.34605 274.635984 
L 376.741985 274.670886 
L 377.13792 274.705705 
L 377.533855 274.74044 
L 377.92979 274.775092 
L 378.325725 274.809661 
L 378.72166 274.844147 
L 379.117595 274.87855 
L 379.51353 274.912872 
L 379.909465 274.947112 
L 380.3054 274.98127 
L 380.701335 275.015347 
L 381.09727 275.049343 
L 381.493205 275.083258 
L 381.88914 275.117093 
L 382.285075 275.150848 
L 382.68101 275.184523 
L 383.076945 275.218119 
L 383.47288 275.251635 
L 383.868815 275.285073 
L 384.26475 275.318431 
L 384.660685 275.351712 
L 385.05662 275.384914 
L 385.452555 275.418038 
L 385.84849 275.451085 
L 386.244425 275.484055 
L 386.64036 275.516947 
L 387.036295 275.549763 
L 387.43223 275.582502 
L 387.828165 275.615165 
L 388.2241 275.647752 
L 388.620035 275.680263 
L 389.01597 275.712699 
L 389.411905 275.74506 
L 389.80784 275.777346 
L 390.203775 275.809557 
L 390.59971 275.841694 
L 390.995645 275.873756 
L 391.39158 275.905745 
L 391.787515 275.93766 
L 392.18345 275.969502 
L 392.579385 276.001271 
L 392.97532 276.032966 
L 393.371255 276.06459 
L 393.76719 276.09614 
L 394.163125 276.127619 
L 394.55906 276.159026 
L 394.954995 276.190361 
L 395.35093 276.221625 
L 395.746865 276.252818 
L 396.1428 276.283939 
L 396.538735 276.314991 
L 396.93467 276.345971 
L 397.330605 276.376882 
L 397.72654 276.407722 
L 398.122475 276.438493 
L 398.51841 276.469195 
L 398.914345 276.499827 
L 399.31028 276.53039 
L 399.706215 276.560885 
L 400.10215 276.591311 
L 400.498085 276.621669 
L 400.89402 276.651958 
L 401.289955 276.68218 
L 401.68589 276.712334 
L 402.081825 276.742421 
L 402.47776 276.77244 
L 402.873695 276.802393 
L 403.26963 276.832279 
L 403.665565 276.862099 
L 404.0615 276.891852 
L 404.457435 276.921539 
L 404.85337 276.95116 
L 405.249305 276.980716 
L 405.64524 277.010206 
L 406.041175 277.039632 
L 406.43711 277.068992 
L 406.833045 277.098287 
L 407.22898 277.127518 
L 407.624915 277.156685 
L 408.02085 277.185788 
L 408.416785 277.214826 
L 408.81272 277.243801 
L 409.208655 277.272713 
L 409.60459 277.301561 
L 410.000525 277.330346 
L 410.39646 277.359068 
L 410.792395 277.387728 
L 411.18833 277.416325 
L 411.584265 277.44486 
L 411.9802 277.473333 
L 412.376135 277.501744 
L 412.77207 277.530094 
L 413.168005 277.558382 
L 413.56394 277.586609 
L 413.959875 277.614775 
L 414.35581 277.64288 
L 414.751745 277.670924 
L 415.14768 277.698908 
L 415.543615 277.726832 
L 415.93955 277.754695 
L 416.335485 277.782499 
L 416.73142 277.810243 
L 417.127355 277.837928 
L 417.52329 277.865553 
L 417.919225 277.893119 
L 418.31516 277.920627 
L 418.711095 277.948075 
L 419.10703 277.975466 
L 419.502965 278.002797 
L 419.8989 278.030071 
L 420.294835 278.057287 
L 420.69077 278.084444 
L 421.086705 278.111545 
L 421.48264 278.138588 
L 421.878575 278.165573 
L 422.27451 278.192502 
L 422.670445 278.219373 
L 423.06638 278.246188 
L 423.462315 278.272947 
L 423.85825 278.299649 
L 424.254185 278.326295 
L 424.65012 278.352885 
L 425.046055 278.379419 
L 425.44199 278.405898 
L 425.837925 278.432321 
L 426.23386 278.458689 
L 426.629795 278.485002 
L 427.02573 278.51126 
L 427.421665 278.537463 
L 427.8176 278.563611 
L 428.213535 278.589705 
L 428.60947 278.615745 
L 429.005405 278.641731 
L 429.40134 278.667663 
L 429.797275 278.693541 
L 430.19321 278.719365 
L 430.589145 278.745136 
L 430.98508 278.770854 
L 431.381015 278.796519 
L 431.77695 278.822131 
L 432.172885 278.84769 
L 432.56882 278.873196 
L 432.964755 278.89865 
L 433.36069 278.924052 
L 433.756625 278.949402 
L 434.15256 278.974699 
L 434.548495 278.999945 
L 434.94443 279.02514 
L 435.340365 279.050283 
L 435.7363 279.075374 
L 436.132235 279.100415 
L 436.52817 279.125404 
L 436.924105 279.150342 
L 437.32004 279.17523 
L 437.715975 279.200068 
L 438.11191 279.224855 
L 438.507845 279.249591 
L 438.90378 279.274278 
L 439.299715 279.298915 
L 439.69565 279.323502 
L 440.091585 279.348039 
L 440.48752 279.372527 
L 440.883455 279.396965 
L 441.27939 279.421355 
L 441.675325 279.445695 
L 442.07126 279.469987 
L 442.467195 279.494229 
L 442.86313 279.518424 
L 443.259065 279.542569 
L 443.655 279.566667 
L 443.655 303.64 
L 443.655 303.64 
L 443.259065 303.64 
L 442.86313 303.64 
L 442.467195 303.64 
L 442.07126 303.64 
L 441.675325 303.64 
L 441.27939 303.64 
L 440.883455 303.64 
L 440.48752 303.64 
L 440.091585 303.64 
L 439.69565 303.64 
L 439.299715 303.64 
L 438.90378 303.64 
L 438.507845 303.64 
L 438.11191 303.64 
L 437.715975 303.64 
L 437.32004 303.64 
L 436.924105 303.64 
L 436.52817 303.64 
L 436.132235 303.64 
L 435.7363 303.64 
L 435.340365 303.64 
L 434.94443 303.64 
L 434.548495 303.64 
L 434.15256 303.64 
L 433.756625 303.64 
L 433.36069 303.64 
L 432.964755 303.64 
L 432.56882 303.64 
L 432.172885 303.64 
L 431.77695 303.64 
L 431.381015 303.64 
L 430.98508 303.64 
L 430.589145 303.64 
L 430.19321 303.64 
L 429.797275 303.64 
L 429.40134 303.64 
L 429.005405 303.64 
L 428.60947 303.64 
L 428.213535 303.64 
L 427.8176 303.64 
L 427.421665 303.64 
L 427.02573 303.64 
L 426.629795 303.64 
L 426.23386 303.64 
L 425.837925 303.64 
L 425.44199 303.64 
L 425.046055 303.64 
L 424.65012 303.64 
L 424.254185 303.64 
L 423.85825 303.64 
L 423.462315 303.64 
L 423.06638 303.64 
L 422.670445 303.64 
L 422.27451 303.64 
L 421.878575 303.64 
L 421.48264 303.64 
L 421.086705 303.64 
L 420.69077 303.64 
L 420.294835 303.64 
L 419.8989 303.64 
L 419.502965 303.64 
L 419.10703 303.64 
L 418.711095 303.64 
L 418.31516 303.64 
L 417.919225 303.64 
L 417.52329 303.64 
L 417.127355 303.64 
L 416.73142 303.64 
L 416.335485 303.64 
L 415.93955 303.64 
L 415.543615 303.64 
L 415.14768 303.64 
L 414.751745 303.64 
L 414.35581 303.64 
L 413.959875 303.64 
L 413.56394 303.64 
L 413.168005 303.64 
L 412.77207 303.64 
L 412.376135 303.64 
L 411.9802 303.64 
L 411.584265 303.64 
L 411.18833 303.64 
L 410.792395 303.64 
L 410.39646 303.64 
L 410.000525 303.64 
L 409.60459 303.64 
L 409.208655 303.64 
L 408.81272 303.64 
L 408.416785 303.64 
L 408.02085 303.64 
L 407.624915 303.64 
L 407.22898 303.64 
L 406.833045 303.64 
L 406.43711 303.64 
L 406.041175 303.64 
L 405.64524 303.64 
L 405.249305 303.64 
L 404.85337 303.64 
L 404.457435 303.64 
L 404.0615 303.64 
L 403.665565 303.64 
L 403.26963 303.64 
L 402.873695 303.64 
L 402.47776 303.64 
L 402.081825 303.64 
L 401.68589 303.64 
L 401.289955 303.64 
L 400.89402 303.64 
L 400.498085 303.64 
L 400.10215 303.64 
L 399.706215 303.64 
L 399.31028 303.64 
L 398.914345 303.64 
L 398.51841 303.64 
L 398.122475 303.64 
L 397.72654 303.64 
L 397.330605 303.64 
L 396.93467 303.64 
L 396.538735 303.64 
L 396.1428 303.64 
L 395.746865 303.64 
L 395.35093 303.64 
L 394.954995 303.64 
L 394.55906 303.64 
L 394.163125 303.64 
L 393.76719 303.64 
L 393.371255 303.64 
L 392.97532 303.64 
L 392.579385 303.64 
L 392.18345 303.64 
L 391.787515 303.64 
L 391.39158 303.64 
L 390.995645 303.64 
L 390.59971 303.64 
L 390.203775 303.64 
L 389.80784 303.64 
L 389.411905 303.64 
L 389.01597 303.64 
L 388.620035 303.64 
L 388.2241 303.64 
L 387.828165 303.64 
L 387.43223 303.64 
L 387.036295 303.64 
L 386.64036 303.64 
L 386.244425 303.64 
L 385.84849 303.64 
L 385.452555 303.64 
L 385.05662 303.64 
L 384.660685 303.64 
L 384.26475 303.64 
L 383.868815 303.64 
L 383.47288 303.64 
L 383.076945 303.64 
L 382.68101 303.64 
L 382.285075 303.64 
L 381.88914 303.64 
L 381.493205 303.64 
L 381.09727 303.64 
L 380.701335 303.64 
L 380.3054 303.64 
L 379.909465 303.64 
L 379.51353 303.64 
L 379.117595 303.64 
L 378.72166 303.64 
L 378.325725 303.64 
L 377.92979 303.64 
L 377.533855 303.64 
L 377.13792 303.64 
L 376.741985 303.64 
L 376.34605 303.64 
L 375.950115 303.64 
L 375.55418 303.64 
L 375.158245 303.64 
L 374.76231 303.64 
L 374.366375 303.64 
L 373.97044 303.64 
L 373.574505 303.64 
L 373.17857 303.64 
L 372.782635 303.64 
L 372.3867 303.64 
L 371.990765 303.64 
L 371.59483 303.64 
L 371.198895 303.64 
L 370.80296 303.64 
L 370.407025 303.64 
L 370.01109 303.64 
L 369.615155 303.64 
L 369.21922 303.64 
L 368.823285 303.64 
L 368.42735 303.64 
L 368.031415 303.64 
L 367.63548 303.64 
L 367.239545 303.64 
L 366.84361 303.64 
L 366.447675 303.64 
L 366.05174 303.64 
L 365.655805 303.64 
L 365.25987 303.64 
L 364.863935 303.64 
L 364.468 303.64 
L 364.072065 303.64 
L 363.67613 303.64 
L 363.280195 303.64 
L 362.88426 303.64 
L 362.488325 303.64 
L 362.09239 303.64 
L 361.696455 303.64 
L 361.30052 303.64 
L 360.904585 303.64 
L 360.50865 303.64 
L 360.112715 303.64 
L 359.71678 303.64 
L 359.320845 303.64 
L 358.92491 303.64 
L 358.528975 303.64 
L 358.13304 303.64 
L 357.737105 303.64 
L 357.34117 303.64 
L 356.945235 303.64 
L 356.5493 303.64 
L 356.153365 303.64 
L 355.75743 303.64 
L 355.361495 303.64 
L 354.96556 303.64 
L 354.569625 303.64 
L 354.17369 303.64 
L 353.777755 303.64 
L 353.38182 303.64 
L 352.985885 303.64 
L 352.58995 303.64 
L 352.194015 303.64 
L 351.79808 303.64 
L 351.402145 303.64 
L 351.00621 303.64 
L 350.610275 303.64 
L 350.21434 303.64 
L 349.818405 303.64 
L 349.42247 303.64 
L 349.026535 303.64 
L 348.6306 303.64 
L 348.234665 303.64 
L 347.83873 303.64 
L 347.442795 303.64 
L 347.04686 303.64 
L 346.650925 303.64 
L 346.25499 303.64 
L 345.859055 303.64 
L 345.46312 303.64 
L 345.067185 303.64 
L 344.67125 303.64 
L 344.275315 303.64 
L 343.87938 303.64 
L 343.483445 303.64 
L 343.08751 303.64 
L 342.691575 303.64 
L 342.29564 303.64 
L 341.899705 303.64 
L 341.50377 303.64 
L 341.107835 303.64 
L 340.7119 303.64 
L 340.315965 303.64 
L 339.92003 303.64 
L 339.524095 303.64 
L 339.12816 303.64 
L 338.732225 303.64 
L 338.33629 303.64 
L 337.940355 303.64 
L 337.54442 303.64 
L 337.148485 303.64 
L 336.75255 303.64 
L 336.356615 303.64 
L 335.96068 303.64 
L 335.564745 303.64 
L 335.16881 303.64 
L 334.772875 303.64 
L 334.37694 303.64 
L 333.981005 303.64 
L 333.58507 303.64 
L 333.189135 303.64 
L 332.7932 303.64 
L 332.397265 303.64 
L 332.00133 303.64 
L 331.605395 303.64 
L 331.20946 303.64 
L 330.813525 303.64 
L 330.41759 303.64 
L 330.021655 303.64 
L 329.62572 303.64 
L 329.229785 303.64 
L 328.83385 303.64 
L 328.437915 303.64 
L 328.04198 303.64 
L 327.646045 303.64 
L 327.25011 303.64 
L 326.854175 303.64 
L 326.45824 303.64 
L 326.062305 303.64 
L 325.66637 303.64 
L 325.270435 303.64 
L 324.8745 303.64 
L 324.478565 303.64 
L 324.08263 303.64 
L 323.686695 303.64 
L 323.29076 303.64 
L 322.894825 303.64 
L 322.49889 303.64 
L 322.102955 303.64 
L 321.70702 303.64 
L 321.311085 303.64 
L 320.91515 303.64 
L 320.519215 303.64 
L 320.12328 303.64 
L 319.727345 303.64 
L 319.33141 303.64 
L 318.935475 303.64 
L 318.53954 303.64 
L 318.143605 303.64 
L 317.74767 303.64 
L 317.351735 303.64 
L 316.9558 303.64 
L 316.559865 303.64 
L 316.16393 303.64 
L 315.767995 303.64 
L 315.37206 303.64 
L 314.976125 303.64 
L 314.58019 303.64 
L 314.184255 303.64 
L 313.78832 303.64 
L 313.392385 303.64 
L 312.99645 303.64 
L 312.600515 303.64 
L 312.20458 303.64 
L 311.808645 303.64 
L 311.41271 303.64 
L 311.016775 303.64 
L 310.62084 303.64 
L 310.224905 303.64 
L 309.82897 303.64 
L 309.433035 303.64 
L 309.0371 303.64 
L 308.641165 303.64 
L 308.24523 303.64 
L 307.849295 303.64 
L 307.45336 303.64 
L 307.057425 303.64 
L 306.66149 303.64 
L 306.265555 303.64 
L 305.86962 303.64 
L 305.473685 303.64 
L 305.07775 303.64 
L 304.681815 303.64 
L 304.28588 303.64 
L 303.889945 303.64 
L 303.49401 303.64 
L 303.098075 303.64 
L 302.70214 303.64 
L 302.306205 303.64 
L 301.91027 303.64 
L 301.514335 303.64 
L 301.1184 303.64 
L 300.722465 303.64 
L 300.32653 303.64 
L 299.930595 303.64 
L 299.53466 303.64 
L 299.138725 303.64 
L 298.74279 303.64 
L 298.346855 303.64 
L 297.95092 303.64 
L 297.554985 303.64 
L 297.15905 303.64 
L 296.763115 303.64 
L 296.36718 303.64 
L 295.971245 303.64 
L 295.57531 303.64 
L 295.179375 303.64 
L 294.78344 303.64 
L 294.387505 303.64 
L 293.99157 303.64 
L 293.595635 303.64 
L 293.1997 303.64 
L 292.803765 303.64 
L 292.40783 303.64 
L 292.011895 303.64 
L 291.61596 303.64 
L 291.220025 303.64 
L 290.82409 303.64 
L 290.428155 303.64 
L 290.03222 303.64 
L 289.636285 303.64 
L 289.24035 303.64 
L 288.844415 303.64 
L 288.44848 303.64 
L 288.052545 303.64 
L 287.65661 303.64 
L 287.260675 303.64 
L 286.86474 303.64 
L 286.468805 303.64 
L 286.07287 303.64 
L 285.676935 303.64 
L 285.281 303.64 
L 284.885065 303.64 
L 284.48913 303.64 
L 284.093195 303.64 
L 283.69726 303.64 
L 283.301325 303.64 
L 282.90539 303.64 
L 282.509455 303.64 
L 282.11352 303.64 
L 281.717585 303.64 
L 281.32165 303.64 
L 280.925715 303.64 
L 280.52978 303.64 
L 280.133845 303.64 
L 279.73791 303.64 
L 279.341975 303.64 
L 278.94604 303.64 
L 278.550105 303.64 
L 278.15417 303.64 
L 277.758235 303.64 
L 277.3623 303.64 
L 276.966365 303.64 
L 276.57043 303.64 
L 276.174495 303.64 
L 275.77856 303.64 
L 275.382625 303.64 
L 274.98669 303.64 
L 274.590755 303.64 
L 274.19482 303.64 
L 273.798885 303.64 
L 273.40295 303.64 
L 273.007015 303.64 
L 272.61108 303.64 
L 272.215145 303.64 
L 271.81921 303.64 
L 271.423275 303.64 
L 271.02734 303.64 
L 270.631405 303.64 
L 270.23547 303.64 
L 269.839535 303.64 
L 269.4436 303.64 
L 269.047665 303.64 
L 268.65173 303.64 
L 268.255795 303.64 
L 267.85986 303.64 
L 267.463925 303.64 
L 267.06799 303.64 
L 266.672055 303.64 
L 266.27612 303.64 
L 265.880185 303.64 
L 265.48425 303.64 
L 265.088315 303.64 
L 264.69238 303.64 
L 264.296445 303.64 
L 263.90051 303.64 
L 263.504575 303.64 
L 263.10864 303.64 
L 262.712705 303.64 
L 262.31677 303.64 
L 261.920835 303.64 
L 261.5249 303.64 
L 261.128965 303.64 
L 260.73303 303.64 
L 260.337095 303.64 
L 259.94116 303.64 
L 259.545225 303.64 
L 259.14929 303.64 
L 258.753355 303.64 
L 258.35742 303.64 
L 257.961485 303.64 
L 257.56555 303.64 
L 257.169615 303.64 
L 256.77368 303.64 
L 256.377745 303.64 
L 255.98181 303.64 
L 255.585875 303.64 
L 255.18994 303.64 
L 254.794005 303.64 
L 254.39807 303.64 
L 254.002135 303.64 
L 253.6062 303.64 
L 253.210265 303.64 
L 252.81433 303.64 
L 252.418395 303.64 
L 252.02246 303.64 
L 251.626525 303.64 
L 251.23059 303.64 
L 250.834655 303.64 
L 250.43872 303.64 
L 250.042785 303.64 
L 249.64685 303.64 
L 249.250915 303.64 
L 248.85498 303.64 
L 248.459045 303.64 
L 248.06311 303.64 
L 247.667175 303.64 
L 247.27124 303.64 
L 246.875305 303.64 
L 246.47937 303.64 
L 246.083435 303.64 
L 245.6875 303.64 
L 245.291565 303.64 
L 244.89563 303.64 
L 244.499695 303.64 
L 244.10376 303.64 
L 243.707825 303.64 
L 243.31189 303.64 
L 242.915955 303.64 
L 242.52002 303.64 
L 242.124085 303.64 
L 241.72815 303.64 
L 241.332215 303.64 
L 240.93628 303.64 
L 240.540345 303.64 
L 240.14441 303.64 
L 239.748475 303.64 
L 239.35254 303.64 
L 238.956605 303.64 
L 238.56067 303.64 
L 238.164735 303.64 
L 237.7688 303.64 
L 237.372865 303.64 
L 236.97693 303.64 
L 236.580995 303.64 
L 236.18506 303.64 
L 235.789125 303.64 
L 235.39319 303.64 
L 234.997255 303.64 
L 234.60132 303.64 
L 234.205385 303.64 
L 233.80945 303.64 
L 233.413515 303.64 
L 233.01758 303.64 
L 232.621645 303.64 
L 232.22571 303.64 
L 231.829775 303.64 
L 231.43384 303.64 
L 231.037905 303.64 
L 230.64197 303.64 
L 230.246035 303.64 
L 229.8501 303.64 
L 229.454165 303.64 
L 229.05823 303.64 
L 228.662295 303.64 
L 228.26636 303.64 
L 227.870425 303.64 
L 227.47449 303.64 
L 227.078555 303.64 
L 226.68262 303.64 
L 226.286685 303.64 
L 225.89075 303.64 
L 225.494815 303.64 
L 225.09888 303.64 
L 224.702945 303.64 
L 224.30701 303.64 
L 223.911075 303.64 
L 223.51514 303.64 
L 223.119205 303.64 
L 222.72327 303.64 
L 222.327335 303.64 
L 221.9314 303.64 
L 221.535465 303.64 
L 221.13953 303.64 
L 220.743595 303.64 
L 220.34766 303.64 
L 219.951725 303.64 
L 219.55579 303.64 
L 219.159855 303.64 
L 218.76392 303.64 
L 218.367985 303.64 
L 217.97205 303.64 
L 217.576115 303.64 
L 217.18018 303.64 
L 216.784245 303.64 
L 216.38831 303.64 
L 215.992375 303.64 
L 215.59644 303.64 
L 215.200505 303.64 
L 214.80457 303.64 
L 214.408635 303.64 
L 214.0127 303.64 
L 213.616765 303.64 
L 213.22083 303.64 
L 212.824895 303.64 
L 212.42896 303.64 
L 212.033025 303.64 
L 211.63709 303.64 
L 211.241155 303.64 
L 210.84522 303.64 
L 210.449285 303.64 
L 210.05335 303.64 
L 209.657415 303.64 
L 209.26148 303.64 
L 208.865545 303.64 
L 208.46961 303.64 
L 208.073675 303.64 
L 207.67774 303.64 
L 207.281805 303.64 
L 206.88587 303.64 
L 206.489935 303.64 
L 206.094 303.64 
L 205.698065 303.64 
L 205.30213 303.64 
L 204.906195 303.64 
L 204.51026 303.64 
L 204.114325 303.64 
L 203.71839 303.64 
L 203.322455 303.64 
L 202.92652 303.64 
L 202.530585 303.64 
L 202.13465 303.64 
L 201.738715 303.64 
L 201.34278 303.64 
L 200.946845 303.64 
L 200.55091 303.64 
L 200.154975 303.64 
L 199.75904 303.64 
L 199.363105 303.64 
L 198.96717 303.64 
L 198.571235 303.64 
L 198.1753 303.64 
L 197.779365 303.64 
L 197.38343 303.64 
L 196.987495 303.64 
L 196.59156 303.64 
L 196.195625 303.64 
L 195.79969 303.64 
L 195.403755 303.64 
L 195.00782 303.64 
L 194.611885 303.64 
L 194.21595 303.64 
L 193.820015 303.64 
L 193.42408 303.64 
L 193.028145 303.64 
L 192.63221 303.64 
L 192.236275 303.64 
L 191.84034 303.64 
L 191.444405 303.64 
L 191.04847 303.64 
L 190.652535 303.64 
L 190.2566 303.64 
L 189.860665 303.64 
L 189.46473 303.64 
L 189.068795 303.64 
L 188.67286 303.64 
L 188.276925 303.64 
L 187.88099 303.64 
L 187.485055 303.64 
L 187.08912 303.64 
L 186.693185 303.64 
L 186.29725 303.64 
L 185.901315 303.64 
L 185.50538 303.64 
L 185.109445 303.64 
L 184.71351 303.64 
L 184.317575 303.64 
L 183.92164 303.64 
L 183.525705 303.64 
L 183.12977 303.64 
L 182.733835 303.64 
L 182.3379 303.64 
L 181.941965 303.64 
L 181.54603 303.64 
L 181.150095 303.64 
L 180.75416 303.64 
L 180.358225 303.64 
L 179.96229 303.64 
L 179.566355 303.64 
L 179.17042 303.64 
L 178.774485 303.64 
L 178.37855 303.64 
L 177.982615 303.64 
L 177.58668 303.64 
L 177.190745 303.64 
L 176.79481 303.64 
L 176.398875 303.64 
L 176.00294 303.64 
L 175.607005 303.64 
L 175.21107 303.64 
L 174.815135 303.64 
L 174.4192 303.64 
L 174.023265 303.64 
L 173.62733 303.64 
L 173.231395 303.64 
L 172.83546 303.64 
L 172.439525 303.64 
L 172.04359 303.64 
L 171.647655 303.64 
L 171.25172 303.64 
L 170.855785 303.64 
L 170.45985 303.64 
L 170.063915 303.64 
L 169.66798 303.64 
L 169.272045 303.64 
L 168.87611 303.64 
L 168.480175 303.64 
L 168.08424 303.64 
L 167.688305 303.64 
L 167.29237 303.64 
L 166.896435 303.64 
L 166.5005 303.64 
L 166.104565 303.64 
L 165.70863 303.64 
L 165.312695 303.64 
L 164.91676 303.64 
L 164.520825 303.64 
L 164.12489 303.64 
L 163.728955 303.64 
L 163.33302 303.64 
L 162.937085 303.64 
L 162.54115 303.64 
L 162.145215 303.64 
L 161.74928 303.64 
L 161.353345 303.64 
L 160.95741 303.64 
L 160.561475 303.64 
L 160.16554 303.64 
L 159.769605 303.64 
L 159.37367 303.64 
L 158.977735 303.64 
L 158.5818 303.64 
L 158.185865 303.64 
L 157.78993 303.64 
L 157.393995 303.64 
L 156.99806 303.64 
L 156.602125 303.64 
L 156.20619 303.64 
L 155.810255 303.64 
L 155.41432 303.64 
L 155.018385 303.64 
L 154.62245 303.64 
L 154.226515 303.64 
L 153.83058 303.64 
L 153.434645 303.64 
L 153.03871 303.64 
L 152.642775 303.64 
L 152.24684 303.64 
L 151.850905 303.64 
L 151.45497 303.64 
L 151.059035 303.64 
L 150.6631 303.64 
L 150.267165 303.64 
L 149.87123 303.64 
L 149.475295 303.64 
L 149.07936 303.64 
L 148.683425 303.64 
L 148.28749 303.64 
L 147.891555 303.64 
L 147.49562 303.64 
L 147.099685 303.64 
L 146.70375 303.64 
L 146.307815 303.64 
L 145.91188 303.64 
L 145.515945 303.64 
L 145.12001 303.64 
L 144.724075 303.64 
L 144.32814 303.64 
L 143.932205 303.64 
L 143.53627 303.64 
L 143.140335 303.64 
L 142.7444 303.64 
L 142.348465 303.64 
L 141.95253 303.64 
L 141.556595 303.64 
L 141.16066 303.64 
L 140.764725 303.64 
L 140.36879 303.64 
L 139.972855 303.64 
L 139.57692 303.64 
L 139.180985 303.64 
L 138.78505 303.64 
L 138.389115 303.64 
L 137.99318 303.64 
L 137.597245 303.64 
L 137.20131 303.64 
L 136.805375 303.64 
L 136.40944 303.64 
L 136.013505 303.64 
L 135.61757 303.64 
L 135.221635 303.64 
L 134.8257 303.64 
L 134.429765 303.64 
L 134.03383 303.64 
L 133.637895 303.64 
L 133.24196 303.64 
L 132.846025 303.64 
L 132.45009 303.64 
L 132.054155 303.64 
L 131.65822 303.64 
L 131.262285 303.64 
L 130.86635 303.64 
L 130.470415 303.64 
L 130.07448 303.64 
L 129.678545 303.64 
L 129.28261 303.64 
L 128.886675 303.64 
L 128.49074 303.64 
L 128.094805 303.64 
L 127.69887 303.64 
L 127.302935 303.64 
L 126.907 303.64 
L 126.511065 303.64 
L 126.11513 303.64 
L 125.719195 303.64 
L 125.32326 303.64 
L 124.927325 303.64 
L 124.53139 303.64 
L 124.135455 303.64 
L 123.73952 303.64 
L 123.343585 303.64 
L 122.94765 303.64 
L 122.551715 303.64 
L 122.15578 303.64 
L 121.759845 303.64 
L 121.36391 303.64 
L 120.967975 303.64 
L 120.57204 303.64 
L 120.176105 303.64 
L 119.78017 303.64 
L 119.384235 303.64 
L 118.9883 303.64 
L 118.592365 303.64 
L 118.19643 303.64 
L 117.800495 303.64 
L 117.40456 303.64 
L 117.008625 303.64 
L 116.61269 303.64 
L 116.216755 303.64 
L 115.82082 303.64 
L 115.424885 303.64 
L 115.02895 303.64 
L 114.633015 303.64 
L 114.23708 303.64 
L 113.841145 303.64 
L 113.44521 303.64 
L 113.049275 303.64 
L 112.65334 303.64 
L 112.257405 303.64 
L 111.86147 303.64 
L 111.465535 303.64 
L 111.0696 303.64 
L 110.673665 303.64 
L 110.27773 303.64 
L 109.881795 303.64 
L 109.48586 303.64 
L 109.089925 303.64 
L 108.69399 303.64 
L 108.298055 303.64 
L 107.90212 303.64 
L 107.506185 303.64 
L 107.11025 303.64 
L 106.714315 303.64 
L 106.31838 303.64 
L 105.922445 303.64 
L 105.52651 303.64 
L 105.130575 303.64 
L 104.73464 303.64 
L 104.338705 303.64 
L 103.94277 303.64 
L 103.546835 303.64 
L 103.1509 303.64 
L 102.754965 303.64 
L 102.35903 303.64 
L 101.963095 303.64 
L 101.56716 303.64 
L 101.171225 303.64 
L 100.77529 303.64 
L 100.379355 303.64 
L 99.98342 303.64 
L 99.587485 303.64 
L 99.19155 303.64 
L 98.795615 303.64 
L 98.39968 303.64 
L 98.003745 303.64 
L 97.60781 303.64 
L 97.211875 303.64 
L 96.81594 303.64 
L 96.420005 303.64 
L 96.02407 303.64 
L 95.628135 303.64 
L 95.2322 303.64 
L 94.836265 303.64 
L 94.44033 303.64 
L 94.044395 303.64 
L 93.64846 303.64 
L 93.252525 303.64 
L 92.85659 303.64 
L 92.460655 303.64 
L 92.06472 303.64 
L 91.668785 303.64 
L 91.27285 303.64 
L 90.876915 303.64 
L 90.48098 303.64 
L 90.085045 303.64 
L 89.68911 303.64 
L 89.293175 303.64 
L 88.89724 303.64 
L 88.501305 303.64 
L 88.10537 303.64 
L 87.709435 303.64 
L 87.3135 303.64 
L 86.917565 303.64 
L 86.52163 303.64 
L 86.125695 303.64 
L 85.72976 303.64 
L 85.333825 303.64 
L 84.93789 303.64 
L 84.541955 303.64 
L 84.14602 303.64 
L 83.750085 303.64 
L 83.35415 303.64 
L 82.958215 303.64 
L 82.56228 303.64 
L 82.166345 303.64 
L 81.77041 303.64 
L 81.374475 303.64 
L 80.97854 303.64 
L 80.582605 303.64 
L 80.18667 303.64 
L 79.790735 303.64 
L 79.3948 303.64 
L 78.998865 303.64 
L 78.60293 303.64 
L 78.206995 303.64 
L 77.81106 303.64 
L 77.415125 303.64 
L 77.01919 303.64 
L 76.623255 303.64 
L 76.22732 303.64 
L 75.831385 303.64 
L 75.43545 303.64 
L 75.039515 303.64 
L 74.64358 303.64 
L 74.247645 303.64 
L 73.85171 303.64 
L 73.455775 303.64 
L 73.05984 303.64 
L 72.663905 303.64 
L 72.26797 303.64 
L 71.872035 303.64 
L 71.4761 303.64 
L 71.080165 303.64 
L 70.68423 303.64 
L 70.288295 303.64 
L 69.89236 303.64 
L 69.496425 303.64 
L 69.10049 303.64 
L 68.704555 303.64 
L 68.30862 303.64 
L 67.912685 303.64 
L 67.51675 303.64 
L 67.120815 303.64 
L 66.72488 303.64 
L 66.328945 303.64 
L 65.93301 303.64 
L 65.537075 303.64 
L 65.14114 303.64 
L 64.745205 303.64 
L 64.34927 303.64 
L 63.953335 303.64 
L 63.5574 303.64 
L 63.161465 303.64 
L 62.76553 303.64 
L 62.369595 303.64 
L 61.97366 303.64 
L 61.577725 303.64 
L 61.18179 303.64 
L 60.785855 303.64 
L 60.38992 303.64 
L 59.993985 303.64 
L 59.59805 303.64 
L 59.202115 303.64 
L 58.80618 303.64 
L 58.410245 303.64 
L 58.01431 303.64 
L 57.618375 303.64 
L 57.22244 303.64 
L 56.826505 303.64 
L 56.43057 303.64 
L 56.034635 303.64 
L 55.6387 303.64 
L 55.242765 303.64 
L 54.84683 303.64 
L 54.450895 303.64 
L 54.05496 303.64 
L 53.659025 303.64 
L 53.26309 303.64 
L 52.867155 303.64 
L 52.47122 303.64 
L 52.075285 303.64 
L 51.67935 303.64 
L 51.283415 303.64 
L 50.88748 303.64 
L 50.491545 303.64 
L 50.09561 303.64 
L 49.699675 303.64 
L 49.30374 303.64 
L 48.907805 303.64 
L 48.51187 303.64 
L 48.115935 303.64 
z
" clip-path="url(#p5d6173c705)" style="fill: #1f77b4; fill-opacity: 0.15"/>
   </g>
   <g id="matplotlib.axis_1">
    <g id="xtick_1">
     <g id="line2d_1">
      <defs>
       <path id="m654d4469a3" d="M 0 0 
L 0 3.5 
" style="stroke: #000000; stroke-width: 0.8"/>
      </defs>
      <g>
       <use xlink:href="#m654d4469a3" x="47.72" y="303.64" style="stroke: #000000; stroke-width: 0.8"/>
      </g>
     </g>
     <g id="text_1">
      <!-- 0 -->
      <g transform="translate(44.53875 318.238437) scale(0.1 -0.1)">
       <defs>
        <path id="DejaVuSans-30" d="M 2034 4250 
Q 1547 4250 1301 3770 
Q 1056 3291 1056 2328 
Q 1056 1369 1301 889 
Q 1547 409 2034 409 
Q 2525 409 2770 889 
Q 3016 1369 3016 2328 
Q 3016 3291 2770 3770 
Q 2525 4250 2034 4250 
z
M 2034 4750 
Q 2819 4750 3233 4129 
Q 3647 3509 3647 2328 
Q 3647 1150 3233 529 
Q 2819 -91 2034 -91 
Q 1250 -91 836 529 
Q 422 1150 422 2328 
Q 422 3509 836 4129 
Q 1250 4750 2034 4750 
z
" transform="scale(0.015625)"/>
       </defs>
       <use xlink:href="#DejaVuSans-30"/>
      </g>
     </g>
    </g>
    <g id="xtick_2">
     <g id="line2d_2">
      <g>
       <use xlink:href="#m654d4469a3" x="126.907" y="303.64" style="stroke: #000000; stroke-width: 0.8"/>
      </g>
     </g>
     <g id="text_2">
      <!-- 2 -->
      <g transform="translate(123.72575 318.238437) scale(0.1 -0.1)">
       <defs>
        <path id="DejaVuSans-32" d="M 1228 531 
L 3431 531 
L 3431 0 
L 469 0 
L 469 531 
Q 828 903 1448 1529 
Q 2069 2156 2228 2338 
Q 2531 2678 2651 2914 
Q 2772 3150 2772 3378 
Q 2772 3750 2511 3984 
Q 2250 4219 1831 4219 
Q 1534 4219 1204 4116 
Q 875 4013 500 3803 
L 500 4441 
Q 881 4594 1212 4672 
Q 1544 4750 1819 4750 
Q 2544 4750 2975 4387 
Q 3406 4025 3406 3419 
Q 3406 3131 3298 2873 
Q 3191 2616 2906 2266 
Q 2828 2175 2409 1742 
Q 1991 1309 1228 531 
z
" transform="scale(0.015625)"/>
       </defs>
       <use xlink:href="#DejaVuSans-32"/>
      </g>
     </g>
    </g>
    <g id="xtick_3">
     <g id="line2d_3">
      <g>
       <use xlink:href="#m654d4469a3" x="206.094" y="303.64" style="stroke: #000000; stroke-width: 0.8"/>
      </g>
     </g>
     <g id="text_3">
      <!-- 4 -->
      <g transform="translate(202.91275 318.238437) scale(0.1 -0.1)">
       <defs>
        <path id="DejaVuSans-34" d="M 2419 4116 
L 825 1625 
L 2419 1625 
L 2419 4116 
z
M 2253 4666 
L 3047 4666 
L 3047 1625 
L 3713 1625 
L 3713 1100 
L 3047 1100 
L 3047 0 
L 2419 0 
L 2419 1100 
L 313 1100 
L 313 1709 
L 2253 4666 
z
" transform="scale(0.015625)"/>
       </defs>
       <use xlink:href="#DejaVuSans-34"/>
      </g>
     </g>
    </g>
    <g id="xtick_4">
     <g id="line2d_4">
      <g>
       <use xlink:href="#m654d4469a3" x="285.281" y="303.64" style="stroke: #000000; stroke-width: 0.8"/>
      </g>
     </g>
     <g id="text_4">
      <!-- 6 -->
      <g transform="translate(282.09975 318.238437) scale(0.1 -0.1)">
       <defs>
        <path id="DejaVuSans-36" d="M 2113 2584 
Q 1688 2584 1439 2293 
Q 1191 2003 1191 1497 
Q 1191 994 1439 701 
Q 1688 409 2113 409 
Q 2538 409 2786 701 
Q 3034 994 3034 1497 
Q 3034 2003 2786 2293 
Q 2538 2584 2113 2584 
z
M 3366 4563 
L 3366 3988 
Q 3128 4100 2886 4159 
Q 2644 4219 2406 4219 
Q 1781 4219 1451 3797 
Q 1122 3375 1075 2522 
Q 1259 2794 1537 2939 
Q 1816 3084 2150 3084 
Q 2853 3084 3261 2657 
Q 3669 2231 3669 1497 
Q 3669 778 3244 343 
Q 2819 -91 2113 -91 
Q 1303 -91 875 529 
Q 447 1150 447 2328 
Q 447 3434 972 4092 
Q 1497 4750 2381 4750 
Q 2619 4750 2861 4703 
Q 3103 4656 3366 4563 
z
" transform="scale(0.015625)"/>
       </defs>
       <use xlink:href="#DejaVuSans-36"/>
      </g>
     </g>
    </g>
    <g id="xtick_5">
     <g id="line2d_5">
      <g>
       <use xlink:href="#m654d4469a3" x="364.468" y="303.64" style="stroke: #000000; stroke-width: 0.8"/>
      </g>
     </g>
     <g id="text_5">
      <!-- 8 -->
      <g transform="translate(361.28675 318.238437) scale(0.1 -0.1)">
       <defs>
        <path id="DejaVuSans-38" d="M 2034 2216 
Q 1584 2216 1326 1975 
Q 1069 1734 1069 1313 
Q 1069 891 1326 650 
Q 1584 409 2034 409 
Q 2484 409 2743 651 
Q 3003 894 3003 1313 
Q 3003 1734 2745 1975 
Q 2488 2216 2034 2216 
z
M 1403 2484 
Q 997 2584 770 2862 
Q 544 3141 544 3541 
Q 544 4100 942 4425 
Q 1341 4750 2034 4750 
Q 2731 4750 3128 4425 
Q 3525 4100 3525 3541 
Q 3525 3141 3298 2862 
Q 3072 2584 2669 2484 
Q 3125 2378 3379 2068 
Q 3634 1759 3634 1313 
Q 3634 634 3220 271 
Q 2806 -91 2034 -91 
Q 1263 -91 848 271 
Q 434 634 434 1313 
Q 434 1759 690 2068 
Q 947 2378 1403 2484 
z
M 1172 3481 
Q 1172 3119 1398 2916 
Q 1625 2713 2034 2713 
Q 2441 2713 2670 2916 
Q 2900 3119 2900 3481 
Q 2900 3844 2670 4047 
Q 2441 4250 2034 4250 
Q 1625 4250 1398 4047 
Q 1172 3844 1172 3481 
z
" transform="scale(0.015625)"/>
       </defs>
       <use xlink:href="#DejaVuSans-38"/>
      </g>
     </g>
    </g>
    <g id="xtick_6">
     <g id="line2d_6">
      <g>
       <use xlink:href="#m654d4469a3" x="443.655" y="303.64" style="stroke: #000000; stroke-width: 0.8"/>
      </g>
     </g>
     <g id="text_6">
      <!-- 10 -->
      <g transform="translate(437.2925 318.238437) scale(0.1 -0.1)">
       <defs>
        <path id="DejaVuSans-31" d="M 794 531 
L 1825 531 
L 1825 4091 
L 703 3866 
L 703 4441 
L 1819 4666 
L 2450 4666 
L 2450 531 
L 3481 531 
L 3481 0 
L 794 0 
L 794 531 
z
" transform="scale(0.015625)"/>
       </defs>
       <use xlink:href="#DejaVuSans-31"/>
       <use xlink:href="#DejaVuSans-30" x="63.623047"/>
      </g>
     </g>
    </g>
    <g id="text_7">
     <!-- x -->
     <g transform="translate(242.728125 331.916562) scale(0.1 -0.1)">
      <defs>
       <path id="DejaVuSans-78" d="M 3513 3500 
L 2247 1797 
L 3578 0 
L 2900 0 
L 1881 1375 
L 863 0 
L 184 0 
L 1544 1831 
L 300 3500 
L 978 3500 
L 1906 2253 
L 2834 3500 
L 3513 3500 
z
" transform="scale(0.015625)"/>
      </defs>
      <use xlink:href="#DejaVuSans-78"/>
     </g>
    </g>
   </g>
   <g id="matplotlib.axis_2">
    <g id="ytick_1">
     <g id="line2d_7">
      <path d="M 47.72 303.64 
L 443.655 303.64 
" clip-path="url(#p5d6173c705)" style="fill: none; stroke-dasharray: 2.96,1.28; stroke-dashoffset: 0; stroke: #b0b0b0; stroke-opacity: 0.7; stroke-width: 0.8"/>
     </g>
     <g id="line2d_8">
      <defs>
       <path id="mf42cf632d1" d="M 0 0 
L -3.5 0 
" style="stroke: #000000; stroke-width: 0.8"/>
      </defs>
      <g>
       <use xlink:href="#mf42cf632d1" x="47.72" y="303.64" style="stroke: #000000; stroke-width: 0.8"/>
      </g>
     </g>
     <g id="text_8">
      <!-- 0.0 -->
      <g transform="translate(24.816875 307.439219) scale(0.1 -0.1)">
       <defs>
        <path id="DejaVuSans-2e" d="M 684 794 
L 1344 794 
L 1344 0 
L 684 0 
L 684 794 
z
" transform="scale(0.015625)"/>
       </defs>
       <use xlink:href="#DejaVuSans-30"/>
       <use xlink:href="#DejaVuSans-2e" x="63.623047"/>
       <use xlink:href="#DejaVuSans-30" x="95.410156"/>
      </g>
     </g>
    </g>
    <g id="ytick_2">
     <g id="line2d_9">
      <path d="M 47.72 255.493333 
L 443.655 255.493333 
" clip-path="url(#p5d6173c705)" style="fill: none; stroke-dasharray: 2.96,1.28; stroke-dashoffset: 0; stroke: #b0b0b0; stroke-opacity: 0.7; stroke-width: 0.8"/>
     </g>
     <g id="line2d_10">
      <g>
       <use xlink:href="#mf42cf632d1" x="47.72" y="255.493333" style="stroke: #000000; stroke-width: 0.8"/>
      </g>
     </g>
     <g id="text_9">
      <!-- 0.2 -->
      <g transform="translate(24.816875 259.292552) scale(0.1 -0.1)">
       <use xlink:href="#DejaVuSans-30"/>
       <use xlink:href="#DejaVuSans-2e" x="63.623047"/>
       <use xlink:href="#DejaVuSans-32" x="95.410156"/>
      </g>
     </g>
    </g>
    <g id="ytick_3">
     <g id="line2d_11">
      <path d="M 47.72 207.346667 
L 443.655 207.346667 
" clip-path="url(#p5d6173c705)" style="fill: none; stroke-dasharray: 2.96,1.28; stroke-dashoffset: 0; stroke: #b0b0b0; stroke-opacity: 0.7; stroke-width: 0.8"/>
     </g>
     <g id="line2d_12">
      <g>
       <use xlink:href="#mf42cf632d1" x="47.72" y="207.346667" style="stroke: #000000; stroke-width: 0.8"/>
      </g>
     </g>
     <g id="text_10">
      <!-- 0.4 -->
      <g transform="translate(24.816875 211.145885) scale(0.1 -0.1)">
       <use xlink:href="#DejaVuSans-30"/>
       <use xlink:href="#DejaVuSans-2e" x="63.623047"/>
       <use xlink:href="#DejaVuSans-34" x="95.410156"/>
      </g>
     </g>
    </g>
    <g id="ytick_4">
     <g id="line2d_13">
      <path d="M 47.72 159.2 
L 443.655 159.2 
" clip-path="url(#p5d6173c705)" style="fill: none; stroke-dasharray: 2.96,1.28; stroke-dashoffset: 0; stroke: #b0b0b0; stroke-opacity: 0.7; stroke-width: 0.8"/>
     </g>
     <g id="line2d_14">
      <g>
       <use xlink:href="#mf42cf632d1" x="47.72" y="159.2" style="stroke: #000000; stroke-width: 0.8"/>
      </g>
     </g>
     <g id="text_11">
      <!-- 0.6 -->
      <g transform="translate(24.816875 162.999219) scale(0.1 -0.1)">
       <use xlink:href="#DejaVuSans-30"/>
       <use xlink:href="#DejaVuSans-2e" x="63.623047"/>
       <use xlink:href="#DejaVuSans-36" x="95.410156"/>
      </g>
     </g>
    </g>
    <g id="ytick_5">
     <g id="line2d_15">
      <path d="M 47.72 111.053333 
L 443.655 111.053333 
" clip-path="url(#p5d6173c705)" style="fill: none; stroke-dasharray: 2.96,1.28; stroke-dashoffset: 0; stroke: #b0b0b0; stroke-opacity: 0.7; stroke-width: 0.8"/>
     </g>
     <g id="line2d_16">
      <g>
       <use xlink:href="#mf42cf632d1" x="47.72" y="111.053333" style="stroke: #000000; stroke-width: 0.8"/>
      </g>
     </g>
     <g id="text_12">
      <!-- 0.8 -->
      <g transform="translate(24.816875 114.852552) scale(0.1 -0.1)">
       <use xlink:href="#DejaVuSans-30"/>
       <use xlink:href="#DejaVuSans-2e" x="63.623047"/>
       <use xlink:href="#DejaVuSans-38" x="95.410156"/>
      </g>
     </g>
    </g>
    <g id="ytick_6">
     <g id="line2d_17">
      <path d="M 47.72 62.906667 
L 443.655 62.906667 
" clip-path="url(#p5d6173c705)" style="fill: none; stroke-dasharray: 2.96,1.28; stroke-dashoffset: 0; stroke: #b0b0b0; stroke-opacity: 0.7; stroke-width: 0.8"/>
     </g>
     <g id="line2d_18">
      <g>
       <use xlink:href="#mf42cf632d1" x="47.72" y="62.906667" style="stroke: #000000; stroke-width: 0.8"/>
      </g>
     </g>
     <g id="text_13">
      <!-- 1.0 -->
      <g transform="translate(24.816875 66.705885) scale(0.1 -0.1)">
       <use xlink:href="#DejaVuSans-31"/>
       <use xlink:href="#DejaVuSans-2e" x="63.623047"/>
       <use xlink:href="#DejaVuSans-30" x="95.410156"/>
      </g>
     </g>
    </g>
    <g id="ytick_7">
     <g id="line2d_19">
      <path d="M 47.72 14.76 
L 443.655 14.76 
" clip-path="url(#p5d6173c705)" style="fill: none; stroke-dasharray: 2.96,1.28; stroke-dashoffset: 0; stroke: #b0b0b0; stroke-opacity: 0.7; stroke-width: 0.8"/>
     </g>
     <g id="line2d_20">
      <g>
       <use xlink:href="#mf42cf632d1" x="47.72" y="14.76" style="stroke: #000000; stroke-width: 0.8"/>
      </g>
     </g>
     <g id="text_14">
      <!-- 1.2 -->
      <g transform="translate(24.816875 18.559219) scale(0.1 -0.1)">
       <use xlink:href="#DejaVuSans-31"/>
       <use xlink:href="#DejaVuSans-2e" x="63.623047"/>
       <use xlink:href="#DejaVuSans-32" x="95.410156"/>
      </g>
     </g>
    </g>
    <g id="text_15">
     <!-- 1/x -->
     <g transform="translate(18.737188 167.025) rotate(-90) scale(0.1 -0.1)">
      <defs>
       <path id="DejaVuSans-2f" d="M 1625 4666 
L 2156 4666 
L 531 -594 
L 0 -594 
L 1625 4666 
z
" transform="scale(0.015625)"/>
      </defs>
      <use xlink:href="#DejaVuSans-31"/>
      <use xlink:href="#DejaVuSans-2f" x="63.623047"/>
      <use xlink:href="#DejaVuSans-78" x="97.314453"/>
     </g>
    </g>
   </g>
   <g id="patch_3">
    <path d="M 47.72 303.64 
L 47.72 14.76 
" style="fill: none; stroke: #000000; stroke-width: 0.8; stroke-linejoin: miter; stroke-linecap: square"/>
   </g>
   <g id="patch_4">
    <path d="M 443.655 303.64 
L 443.655 14.76 
" style="fill: none; stroke: #000000; stroke-width: 0.8; stroke-linejoin: miter; stroke-linecap: square"/>
   </g>
   <g id="patch_5">
    <path d="M 47.72 303.64 
L 443.655 303.64 
" style="fill: none; stroke: #000000; stroke-width: 0.8; stroke-linejoin: miter; stroke-linecap: square"/>
   </g>
   <g id="patch_6">
    <path d="M 47.72 14.76 
L 443.655 14.76 
" style="fill: none; stroke: #000000; stroke-width: 0.8; stroke-linejoin: miter; stroke-linecap: square"/>
   </g>
   <g id="patch_7">
    <path d="M 47.72 303.64 
L 87.3135 303.64 
L 87.3135 62.906667 
L 47.72 62.906667 
z
" clip-path="url(#p5d6173c705)" style="fill: #1f77b4; stroke: #000000; stroke-width: 1.2; stroke-linejoin: miter"/>
   </g>
   <g id="patch_8">
    <path d="M 87.3135 303.64 
L 126.907 303.64 
L 126.907 183.273333 
L 87.3135 183.273333 
z
" clip-path="url(#p5d6173c705)" style="fill: #1f77b4; stroke: #000000; stroke-width: 1.2; stroke-linejoin: miter"/>
   </g>
   <g id="patch_9">
    <path d="M 126.907 303.64 
L 166.5005 303.64 
L 166.5005 223.395556 
L 126.907 223.395556 
z
" clip-path="url(#p5d6173c705)" style="fill: #1f77b4; stroke: #000000; stroke-width: 1.2; stroke-linejoin: miter"/>
   </g>
   <g id="patch_10">
    <path d="M 166.5005 303.64 
L 206.094 303.64 
L 206.094 243.456667 
L 166.5005 243.456667 
z
" clip-path="url(#p5d6173c705)" style="fill: #1f77b4; stroke: #000000; stroke-width: 1.2; stroke-linejoin: miter"/>
   </g>
   <g id="patch_11">
    <path d="M 206.094 303.64 
L 245.6875 303.64 
L 245.6875 255.493333 
L 206.094 255.493333 
z
" clip-path="url(#p5d6173c705)" style="fill: #1f77b4; stroke: #000000; stroke-width: 1.2; stroke-linejoin: miter"/>
   </g>
   <g id="patch_12">
    <path d="M 245.6875 303.64 
L 285.281 303.64 
L 285.281 263.517778 
L 245.6875 263.517778 
z
" clip-path="url(#p5d6173c705)" style="fill: #1f77b4; stroke: #000000; stroke-width: 1.2; stroke-linejoin: miter"/>
   </g>
   <g id="patch_13">
    <path d="M 285.281 303.64 
L 324.8745 303.64 
L 324.8745 269.249524 
L 285.281 269.249524 
z
" clip-path="url(#p5d6173c705)" style="fill: #1f77b4; stroke: #000000; stroke-width: 1.2; stroke-linejoin: miter"/>
   </g>
   <g id="patch_14">
    <path d="M 324.8745 303.64 
L 364.468 303.64 
L 364.468 273.548333 
L 324.8745 273.548333 
z
" clip-path="url(#p5d6173c705)" style="fill: #1f77b4; stroke: #000000; stroke-width: 1.2; stroke-linejoin: miter"/>
   </g>
   <g id="patch_15">
    <path d="M 364.468 303.64 
L 404.0615 303.64 
L 404.0615 276.891852 
L 364.468 276.891852 
z
" clip-path="url(#p5d6173c705)" style="fill: #1f77b4; stroke: #000000; stroke-width: 1.2; stroke-linejoin: miter"/>
   </g>
   <g id="patch_16">
    <path d="M 404.0615 303.64 
L 443.655 303.64 
L 443.655 279.566667 
L 404.0615 279.566667 
z
" clip-path="url(#p5d6173c705)" style="fill: #1f77b4; stroke: #000000; stroke-width: 1.2; stroke-linejoin: miter"/>
   </g>
   <g id="line2d_21">
    <path d="M 79.007777 -1 
L 80.97854 17.052698 
L 82.958215 33.153109 
L 84.93789 47.540709 
L 86.917565 60.475017 
L 88.89724 72.165641 
L 91.27285 84.791515 
L 93.64846 96.111264 
L 96.02407 106.317596 
L 98.39968 115.567083 
L 100.77529 123.988259 
L 103.1509 131.687619 
L 105.922445 139.875828 
L 108.69399 147.319654 
L 111.465535 154.11619 
L 114.23708 160.346349 
L 117.008625 166.078095 
L 120.176105 172.09173 
L 123.343585 177.601606 
L 126.511065 182.668476 
L 129.678545 187.343704 
L 133.24196 192.189383 
L 136.805375 196.647407 
L 140.36879 200.762507 
L 144.32814 204.978798 
L 148.28749 208.863097 
L 152.24684 212.453131 
L 156.602125 216.100606 
L 160.95741 219.467506 
L 165.70863 222.857002 
L 170.45985 225.984086 
L 175.607005 229.109556 
L 181.150095 232.205776 
L 186.693185 235.055005 
L 192.63221 237.865865 
L 198.96717 240.620803 
L 205.698065 243.305831 
L 212.824895 245.910184 
L 220.34766 248.425933 
L 228.662295 250.963122 
L 237.372865 253.382519 
L 246.875305 255.78049 
L 256.77368 258.046566 
L 267.463925 260.264625 
L 278.94604 262.418539 
L 291.220025 264.496369 
L 304.681815 266.547036 
L 319.33141 268.547677 
L 335.16881 270.481139 
L 352.194015 272.335275 
L 370.80296 274.138366 
L 391.39158 275.905745 
L 413.959875 277.614775 
L 438.90378 279.274278 
L 443.655 279.566667 
L 443.655 279.566667 
" clip-path="url(#p5d6173c705)" style="fill: none; stroke: #ffd700; stroke-width: 2.8; stroke-linecap: square"/>
   </g>
  </g>
 </g>
 <defs>
  <clipPath id="p5d6173c705">
   <rect x="47.72" y="14.76" width="395.935" height="288.88"/>
  </clipPath>
 </defs>
</svg>
