<?xml version="1.0" encoding="utf-8" standalone="no"?>
<!DOCTYPE svg PUBLIC "-//W3C//DTD SVG 1.1//EN"
  "http://www.w3.org/Graphics/SVG/1.1/DTD/svg11.dtd">
<svg xmlns:xlink="http://www.w3.org/1999/xlink" width="460.8pt" height="345.6pt" viewBox="0 0 460.8 345.6" xmlns="http://www.w3.org/2000/svg" version="1.1">
 <metadata>
  <rdf:RDF xmlns:dc="http://purl.org/dc/elements/1.1/" xmlns:cc="http://creativecommons.org/ns#" xmlns:rdf="http://www.w3.org/1999/02/22-rdf-syntax-ns#">
   <cc:Work>
    <dc:type rdf:resource="http://purl.org/dc/dcmitype/StillImage"/>
    <dc:date>2026-02-24T22:30:33.232488</dc:date>
    <dc:format>image/svg+xml</dc:format>
    <dc:creator>
     <cc:Agent>
      <dc:title>Matplotlib v3.7.5, https://matplotlib.org/</dc:title>
     </cc:Agent>
    </dc:creator>
   </cc:Work>
  </rdf:RDF>
 </metadata>
 <defs>
  <style type="text/css">*{stroke-linejoin: round; stroke-linecap: butt}</style>
 </defs>
 <g id="figure_1">
  <g id="patch_1">
   <path d="M 0 345.6 
L 460.8 345.6 
L 460.8 0 
L 0 0 
z
" style="fill: #ffffff"/>
  </g>
  <g id="axes_1">
   <g id="patch_2">
    <path d="M 47.72 303.64 
L 443.655 303.64 
L 443.655 10.8 
L 47.72 10.8 
z
" style="fill: #ffffff"/>
   </g>
   <g id="PolyCollection_1">
    <path d="M 87.3135 303.64 
L 87.3135 48.996522 
L 87.670198 51.270124 
L 88.026896 53.503486 
L 88.383595 55.697666 
L 88.740293 57.853686 
L 89.096991 59.972534 
L 89.453689 62.055162 
L 89.810387 64.102491 
L 90.167086 66.115411 
L 90.523784 68.094783 
L 90.880482 70.041437 
L 91.23718 71.95618 
L 91.593878 73.839788 
L 91.950577 75.693015 
L 92.307275 77.516591 
L 92.663973 79.311222 
L 93.020671 81.07759 
L 93.377369 82.816359 
L 93.734068 84.52817 
L 94.090766 86.213645 
L 94.447464 87.873389 
L 94.804162 89.507984 
L 95.16086 91.117999 
L 95.517559 92.703984 
L 95.874257 94.266473 
L 96.230955 95.805985 
L 96.587653 97.323021 
L 96.944351 98.818072 
L 97.30105 100.291611 
L 97.657748 101.744099 
L 98.014446 103.175985 
L 98.371144 104.587704 
L 98.727842 105.979678 
L 99.084541 107.352319 
L 99.441239 108.706027 
L 99.797937 110.041191 
L 100.154635 111.35819 
L 100.511333 112.657391 
L 100.868032 113.939154 
L 101.22473 115.203826 
L 101.581428 116.451748 
L 101.938126 117.683249 
L 102.294824 118.898653 
L 102.651523 120.098272 
L 103.008221 121.282412 
L 103.364919 122.451371 
L 103.721617 123.605439 
L 104.078315 124.744898 
L 104.435014 125.870025 
L 104.791712 126.981087 
L 105.14841 128.078347 
L 105.505108 129.162061 
L 105.861806 130.232478 
L 106.218505 131.289841 
L 106.575203 132.334387 
L 106.931901 133.366349 
L 107.288599 134.385952 
L 107.645297 135.393416 
L 108.001995 136.388958 
L 108.358694 137.372788 
L 108.715392 138.345111 
L 109.07209 139.306127 
L 109.428788 140.256034 
L 109.785486 141.195022 
L 110.142185 142.12328 
L 110.498883 143.040988 
L 110.855581 143.948327 
L 111.212279 144.845471 
L 111.568977 145.732592 
L 111.925676 146.609855 
L 112.282374 147.477425 
L 112.639072 148.335461 
L 112.99577 149.18412 
L 113.352468 150.023554 
L 113.709167 150.853913 
L 114.065865 151.675344 
L 114.422563 152.487989 
L 114.779261 153.291989 
L 115.135959 154.087481 
L 115.492658 154.8746 
L 115.849356 155.653476 
L 116.206054 156.424239 
L 116.562752 157.187015 
L 116.91945 157.941927 
L 117.276149 158.689097 
L 117.632847 159.428642 
L 117.989545 160.16068 
L 118.346243 160.885323 
L 118.702941 161.602683 
L 119.05964 162.31287 
L 119.416338 163.01599 
L 119.773036 163.712148 
L 120.129734 164.401448 
L 120.486432 165.08399 
L 120.843131 165.759873 
L 121.199829 166.429194 
L 121.556527 167.092048 
L 121.913225 167.748528 
L 122.269923 168.398727 
L 122.626622 169.042733 
L 122.98332 169.680635 
L 123.340018 170.312518 
L 123.696716 170.938469 
L 124.053414 171.55857 
L 124.410113 172.172902 
L 124.766811 172.781546 
L 125.123509 173.38458 
L 125.480207 173.982082 
L 125.836905 174.574127 
L 126.193604 175.160791 
L 126.550302 175.742144 
L 126.907 176.318261 
L 127.263698 176.88921 
L 127.620396 177.455062 
L 127.977095 178.015884 
L 128.333793 178.571743 
L 128.690491 179.122704 
L 129.047189 179.668833 
L 129.403887 180.210192 
L 129.760586 180.746843 
L 130.117284 181.278848 
L 130.473982 181.806267 
L 130.83068 182.329158 
L 131.187378 182.847581 
L 131.544077 183.361591 
L 131.900775 183.871245 
L 132.257473 184.376599 
L 132.614171 184.877706 
L 132.970869 185.374619 
L 133.327568 185.867391 
L 133.684266 186.356074 
L 134.040964 186.840719 
L 134.397662 187.321374 
L 134.75436 187.79809 
L 135.111059 188.270914 
L 135.467757 188.739894 
L 135.824455 189.205077 
L 136.181153 189.666508 
L 136.537851 190.124233 
L 136.89455 190.578296 
L 137.251248 191.028741 
L 137.607946 191.475611 
L 137.964644 191.918948 
L 138.321342 192.358795 
L 138.678041 192.795192 
L 139.034739 193.228179 
L 139.391437 193.657797 
L 139.748135 194.084085 
L 140.104833 194.507081 
L 140.461532 194.926823 
L 140.81823 195.343348 
L 141.174928 195.756694 
L 141.531626 196.166897 
L 141.888324 196.573992 
L 142.245023 196.978015 
L 142.601721 197.379 
L 142.958419 197.776981 
L 143.315117 198.171992 
L 143.671815 198.564067 
L 144.028514 198.953237 
L 144.385212 199.339535 
L 144.74191 199.722992 
L 145.098608 200.103641 
L 145.455306 200.481511 
L 145.812005 200.856632 
L 146.168703 201.229036 
L 146.525401 201.598751 
L 146.882099 201.965805 
L 147.238797 202.330229 
L 147.595495 202.69205 
L 147.952194 203.051295 
L 148.308892 203.407993 
L 148.66559 203.762169 
L 149.022288 204.113852 
L 149.378986 204.463066 
L 149.735685 204.809839 
L 150.092383 205.154195 
L 150.449081 205.496159 
L 150.805779 205.835757 
L 151.162477 206.173013 
L 151.519176 206.507952 
L 151.875874 206.840596 
L 152.232572 207.170969 
L 152.58927 207.499095 
L 152.945968 207.824996 
L 153.302667 208.148696 
L 153.659365 208.470215 
L 154.016063 208.789577 
L 154.372761 209.106802 
L 154.729459 209.421913 
L 155.086158 209.73493 
L 155.442856 210.045874 
L 155.799554 210.354765 
L 156.156252 210.661625 
L 156.51295 210.966472 
L 156.869649 211.269327 
L 157.226347 211.570208 
L 157.583045 211.869136 
L 157.939743 212.166129 
L 158.296441 212.461206 
L 158.65314 212.754386 
L 159.009838 213.045686 
L 159.366536 213.335124 
L 159.723234 213.622719 
L 160.079932 213.908489 
L 160.436631 214.192449 
L 160.793329 214.474618 
L 161.150027 214.755012 
L 161.506725 215.033649 
L 161.863423 215.310543 
L 162.220122 215.585713 
L 162.57682 215.859174 
L 162.933518 216.130941 
L 163.290216 216.401031 
L 163.646914 216.669458 
L 164.003613 216.936239 
L 164.360311 217.201388 
L 164.717009 217.46492 
L 165.073707 217.726851 
L 165.430405 217.987194 
L 165.787104 218.245963 
L 166.143802 218.503174 
L 166.5005 218.758841 
L 166.857198 219.012976 
L 167.213896 219.265594 
L 167.570595 219.516708 
L 167.927293 219.766332 
L 168.283991 220.014479 
L 168.640689 220.261162 
L 168.997387 220.506394 
L 169.354086 220.750187 
L 169.710784 220.992555 
L 170.067482 221.23351 
L 170.42418 221.473064 
L 170.780878 221.711229 
L 171.137577 221.948017 
L 171.494275 222.183441 
L 171.850973 222.417511 
L 172.207671 222.65024 
L 172.564369 222.88164 
L 172.921068 223.111721 
L 173.277766 223.340494 
L 173.634464 223.567971 
L 173.991162 223.794164 
L 174.34786 224.019081 
L 174.704559 224.242736 
L 175.061257 224.465137 
L 175.417955 224.686296 
L 175.774653 224.906223 
L 176.131351 225.124928 
L 176.48805 225.342421 
L 176.844748 225.558712 
L 177.201446 225.773812 
L 177.558144 225.987731 
L 177.914842 226.200476 
L 178.271541 226.41206 
L 178.628239 226.62249 
L 178.984937 226.831777 
L 179.341635 227.039929 
L 179.698333 227.246957 
L 180.055032 227.452868 
L 180.41173 227.657672 
L 180.768428 227.861378 
L 181.125126 228.063994 
L 181.481824 228.26553 
L 181.838523 228.465994 
L 182.195221 228.665395 
L 182.551919 228.863741 
L 182.908617 229.061039 
L 183.265315 229.2573 
L 183.622014 229.45253 
L 183.978712 229.646738 
L 184.33541 229.839932 
L 184.692108 230.03212 
L 185.048806 230.223309 
L 185.405505 230.413508 
L 185.762203 230.602723 
L 186.118901 230.790964 
L 186.475599 230.978236 
L 186.832297 231.164548 
L 187.188995 231.349908 
L 187.545694 231.534321 
L 187.902392 231.717796 
L 188.25909 231.90034 
L 188.615788 232.081959 
L 188.972486 232.262661 
L 189.329185 232.442453 
L 189.685883 232.621341 
L 190.042581 232.799333 
L 190.399279 232.976435 
L 190.755977 233.152653 
L 191.112676 233.327995 
L 191.469374 233.502466 
L 191.826072 233.676074 
L 192.18277 233.848824 
L 192.539468 234.020724 
L 192.896167 234.191779 
L 193.252865 234.361995 
L 193.609563 234.531379 
L 193.966261 234.699936 
L 194.322959 234.867674 
L 194.679658 235.034597 
L 195.036356 235.200712 
L 195.393054 235.366024 
L 195.749752 235.53054 
L 196.10645 235.694264 
L 196.463149 235.857204 
L 196.819847 236.019363 
L 197.176545 236.180749 
L 197.533243 236.341366 
L 197.889941 236.501221 
L 198.24664 236.660317 
L 198.603338 236.818662 
L 198.960036 236.976259 
L 199.316734 237.133115 
L 199.673432 237.289235 
L 200.030131 237.444623 
L 200.386829 237.599285 
L 200.743527 237.753226 
L 201.100225 237.906451 
L 201.456923 238.058965 
L 201.813622 238.210773 
L 202.17032 238.36188 
L 202.527018 238.51229 
L 202.883716 238.662009 
L 203.240414 238.811041 
L 203.597113 238.959391 
L 203.953811 239.107064 
L 204.310509 239.254064 
L 204.667207 239.400395 
L 205.023905 239.546063 
L 205.380604 239.691072 
L 205.737302 239.835426 
L 206.094 239.97913 
L 206.450698 240.122189 
L 206.807396 240.264605 
L 207.164095 240.406385 
L 207.520793 240.547531 
L 207.877491 240.688049 
L 208.234189 240.827942 
L 208.590887 240.967215 
L 208.947586 241.105871 
L 209.304284 241.243916 
L 209.660982 241.381352 
L 210.01768 241.518184 
L 210.374378 241.654416 
L 210.731077 241.790052 
L 211.087775 241.925096 
L 211.444473 242.059551 
L 211.801171 242.193422 
L 212.157869 242.326711 
L 212.514568 242.459424 
L 212.871266 242.591564 
L 213.227964 242.723133 
L 213.584662 242.854137 
L 213.94136 242.984579 
L 214.298059 243.114462 
L 214.654757 243.24379 
L 215.011455 243.372567 
L 215.368153 243.500796 
L 215.724851 243.62848 
L 216.08155 243.755623 
L 216.438248 243.882228 
L 216.794946 244.008299 
L 217.151644 244.13384 
L 217.508342 244.258853 
L 217.865041 244.383342 
L 218.221739 244.507309 
L 218.578437 244.63076 
L 218.935135 244.753696 
L 219.291833 244.87612 
L 219.648532 244.998037 
L 220.00523 245.119449 
L 220.361928 245.240359 
L 220.718626 245.360771 
L 221.075324 245.480687 
L 221.432023 245.600111 
L 221.788721 245.719045 
L 222.145419 245.837493 
L 222.502117 245.955457 
L 222.858815 246.072941 
L 223.215514 246.189947 
L 223.572212 246.306479 
L 223.92891 246.422538 
L 224.285608 246.538129 
L 224.642306 246.653254 
L 224.999005 246.767915 
L 225.355703 246.882116 
L 225.712401 246.99586 
L 226.069099 247.109148 
L 226.425797 247.221984 
L 226.782495 247.33437 
L 227.139194 247.44631 
L 227.495892 247.557805 
L 227.85259 247.668859 
L 228.209288 247.779474 
L 228.565986 247.889653 
L 228.922685 247.999397 
L 229.279383 248.108711 
L 229.636081 248.217596 
L 229.992779 248.326055 
L 230.349477 248.43409 
L 230.706176 248.541704 
L 231.062874 248.648899 
L 231.419572 248.755678 
L 231.77627 248.862042 
L 232.132968 248.967996 
L 232.489667 249.07354 
L 232.846365 249.178678 
L 233.203063 249.283411 
L 233.559761 249.387743 
L 233.916459 249.491674 
L 234.273158 249.595208 
L 234.629856 249.698347 
L 234.986554 249.801093 
L 235.343252 249.903449 
L 235.69995 250.005415 
L 236.056649 250.106996 
L 236.413347 250.208193 
L 236.770045 250.309007 
L 237.126743 250.409442 
L 237.483441 250.5095 
L 237.84014 250.609182 
L 238.196838 250.70849 
L 238.553536 250.807428 
L 238.910234 250.905996 
L 239.266932 251.004197 
L 239.623631 251.102033 
L 239.980329 251.199506 
L 240.337027 251.296618 
L 240.693725 251.393371 
L 241.050423 251.489767 
L 241.407122 251.585808 
L 241.76382 251.681496 
L 242.120518 251.776833 
L 242.477216 251.87182 
L 242.833914 251.966461 
L 243.190613 252.060755 
L 243.547311 252.154707 
L 243.904009 252.248316 
L 244.260707 252.341586 
L 244.617405 252.434518 
L 244.974104 252.527114 
L 245.330802 252.619375 
L 245.6875 252.711304 
L 246.044198 252.802903 
L 246.400896 252.894172 
L 246.757595 252.985115 
L 247.114293 253.075732 
L 247.470991 253.166025 
L 247.827689 253.255996 
L 248.184387 253.345648 
L 248.541086 253.43498 
L 248.897784 253.523996 
L 249.254482 253.612697 
L 249.61118 253.701085 
L 249.967878 253.78916 
L 250.324577 253.876926 
L 250.681275 253.964383 
L 251.037973 254.051533 
L 251.394671 254.138378 
L 251.751369 254.224919 
L 252.108068 254.311159 
L 252.464766 254.397097 
L 252.821464 254.482737 
L 253.178162 254.56808 
L 253.53486 254.653126 
L 253.891559 254.737879 
L 254.248257 254.822338 
L 254.604955 254.906507 
L 254.961653 254.990385 
L 255.318351 255.073976 
L 255.67505 255.157279 
L 256.031748 255.240298 
L 256.388446 255.323032 
L 256.745144 255.405484 
L 257.101842 255.487656 
L 257.458541 255.569547 
L 257.815239 255.651161 
L 258.171937 255.732498 
L 258.528635 255.81356 
L 258.885333 255.894348 
L 259.242032 255.974863 
L 259.59873 256.055108 
L 259.955428 256.135082 
L 260.312126 256.214788 
L 260.668824 256.294228 
L 261.025523 256.373401 
L 261.382221 256.45231 
L 261.738919 256.530957 
L 262.095617 256.609341 
L 262.452315 256.687465 
L 262.809014 256.76533 
L 263.165712 256.842937 
L 263.52241 256.920287 
L 263.879108 256.997383 
L 264.235806 257.074224 
L 264.592505 257.150812 
L 264.949203 257.227149 
L 265.305901 257.303236 
L 265.662599 257.379074 
L 266.019297 257.454663 
L 266.375995 257.530006 
L 266.732694 257.605104 
L 267.089392 257.679958 
L 267.44609 257.754568 
L 267.802788 257.828937 
L 268.159486 257.903065 
L 268.516185 257.976953 
L 268.872883 258.050603 
L 269.229581 258.124016 
L 269.586279 258.197193 
L 269.942977 258.270135 
L 270.299676 258.342843 
L 270.656374 258.415318 
L 271.013072 258.487562 
L 271.36977 258.559576 
L 271.726468 258.63136 
L 272.083167 258.702916 
L 272.439865 258.774244 
L 272.796563 258.845347 
L 273.153261 258.916225 
L 273.509959 258.986878 
L 273.866658 259.057309 
L 274.223356 259.127518 
L 274.580054 259.197506 
L 274.936752 259.267275 
L 275.29345 259.336824 
L 275.650149 259.406156 
L 276.006847 259.475272 
L 276.363545 259.544171 
L 276.720243 259.612857 
L 277.076941 259.681328 
L 277.43364 259.749587 
L 277.790338 259.817634 
L 278.147036 259.88547 
L 278.503734 259.953097 
L 278.860432 260.020515 
L 279.217131 260.087726 
L 279.573829 260.154729 
L 279.930527 260.221527 
L 280.287225 260.288119 
L 280.643923 260.354508 
L 281.000622 260.420694 
L 281.35732 260.486678 
L 281.714018 260.55246 
L 282.070716 260.618042 
L 282.427414 260.683425 
L 282.784113 260.74861 
L 283.140811 260.813597 
L 283.497509 260.878387 
L 283.854207 260.942982 
L 284.210905 261.007381 
L 284.567604 261.071587 
L 284.924302 261.1356 
L 285.281 261.19942 
L 285.637698 261.263049 
L 285.994396 261.326488 
L 286.351095 261.389737 
L 286.707793 261.452797 
L 287.064491 261.515669 
L 287.421189 261.578354 
L 287.777887 261.640853 
L 288.134586 261.703166 
L 288.491284 261.765295 
L 288.847982 261.82724 
L 289.20468 261.889001 
L 289.561378 261.950581 
L 289.918077 262.011979 
L 290.274775 262.073197 
L 290.631473 262.134235 
L 290.988171 262.195094 
L 291.344869 262.255774 
L 291.701568 262.316278 
L 292.058266 262.376604 
L 292.414964 262.436755 
L 292.771662 262.496731 
L 293.12836 262.556532 
L 293.485059 262.61616 
L 293.841757 262.675614 
L 294.198455 262.734897 
L 294.555153 262.794009 
L 294.911851 262.852949 
L 295.26855 262.91172 
L 295.625248 262.970322 
L 295.981946 263.028756 
L 296.338644 263.087021 
L 296.695342 263.14512 
L 297.052041 263.203053 
L 297.408739 263.26082 
L 297.765437 263.318422 
L 298.122135 263.37586 
L 298.478833 263.433135 
L 298.835532 263.490247 
L 299.19223 263.547197 
L 299.548928 263.603986 
L 299.905626 263.660614 
L 300.262324 263.717082 
L 300.619023 263.773391 
L 300.975721 263.829541 
L 301.332419 263.885533 
L 301.689117 263.941368 
L 302.045815 263.997046 
L 302.402514 264.052569 
L 302.759212 264.107936 
L 303.11591 264.163148 
L 303.472608 264.218206 
L 303.829306 264.273111 
L 304.186005 264.327864 
L 304.542703 264.382464 
L 304.899401 264.436913 
L 305.256099 264.49121 
L 305.612797 264.545358 
L 305.969495 264.599356 
L 306.326194 264.653205 
L 306.682892 264.706906 
L 307.03959 264.760459 
L 307.396288 264.813865 
L 307.752986 264.867125 
L 308.109685 264.920238 
L 308.466383 264.973206 
L 308.823081 265.02603 
L 309.179779 265.078709 
L 309.536477 265.131245 
L 309.893176 265.183638 
L 310.249874 265.235888 
L 310.606572 265.287997 
L 310.96327 265.339965 
L 311.319968 265.391791 
L 311.676667 265.443478 
L 312.033365 265.495026 
L 312.390063 265.546434 
L 312.746761 265.597704 
L 313.103459 265.648836 
L 313.460158 265.699831 
L 313.816856 265.750689 
L 314.173554 265.801411 
L 314.530252 265.851997 
L 314.88695 265.902448 
L 315.243649 265.952765 
L 315.600347 266.002948 
L 315.957045 266.052997 
L 316.313743 266.102914 
L 316.670441 266.152697 
L 317.02714 266.20235 
L 317.383838 266.25187 
L 317.740536 266.30126 
L 318.097234 266.35052 
L 318.453932 266.399649 
L 318.810631 266.44865 
L 319.167329 266.497522 
L 319.524027 266.546265 
L 319.880725 266.594881 
L 320.237423 266.643369 
L 320.594122 266.691731 
L 320.95082 266.739966 
L 321.307518 266.788076 
L 321.664216 266.83606 
L 322.020914 266.883919 
L 322.377613 266.931654 
L 322.734311 266.979266 
L 323.091009 267.026754 
L 323.447707 267.074119 
L 323.804405 267.121362 
L 324.161104 267.168482 
L 324.517802 267.215482 
L 324.8745 267.26236 
L 325.231198 267.309118 
L 325.587896 267.355756 
L 325.944595 267.402274 
L 326.301293 267.448673 
L 326.657991 267.494954 
L 327.014689 267.541116 
L 327.371387 267.587161 
L 327.728086 267.633088 
L 328.084784 267.678898 
L 328.441482 267.724592 
L 328.79818 267.77017 
L 329.154878 267.815632 
L 329.511577 267.86098 
L 329.868275 267.906212 
L 330.224973 267.951331 
L 330.581671 267.996335 
L 330.938369 268.041227 
L 331.295068 268.086005 
L 331.651766 268.130671 
L 332.008464 268.175224 
L 332.365162 268.219667 
L 332.72186 268.263997 
L 333.078559 268.308217 
L 333.435257 268.352327 
L 333.791955 268.396327 
L 334.148653 268.440217 
L 334.505351 268.483997 
L 334.86205 268.527669 
L 335.218748 268.571233 
L 335.575446 268.614689 
L 335.932144 268.658037 
L 336.288842 268.701278 
L 336.645541 268.744412 
L 337.002239 268.78744 
L 337.358937 268.830362 
L 337.715635 268.873178 
L 338.072333 268.915889 
L 338.429032 268.958496 
L 338.78573 269.000997 
L 339.142428 269.043395 
L 339.499126 269.085689 
L 339.855824 269.12788 
L 340.212523 269.169968 
L 340.569221 269.211954 
L 340.925919 269.253837 
L 341.282617 269.295618 
L 341.639315 269.337298 
L 341.996014 269.378877 
L 342.352712 269.420356 
L 342.70941 269.461734 
L 343.066108 269.503012 
L 343.422806 269.54419 
L 343.779505 269.58527 
L 344.136203 269.62625 
L 344.492901 269.667132 
L 344.849599 269.707916 
L 345.206297 269.748602 
L 345.562995 269.78919 
L 345.919694 269.829682 
L 346.276392 269.870076 
L 346.63309 269.910375 
L 346.989788 269.950577 
L 347.346486 269.990683 
L 347.703185 270.030694 
L 348.059883 270.07061 
L 348.416581 270.110432 
L 348.773279 270.150159 
L 349.129977 270.189792 
L 349.486676 270.229331 
L 349.843374 270.268777 
L 350.200072 270.30813 
L 350.55677 270.34739 
L 350.913468 270.386558 
L 351.270167 270.425633 
L 351.626865 270.464617 
L 351.983563 270.50351 
L 352.340261 270.542311 
L 352.696959 270.581022 
L 353.053658 270.619642 
L 353.410356 270.658173 
L 353.767054 270.696613 
L 354.123752 270.734964 
L 354.48045 270.773225 
L 354.837149 270.811398 
L 355.193847 270.849482 
L 355.550545 270.887478 
L 355.907243 270.925386 
L 356.263941 270.963207 
L 356.62064 271.00094 
L 356.977338 271.038586 
L 357.334036 271.076145 
L 357.690734 271.113618 
L 358.047432 271.151004 
L 358.404131 271.188305 
L 358.760829 271.225521 
L 359.117527 271.262651 
L 359.474225 271.299696 
L 359.830923 271.336656 
L 360.187622 271.373532 
L 360.54432 271.410324 
L 360.901018 271.447032 
L 361.257716 271.483656 
L 361.614414 271.520198 
L 361.971113 271.556656 
L 362.327811 271.593032 
L 362.684509 271.629325 
L 363.041207 271.665536 
L 363.397905 271.701665 
L 363.754604 271.737713 
L 364.111302 271.77368 
L 364.468 271.809565 
L 364.824698 271.84537 
L 365.181396 271.881094 
L 365.538095 271.916738 
L 365.894793 271.952303 
L 366.251491 271.987787 
L 366.608189 272.023192 
L 366.964887 272.058518 
L 367.321586 272.093766 
L 367.678284 272.128934 
L 368.034982 272.164024 
L 368.39168 272.199037 
L 368.748378 272.233971 
L 369.105077 272.268828 
L 369.461775 272.303607 
L 369.818473 272.33831 
L 370.175171 272.372936 
L 370.531869 272.407485 
L 370.888568 272.441958 
L 371.245266 272.476355 
L 371.601964 272.510676 
L 371.958662 272.544922 
L 372.31536 272.579092 
L 372.672059 272.613188 
L 373.028757 272.647208 
L 373.385455 272.681154 
L 373.742153 272.715026 
L 374.098851 272.748824 
L 374.45555 272.782548 
L 374.812248 272.816198 
L 375.168946 272.849776 
L 375.525644 272.88328 
L 375.882342 272.916711 
L 376.239041 272.950069 
L 376.595739 272.983356 
L 376.952437 273.01657 
L 377.309135 273.049712 
L 377.665833 273.082783 
L 378.022532 273.115782 
L 378.37923 273.14871 
L 378.735928 273.181567 
L 379.092626 273.214353 
L 379.449324 273.247069 
L 379.806023 273.279714 
L 380.162721 273.31229 
L 380.519419 273.344795 
L 380.876117 273.377231 
L 381.232815 273.409598 
L 381.589514 273.441895 
L 381.946212 273.474124 
L 382.30291 273.506283 
L 382.659608 273.538375 
L 383.016306 273.570398 
L 383.373005 273.602353 
L 383.729703 273.63424 
L 384.086401 273.666059 
L 384.443099 273.697811 
L 384.799797 273.729496 
L 385.156495 273.761114 
L 385.513194 273.792665 
L 385.869892 273.82415 
L 386.22659 273.855568 
L 386.583288 273.88692 
L 386.939986 273.918206 
L 387.296685 273.949426 
L 387.653383 273.980581 
L 388.010081 274.011671 
L 388.366779 274.042695 
L 388.723477 274.073655 
L 389.080176 274.10455 
L 389.436874 274.13538 
L 389.793572 274.166146 
L 390.15027 274.196848 
L 390.506968 274.227486 
L 390.863667 274.25806 
L 391.220365 274.288571 
L 391.577063 274.319019 
L 391.933761 274.349403 
L 392.290459 274.379725 
L 392.647158 274.409983 
L 393.003856 274.44018 
L 393.360554 274.470314 
L 393.717252 274.500385 
L 394.07395 274.530395 
L 394.430649 274.560344 
L 394.787347 274.59023 
L 395.144045 274.620055 
L 395.500743 274.649819 
L 395.857441 274.679522 
L 396.21414 274.709165 
L 396.570838 274.738746 
L 396.927536 274.768268 
L 397.284234 274.797728 
L 397.640932 274.827129 
L 397.997631 274.85647 
L 398.354329 274.885752 
L 398.711027 274.914973 
L 399.067725 274.944136 
L 399.424423 274.973239 
L 399.781122 275.002284 
L 400.13782 275.031269 
L 400.494518 275.060196 
L 400.851216 275.089065 
L 401.207914 275.117875 
L 401.564613 275.146627 
L 401.921311 275.175321 
L 402.278009 275.203958 
L 402.634707 275.232537 
L 402.991405 275.261058 
L 403.348104 275.289522 
L 403.704802 275.31793 
L 404.0615 275.34628 
L 404.418198 275.374574 
L 404.774896 275.402811 
L 405.131595 275.430992 
L 405.488293 275.459117 
L 405.844991 275.487185 
L 406.201689 275.515198 
L 406.558387 275.543155 
L 406.915086 275.571057 
L 407.271784 275.598903 
L 407.628482 275.626694 
L 407.98518 275.65443 
L 408.341878 275.682111 
L 408.698577 275.709737 
L 409.055275 275.737309 
L 409.411973 275.764826 
L 409.768671 275.79229 
L 410.125369 275.819699 
L 410.482068 275.847054 
L 410.838766 275.874356 
L 411.195464 275.901603 
L 411.552162 275.928798 
L 411.90886 275.955939 
L 412.265559 275.983027 
L 412.622257 276.010062 
L 412.978955 276.037045 
L 413.335653 276.063975 
L 413.692351 276.090852 
L 414.04905 276.117677 
L 414.405748 276.144449 
L 414.762446 276.17117 
L 415.119144 276.197839 
L 415.475842 276.224456 
L 415.832541 276.251021 
L 416.189239 276.277535 
L 416.545937 276.303998 
L 416.902635 276.33041 
L 417.259333 276.35677 
L 417.616032 276.38308 
L 417.97273 276.409339 
L 418.329428 276.435548 
L 418.686126 276.461706 
L 419.042824 276.487814 
L 419.399523 276.513871 
L 419.756221 276.539879 
L 420.112919 276.565837 
L 420.469617 276.591745 
L 420.826315 276.617604 
L 421.183014 276.643413 
L 421.539712 276.669174 
L 421.89641 276.694885 
L 422.253108 276.720547 
L 422.609806 276.74616 
L 422.966505 276.771724 
L 423.323203 276.79724 
L 423.679901 276.822708 
L 424.036599 276.848127 
L 424.393297 276.873498 
L 424.749995 276.898821 
L 425.106694 276.924096 
L 425.463392 276.949324 
L 425.82009 276.974504 
L 426.176788 276.999636 
L 426.533486 277.024721 
L 426.890185 277.049759 
L 427.246883 277.07475 
L 427.603581 277.099694 
L 427.960279 277.124591 
L 428.316977 277.149441 
L 428.673676 277.174245 
L 429.030374 277.199003 
L 429.387072 277.223714 
L 429.74377 277.248379 
L 430.100468 277.272998 
L 430.457167 277.297571 
L 430.813865 277.322099 
L 431.170563 277.34658 
L 431.527261 277.371017 
L 431.883959 277.395408 
L 432.240658 277.419753 
L 432.597356 277.444054 
L 432.954054 277.468309 
L 433.310752 277.49252 
L 433.66745 277.516686 
L 434.024149 277.540807 
L 434.380847 277.564884 
L 434.737545 277.588916 
L 435.094243 277.612904 
L 435.450941 277.636848 
L 435.80764 277.660748 
L 436.164338 277.684604 
L 436.521036 277.708416 
L 436.877734 277.732185 
L 437.234432 277.75591 
L 437.591131 277.779592 
L 437.947829 277.80323 
L 438.304527 277.826825 
L 438.661225 277.850378 
L 439.017923 277.873887 
L 439.374622 277.897353 
L 439.73132 277.920777 
L 440.088018 277.944158 
L 440.444716 277.967497 
L 440.801414 277.990793 
L 441.158113 278.014047 
L 441.514811 278.037259 
L 441.871509 278.060429 
L 442.228207 278.083557 
L 442.584905 278.106643 
L 442.941604 278.129688 
L 443.298302 278.152691 
L 443.655 278.175652 
L 443.655 303.64 
L 443.655 303.64 
L 443.298302 303.64 
L 442.941604 303.64 
L 442.584905 303.64 
L 442.228207 303.64 
L 441.871509 303.64 
L 441.514811 303.64 
L 441.158113 303.64 
L 440.801414 303.64 
L 440.444716 303.64 
L 440.088018 303.64 
L 439.73132 303.64 
L 439.374622 303.64 
L 439.017923 303.64 
L 438.661225 303.64 
L 438.304527 303.64 
L 437.947829 303.64 
L 437.591131 303.64 
L 437.234432 303.64 
L 436.877734 303.64 
L 436.521036 303.64 
L 436.164338 303.64 
L 435.80764 303.64 
L 435.450941 303.64 
L 435.094243 303.64 
L 434.737545 303.64 
L 434.380847 303.64 
L 434.024149 303.64 
L 433.66745 303.64 
L 433.310752 303.64 
L 432.954054 303.64 
L 432.597356 303.64 
L 432.240658 303.64 
L 431.883959 303.64 
L 431.527261 303.64 
L 431.170563 303.64 
L 430.813865 303.64 
L 430.457167 303.64 
L 430.100468 303.64 
L 429.74377 303.64 
L 429.387072 303.64 
L 429.030374 303.64 
L 428.673676 303.64 
L 428.316977 303.64 
L 427.960279 303.64 
L 427.603581 303.64 
L 427.246883 303.64 
L 426.890185 303.64 
L 426.533486 303.64 
L 426.176788 303.64 
L 425.82009 303.64 
L 425.463392 303.64 
L 425.106694 303.64 
L 424.749995 303.64 
L 424.393297 303.64 
L 424.036599 303.64 
L 423.679901 303.64 
L 423.323203 303.64 
L 422.966505 303.64 
L 422.609806 303.64 
L 422.253108 303.64 
L 421.89641 303.64 
L 421.539712 303.64 
L 421.183014 303.64 
L 420.826315 303.64 
L 420.469617 303.64 
L 420.112919 303.64 
L 419.756221 303.64 
L 419.399523 303.64 
L 419.042824 303.64 
L 418.686126 303.64 
L 418.329428 303.64 
L 417.97273 303.64 
L 417.616032 303.64 
L 417.259333 303.64 
L 416.902635 303.64 
L 416.545937 303.64 
L 416.189239 303.64 
L 415.832541 303.64 
L 415.475842 303.64 
L 415.119144 303.64 
L 414.762446 303.64 
L 414.405748 303.64 
L 414.04905 303.64 
L 413.692351 303.64 
L 413.335653 303.64 
L 412.978955 303.64 
L 412.622257 303.64 
L 412.265559 303.64 
L 411.90886 303.64 
L 411.552162 303.64 
L 411.195464 303.64 
L 410.838766 303.64 
L 410.482068 303.64 
L 410.125369 303.64 
L 409.768671 303.64 
L 409.411973 303.64 
L 409.055275 303.64 
L 408.698577 303.64 
L 408.341878 303.64 
L 407.98518 303.64 
L 407.628482 303.64 
L 407.271784 303.64 
L 406.915086 303.64 
L 406.558387 303.64 
L 406.201689 303.64 
L 405.844991 303.64 
L 405.488293 303.64 
L 405.131595 303.64 
L 404.774896 303.64 
L 404.418198 303.64 
L 404.0615 303.64 
L 403.704802 303.64 
L 403.348104 303.64 
L 402.991405 303.64 
L 402.634707 303.64 
L 402.278009 303.64 
L 401.921311 303.64 
L 401.564613 303.64 
L 401.207914 303.64 
L 400.851216 303.64 
L 400.494518 303.64 
L 400.13782 303.64 
L 399.781122 303.64 
L 399.424423 303.64 
L 399.067725 303.64 
L 398.711027 303.64 
L 398.354329 303.64 
L 397.997631 303.64 
L 397.640932 303.64 
L 397.284234 303.64 
L 396.927536 303.64 
L 396.570838 303.64 
L 396.21414 303.64 
L 395.857441 303.64 
L 395.500743 303.64 
L 395.144045 303.64 
L 394.787347 303.64 
L 394.430649 303.64 
L 394.07395 303.64 
L 393.717252 303.64 
L 393.360554 303.64 
L 393.003856 303.64 
L 392.647158 303.64 
L 392.290459 303.64 
L 391.933761 303.64 
L 391.577063 303.64 
L 391.220365 303.64 
L 390.863667 303.64 
L 390.506968 303.64 
L 390.15027 303.64 
L 389.793572 303.64 
L 389.436874 303.64 
L 389.080176 303.64 
L 388.723477 303.64 
L 388.366779 303.64 
L 388.010081 303.64 
L 387.653383 303.64 
L 387.296685 303.64 
L 386.939986 303.64 
L 386.583288 303.64 
L 386.22659 303.64 
L 385.869892 303.64 
L 385.513194 303.64 
L 385.156495 303.64 
L 384.799797 303.64 
L 384.443099 303.64 
L 384.086401 303.64 
L 383.729703 303.64 
L 383.373005 303.64 
L 383.016306 303.64 
L 382.659608 303.64 
L 382.30291 303.64 
L 381.946212 303.64 
L 381.589514 303.64 
L 381.232815 303.64 
L 380.876117 303.64 
L 380.519419 303.64 
L 380.162721 303.64 
L 379.806023 303.64 
L 379.449324 303.64 
L 379.092626 303.64 
L 378.735928 303.64 
L 378.37923 303.64 
L 378.022532 303.64 
L 377.665833 303.64 
L 377.309135 303.64 
L 376.952437 303.64 
L 376.595739 303.64 
L 376.239041 303.64 
L 375.882342 303.64 
L 375.525644 303.64 
L 375.168946 303.64 
L 374.812248 303.64 
L 374.45555 303.64 
L 374.098851 303.64 
L 373.742153 303.64 
L 373.385455 303.64 
L 373.028757 303.64 
L 372.672059 303.64 
L 372.31536 303.64 
L 371.958662 303.64 
L 371.601964 303.64 
L 371.245266 303.64 
L 370.888568 303.64 
L 370.531869 303.64 
L 370.175171 303.64 
L 369.818473 303.64 
L 369.461775 303.64 
L 369.105077 303.64 
L 368.748378 303.64 
L 368.39168 303.64 
L 368.034982 303.64 
L 367.678284 303.64 
L 367.321586 303.64 
L 366.964887 303.64 
L 366.608189 303.64 
L 366.251491 303.64 
L 365.894793 303.64 
L 365.538095 303.64 
L 365.181396 303.64 
L 364.824698 303.64 
L 364.468 303.64 
L 364.111302 303.64 
L 363.754604 303.64 
L 363.397905 303.64 
L 363.041207 303.64 
L 362.684509 303.64 
L 362.327811 303.64 
L 361.971113 303.64 
L 361.614414 303.64 
L 361.257716 303.64 
L 360.901018 303.64 
L 360.54432 303.64 
L 360.187622 303.64 
L 359.830923 303.64 
L 359.474225 303.64 
L 359.117527 303.64 
L 358.760829 303.64 
L 358.404131 303.64 
L 358.047432 303.64 
L 357.690734 303.64 
L 357.334036 303.64 
L 356.977338 303.64 
L 356.62064 303.64 
L 356.263941 303.64 
L 355.907243 303.64 
L 355.550545 303.64 
L 355.193847 303.64 
L 354.837149 303.64 
L 354.48045 303.64 
L 354.123752 303.64 
L 353.767054 303.64 
L 353.410356 303.64 
L 353.053658 303.64 
L 352.696959 303.64 
L 352.340261 303.64 
L 351.983563 303.64 
L 351.626865 303.64 
L 351.270167 303.64 
L 350.913468 303.64 
L 350.55677 303.64 
L 350.200072 303.64 
L 349.843374 303.64 
L 349.486676 303.64 
L 349.129977 303.64 
L 348.773279 303.64 
L 348.416581 303.64 
L 348.059883 303.64 
L 347.703185 303.64 
L 347.346486 303.64 
L 346.989788 303.64 
L 346.63309 303.64 
L 346.276392 303.64 
L 345.919694 303.64 
L 345.562995 303.64 
L 345.206297 303.64 
L 344.849599 303.64 
L 344.492901 303.64 
L 344.136203 303.64 
L 343.779505 303.64 
L 343.422806 303.64 
L 343.066108 303.64 
L 342.70941 303.64 
L 342.352712 303.64 
L 341.996014 303.64 
L 341.639315 303.64 
L 341.282617 303.64 
L 340.925919 303.64 
L 340.569221 303.64 
L 340.212523 303.64 
L 339.855824 303.64 
L 339.499126 303.64 
L 339.142428 303.64 
L 338.78573 303.64 
L 338.429032 303.64 
L 338.072333 303.64 
L 337.715635 303.64 
L 337.358937 303.64 
L 337.002239 303.64 
L 336.645541 303.64 
L 336.288842 303.64 
L 335.932144 303.64 
L 335.575446 303.64 
L 335.218748 303.64 
L 334.86205 303.64 
L 334.505351 303.64 
L 334.148653 303.64 
L 333.791955 303.64 
L 333.435257 303.64 
L 333.078559 303.64 
L 332.72186 303.64 
L 332.365162 303.64 
L 332.008464 303.64 
L 331.651766 303.64 
L 331.295068 303.64 
L 330.938369 303.64 
L 330.581671 303.64 
L 330.224973 303.64 
L 329.868275 303.64 
L 329.511577 303.64 
L 329.154878 303.64 
L 328.79818 303.64 
L 328.441482 303.64 
L 328.084784 303.64 
L 327.728086 303.64 
L 327.371387 303.64 
L 327.014689 303.64 
L 326.657991 303.64 
L 326.301293 303.64 
L 325.944595 303.64 
L 325.587896 303.64 
L 325.231198 303.64 
L 324.8745 303.64 
L 324.517802 303.64 
L 324.161104 303.64 
L 323.804405 303.64 
L 323.447707 303.64 
L 323.091009 303.64 
L 322.734311 303.64 
L 322.377613 303.64 
L 322.020914 303.64 
L 321.664216 303.64 
L 321.307518 303.64 
L 320.95082 303.64 
L 320.594122 303.64 
L 320.237423 303.64 
L 319.880725 303.64 
L 319.524027 303.64 
L 319.167329 303.64 
L 318.810631 303.64 
L 318.453932 303.64 
L 318.097234 303.64 
L 317.740536 303.64 
L 317.383838 303.64 
L 317.02714 303.64 
L 316.670441 303.64 
L 316.313743 303.64 
L 315.957045 303.64 
L 315.600347 303.64 
L 315.243649 303.64 
L 314.88695 303.64 
L 314.530252 303.64 
L 314.173554 303.64 
L 313.816856 303.64 
L 313.460158 303.64 
L 313.103459 303.64 
L 312.746761 303.64 
L 312.390063 303.64 
L 312.033365 303.64 
L 311.676667 303.64 
L 311.319968 303.64 
L 310.96327 303.64 
L 310.606572 303.64 
L 310.249874 303.64 
L 309.893176 303.64 
L 309.536477 303.64 
L 309.179779 303.64 
L 308.823081 303.64 
L 308.466383 303.64 
L 308.109685 303.64 
L 307.752986 303.64 
L 307.396288 303.64 
L 307.03959 303.64 
L 306.682892 303.64 
L 306.326194 303.64 
L 305.969495 303.64 
L 305.612797 303.64 
L 305.256099 303.64 
L 304.899401 303.64 
L 304.542703 303.64 
L 304.186005 303.64 
L 303.829306 303.64 
L 303.472608 303.64 
L 303.11591 303.64 
L 302.759212 303.64 
L 302.402514 303.64 
L 302.045815 303.64 
L 301.689117 303.64 
L 301.332419 303.64 
L 300.975721 303.64 
L 300.619023 303.64 
L 300.262324 303.64 
L 299.905626 303.64 
L 299.548928 303.64 
L 299.19223 303.64 
L 298.835532 303.64 
L 298.478833 303.64 
L 298.122135 303.64 
L 297.765437 303.64 
L 297.408739 303.64 
L 297.052041 303.64 
L 296.695342 303.64 
L 296.338644 303.64 
L 295.981946 303.64 
L 295.625248 303.64 
L 295.26855 303.64 
L 294.911851 303.64 
L 294.555153 303.64 
L 294.198455 303.64 
L 293.841757 303.64 
L 293.485059 303.64 
L 293.12836 303.64 
L 292.771662 303.64 
L 292.414964 303.64 
L 292.058266 303.64 
L 291.701568 303.64 
L 291.344869 303.64 
L 290.988171 303.64 
L 290.631473 303.64 
L 290.274775 303.64 
L 289.918077 303.64 
L 289.561378 303.64 
L 289.20468 303.64 
L 288.847982 303.64 
L 288.491284 303.64 
L 288.134586 303.64 
L 287.777887 303.64 
L 287.421189 303.64 
L 287.064491 303.64 
L 286.707793 303.64 
L 286.351095 303.64 
L 285.994396 303.64 
L 285.637698 303.64 
L 285.281 303.64 
L 284.924302 303.64 
L 284.567604 303.64 
L 284.210905 303.64 
L 283.854207 303.64 
L 283.497509 303.64 
L 283.140811 303.64 
L 282.784113 303.64 
L 282.427414 303.64 
L 282.070716 303.64 
L 281.714018 303.64 
L 281.35732 303.64 
L 281.000622 303.64 
L 280.643923 303.64 
L 280.287225 303.64 
L 279.930527 303.64 
L 279.573829 303.64 
L 279.217131 303.64 
L 278.860432 303.64 
L 278.503734 303.64 
L 278.147036 303.64 
L 277.790338 303.64 
L 277.43364 303.64 
L 277.076941 303.64 
L 276.720243 303.64 
L 276.363545 303.64 
L 276.006847 303.64 
L 275.650149 303.64 
L 275.29345 303.64 
L 274.936752 303.64 
L 274.580054 303.64 
L 274.223356 303.64 
L 273.866658 303.64 
L 273.509959 303.64 
L 273.153261 303.64 
L 272.796563 303.64 
L 272.439865 303.64 
L 272.083167 303.64 
L 271.726468 303.64 
L 271.36977 303.64 
L 271.013072 303.64 
L 270.656374 303.64 
L 270.299676 303.64 
L 269.942977 303.64 
L 269.586279 303.64 
L 269.229581 303.64 
L 268.872883 303.64 
L 268.516185 303.64 
L 268.159486 303.64 
L 267.802788 303.64 
L 267.44609 303.64 
L 267.089392 303.64 
L 266.732694 303.64 
L 266.375995 303.64 
L 266.019297 303.64 
L 265.662599 303.64 
L 265.305901 303.64 
L 264.949203 303.64 
L 264.592505 303.64 
L 264.235806 303.64 
L 263.879108 303.64 
L 263.52241 303.64 
L 263.165712 303.64 
L 262.809014 303.64 
L 262.452315 303.64 
L 262.095617 303.64 
L 261.738919 303.64 
L 261.382221 303.64 
L 261.025523 303.64 
L 260.668824 303.64 
L 260.312126 303.64 
L 259.955428 303.64 
L 259.59873 303.64 
L 259.242032 303.64 
L 258.885333 303.64 
L 258.528635 303.64 
L 258.171937 303.64 
L 257.815239 303.64 
L 257.458541 303.64 
L 257.101842 303.64 
L 256.745144 303.64 
L 256.388446 303.64 
L 256.031748 303.64 
L 255.67505 303.64 
L 255.318351 303.64 
L 254.961653 303.64 
L 254.604955 303.64 
L 254.248257 303.64 
L 253.891559 303.64 
L 253.53486 303.64 
L 253.178162 303.64 
L 252.821464 303.64 
L 252.464766 303.64 
L 252.108068 303.64 
L 251.751369 303.64 
L 251.394671 303.64 
L 251.037973 303.64 
L 250.681275 303.64 
L 250.324577 303.64 
L 249.967878 303.64 
L 249.61118 303.64 
L 249.254482 303.64 
L 248.897784 303.64 
L 248.541086 303.64 
L 248.184387 303.64 
L 247.827689 303.64 
L 247.470991 303.64 
L 247.114293 303.64 
L 246.757595 303.64 
L 246.400896 303.64 
L 246.044198 303.64 
L 245.6875 303.64 
L 245.330802 303.64 
L 244.974104 303.64 
L 244.617405 303.64 
L 244.260707 303.64 
L 243.904009 303.64 
L 243.547311 303.64 
L 243.190613 303.64 
L 242.833914 303.64 
L 242.477216 303.64 
L 242.120518 303.64 
L 241.76382 303.64 
L 241.407122 303.64 
L 241.050423 303.64 
L 240.693725 303.64 
L 240.337027 303.64 
L 239.980329 303.64 
L 239.623631 303.64 
L 239.266932 303.64 
L 238.910234 303.64 
L 238.553536 303.64 
L 238.196838 303.64 
L 237.84014 303.64 
L 237.483441 303.64 
L 237.126743 303.64 
L 236.770045 303.64 
L 236.413347 303.64 
L 236.056649 303.64 
L 235.69995 303.64 
L 235.343252 303.64 
L 234.986554 303.64 
L 234.629856 303.64 
L 234.273158 303.64 
L 233.916459 303.64 
L 233.559761 303.64 
L 233.203063 303.64 
L 232.846365 303.64 
L 232.489667 303.64 
L 232.132968 303.64 
L 231.77627 303.64 
L 231.419572 303.64 
L 231.062874 303.64 
L 230.706176 303.64 
L 230.349477 303.64 
L 229.992779 303.64 
L 229.636081 303.64 
L 229.279383 303.64 
L 228.922685 303.64 
L 228.565986 303.64 
L 228.209288 303.64 
L 227.85259 303.64 
L 227.495892 303.64 
L 227.139194 303.64 
L 226.782495 303.64 
L 226.425797 303.64 
L 226.069099 303.64 
L 225.712401 303.64 
L 225.355703 303.64 
L 224.999005 303.64 
L 224.642306 303.64 
L 224.285608 303.64 
L 223.92891 303.64 
L 223.572212 303.64 
L 223.215514 303.64 
L 222.858815 303.64 
L 222.502117 303.64 
L 222.145419 303.64 
L 221.788721 303.64 
L 221.432023 303.64 
L 221.075324 303.64 
L 220.718626 303.64 
L 220.361928 303.64 
L 220.00523 303.64 
L 219.648532 303.64 
L 219.291833 303.64 
L 218.935135 303.64 
L 218.578437 303.64 
L 218.221739 303.64 
L 217.865041 303.64 
L 217.508342 303.64 
L 217.151644 303.64 
L 216.794946 303.64 
L 216.438248 303.64 
L 216.08155 303.64 
L 215.724851 303.64 
L 215.368153 303.64 
L 215.011455 303.64 
L 214.654757 303.64 
L 214.298059 303.64 
L 213.94136 303.64 
L 213.584662 303.64 
L 213.227964 303.64 
L 212.871266 303.64 
L 212.514568 303.64 
L 212.157869 303.64 
L 211.801171 303.64 
L 211.444473 303.64 
L 211.087775 303.64 
L 210.731077 303.64 
L 210.374378 303.64 
L 210.01768 303.64 
L 209.660982 303.64 
L 209.304284 303.64 
L 208.947586 303.64 
L 208.590887 303.64 
L 208.234189 303.64 
L 207.877491 303.64 
L 207.520793 303.64 
L 207.164095 303.64 
L 206.807396 303.64 
L 206.450698 303.64 
L 206.094 303.64 
L 205.737302 303.64 
L 205.380604 303.64 
L 205.023905 303.64 
L 204.667207 303.64 
L 204.310509 303.64 
L 203.953811 303.64 
L 203.597113 303.64 
L 203.240414 303.64 
L 202.883716 303.64 
L 202.527018 303.64 
L 202.17032 303.64 
L 201.813622 303.64 
L 201.456923 303.64 
L 201.100225 303.64 
L 200.743527 303.64 
L 200.386829 303.64 
L 200.030131 303.64 
L 199.673432 303.64 
L 199.316734 303.64 
L 198.960036 303.64 
L 198.603338 303.64 
L 198.24664 303.64 
L 197.889941 303.64 
L 197.533243 303.64 
L 197.176545 303.64 
L 196.819847 303.64 
L 196.463149 303.64 
L 196.10645 303.64 
L 195.749752 303.64 
L 195.393054 303.64 
L 195.036356 303.64 
L 194.679658 303.64 
L 194.322959 303.64 
L 193.966261 303.64 
L 193.609563 303.64 
L 193.252865 303.64 
L 192.896167 303.64 
L 192.539468 303.64 
L 192.18277 303.64 
L 191.826072 303.64 
L 191.469374 303.64 
L 191.112676 303.64 
L 190.755977 303.64 
L 190.399279 303.64 
L 190.042581 303.64 
L 189.685883 303.64 
L 189.329185 303.64 
L 188.972486 303.64 
L 188.615788 303.64 
L 188.25909 303.64 
L 187.902392 303.64 
L 187.545694 303.64 
L 187.188995 303.64 
L 186.832297 303.64 
L 186.475599 303.64 
L 186.118901 303.64 
L 185.762203 303.64 
L 185.405505 303.64 
L 185.048806 303.64 
L 184.692108 303.64 
L 184.33541 303.64 
L 183.978712 303.64 
L 183.622014 303.64 
L 183.265315 303.64 
L 182.908617 303.64 
L 182.551919 303.64 
L 182.195221 303.64 
L 181.838523 303.64 
L 181.481824 303.64 
L 181.125126 303.64 
L 180.768428 303.64 
L 180.41173 303.64 
L 180.055032 303.64 
L 179.698333 303.64 
L 179.341635 303.64 
L 178.984937 303.64 
L 178.628239 303.64 
L 178.271541 303.64 
L 177.914842 303.64 
L 177.558144 303.64 
L 177.201446 303.64 
L 176.844748 303.64 
L 176.48805 303.64 
L 176.131351 303.64 
L 175.774653 303.64 
L 175.417955 303.64 
L 175.061257 303.64 
L 174.704559 303.64 
L 174.34786 303.64 
L 173.991162 303.64 
L 173.634464 303.64 
L 173.277766 303.64 
L 172.921068 303.64 
L 172.564369 303.64 
L 172.207671 303.64 
L 171.850973 303.64 
L 171.494275 303.64 
L 171.137577 303.64 
L 170.780878 303.64 
L 170.42418 303.64 
L 170.067482 303.64 
L 169.710784 303.64 
L 169.354086 303.64 
L 168.997387 303.64 
L 168.640689 303.64 
L 168.283991 303.64 
L 167.927293 303.64 
L 167.570595 303.64 
L 167.213896 303.64 
L 166.857198 303.64 
L 166.5005 303.64 
L 166.143802 303.64 
L 165.787104 303.64 
L 165.430405 303.64 
L 165.073707 303.64 
L 164.717009 303.64 
L 164.360311 303.64 
L 164.003613 303.64 
L 163.646914 303.64 
L 163.290216 303.64 
L 162.933518 303.64 
L 162.57682 303.64 
L 162.220122 303.64 
L 161.863423 303.64 
L 161.506725 303.64 
L 161.150027 303.64 
L 160.793329 303.64 
L 160.436631 303.64 
L 160.079932 303.64 
L 159.723234 303.64 
L 159.366536 303.64 
L 159.009838 303.64 
L 158.65314 303.64 
L 158.296441 303.64 
L 157.939743 303.64 
L 157.583045 303.64 
L 157.226347 303.64 
L 156.869649 303.64 
L 156.51295 303.64 
L 156.156252 303.64 
L 155.799554 303.64 
L 155.442856 303.64 
L 155.086158 303.64 
L 154.729459 303.64 
L 154.372761 303.64 
L 154.016063 303.64 
L 153.659365 303.64 
L 153.302667 303.64 
L 152.945968 303.64 
L 152.58927 303.64 
L 152.232572 303.64 
L 151.875874 303.64 
L 151.519176 303.64 
L 151.162477 303.64 
L 150.805779 303.64 
L 150.449081 303.64 
L 150.092383 303.64 
L 149.735685 303.64 
L 149.378986 303.64 
L 149.022288 303.64 
L 148.66559 303.64 
L 148.308892 303.64 
L 147.952194 303.64 
L 147.595495 303.64 
L 147.238797 303.64 
L 146.882099 303.64 
L 146.525401 303.64 
L 146.168703 303.64 
L 145.812005 303.64 
L 145.455306 303.64 
L 145.098608 303.64 
L 144.74191 303.64 
L 144.385212 303.64 
L 144.028514 303.64 
L 143.671815 303.64 
L 143.315117 303.64 
L 142.958419 303.64 
L 142.601721 303.64 
L 142.245023 303.64 
L 141.888324 303.64 
L 141.531626 303.64 
L 141.174928 303.64 
L 140.81823 303.64 
L 140.461532 303.64 
L 140.104833 303.64 
L 139.748135 303.64 
L 139.391437 303.64 
L 139.034739 303.64 
L 138.678041 303.64 
L 138.321342 303.64 
L 137.964644 303.64 
L 137.607946 303.64 
L 137.251248 303.64 
L 136.89455 303.64 
L 136.537851 303.64 
L 136.181153 303.64 
L 135.824455 303.64 
L 135.467757 303.64 
L 135.111059 303.64 
L 134.75436 303.64 
L 134.397662 303.64 
L 134.040964 303.64 
L 133.684266 303.64 
L 133.327568 303.64 
L 132.970869 303.64 
L 132.614171 303.64 
L 132.257473 303.64 
L 131.900775 303.64 
L 131.544077 303.64 
L 131.187378 303.64 
L 130.83068 303.64 
L 130.473982 303.64 
L 130.117284 303.64 
L 129.760586 303.64 
L 129.403887 303.64 
L 129.047189 303.64 
L 128.690491 303.64 
L 128.333793 303.64 
L 127.977095 303.64 
L 127.620396 303.64 
L 127.263698 303.64 
L 126.907 303.64 
L 126.550302 303.64 
L 126.193604 303.64 
L 125.836905 303.64 
L 125.480207 303.64 
L 125.123509 303.64 
L 124.766811 303.64 
L 124.410113 303.64 
L 124.053414 303.64 
L 123.696716 303.64 
L 123.340018 303.64 
L 122.98332 303.64 
L 122.626622 303.64 
L 122.269923 303.64 
L 121.913225 303.64 
L 121.556527 303.64 
L 121.199829 303.64 
L 120.843131 303.64 
L 120.486432 303.64 
L 120.129734 303.64 
L 119.773036 303.64 
L 119.416338 303.64 
L 119.05964 303.64 
L 118.702941 303.64 
L 118.346243 303.64 
L 117.989545 303.64 
L 117.632847 303.64 
L 117.276149 303.64 
L 116.91945 303.64 
L 116.562752 303.64 
L 116.206054 303.64 
L 115.849356 303.64 
L 115.492658 303.64 
L 115.135959 303.64 
L 114.779261 303.64 
L 114.422563 303.64 
L 114.065865 303.64 
L 113.709167 303.64 
L 113.352468 303.64 
L 112.99577 303.64 
L 112.639072 303.64 
L 112.282374 303.64 
L 111.925676 303.64 
L 111.568977 303.64 
L 111.212279 303.64 
L 110.855581 303.64 
L 110.498883 303.64 
L 110.142185 303.64 
L 109.785486 303.64 
L 109.428788 303.64 
L 109.07209 303.64 
L 108.715392 303.64 
L 108.358694 303.64 
L 108.001995 303.64 
L 107.645297 303.64 
L 107.288599 303.64 
L 106.931901 303.64 
L 106.575203 303.64 
L 106.218505 303.64 
L 105.861806 303.64 
L 105.505108 303.64 
L 105.14841 303.64 
L 104.791712 303.64 
L 104.435014 303.64 
L 104.078315 303.64 
L 103.721617 303.64 
L 103.364919 303.64 
L 103.008221 303.64 
L 102.651523 303.64 
L 102.294824 303.64 
L 101.938126 303.64 
L 101.581428 303.64 
L 101.22473 303.64 
L 100.868032 303.64 
L 100.511333 303.64 
L 100.154635 303.64 
L 99.797937 303.64 
L 99.441239 303.64 
L 99.084541 303.64 
L 98.727842 303.64 
L 98.371144 303.64 
L 98.014446 303.64 
L 97.657748 303.64 
L 97.30105 303.64 
L 96.944351 303.64 
L 96.587653 303.64 
L 96.230955 303.64 
L 95.874257 303.64 
L 95.517559 303.64 
L 95.16086 303.64 
L 94.804162 303.64 
L 94.447464 303.64 
L 94.090766 303.64 
L 93.734068 303.64 
L 93.377369 303.64 
L 93.020671 303.64 
L 92.663973 303.64 
L 92.307275 303.64 
L 91.950577 303.64 
L 91.593878 303.64 
L 91.23718 303.64 
L 90.880482 303.64 
L 90.523784 303.64 
L 90.167086 303.64 
L 89.810387 303.64 
L 89.453689 303.64 
L 89.096991 303.64 
L 88.740293 303.64 
L 88.383595 303.64 
L 88.026896 303.64 
L 87.670198 303.64 
L 87.3135 303.64 
z
" clip-path="url(#p1639f187d0)" style="fill: #1f77b4; fill-opacity: 0.15"/>
   </g>
   <g id="matplotlib.axis_1">
    <g id="xtick_1">
     <g id="line2d_1">
      <defs>
       <path id="m07c5cb5b99" d="M 0 0 
L 0 3.5 
" style="stroke: #000000; stroke-width: 0.8"/>
      </defs>
      <g>
       <use xlink:href="#m07c5cb5b99" x="47.72" y="303.64" style="stroke: #000000; stroke-width: 0.8"/>
      </g>
     </g>
     <g id="text_1">
      <!-- 0 -->
      <g transform="translate(44.53875 318.238437) scale(0.1 -0.1)">
       <defs>
        <path id="DejaVuSans-30" d="M 2034 4250 
Q 1547 4250 1301 3770 
Q 1056 3291 1056 2328 
Q 1056 1369 1301 889 
Q 1547 409 2034 409 
Q 2525 409 2770 889 
Q 3016 1369 3016 2328 
Q 3016 3291 2770 3770 
Q 2525 4250 2034 4250 
z
M 2034 4750 
Q 2819 4750 3233 4129 
Q 3647 3509 3647 2328 
Q 3647 1150 3233 529 
Q 2819 -91 2034 -91 
Q 1250 -91 836 529 
Q 422 1150 422 2328 
Q 422 3509 836 4129 
Q 1250 4750 2034 4750 
z
" transform="scale(0.015625)"/>
       </defs>
       <use xlink:href="#DejaVuSans-30"/>
      </g>
     </g>
    </g>
    <g id="xtick_2">
     <g id="line2d_2">
      <g>
       <use xlink:href="#m07c5cb5b99" x="126.907" y="303.64" style="stroke: #000000; stroke-width: 0.8"/>
      </g>
     </g>
     <g id="text_2">
      <!-- 2 -->
      <g transform="translate(123.72575 318.238437) scale(0.1 -0.1)">
       <defs>
        <path id="DejaVuSans-32" d="M 1228 531 
L 3431 531 
L 3431 0 
L 469 0 
L 469 531 
Q 828 903 1448 1529 
Q 2069 2156 2228 2338 
Q 2531 2678 2651 2914 
Q 2772 3150 2772 3378 
Q 2772 3750 2511 3984 
Q 2250 4219 1831 4219 
Q 1534 4219 1204 4116 
Q 875 4013 500 3803 
L 500 4441 
Q 881 4594 1212 4672 
Q 1544 4750 1819 4750 
Q 2544 4750 2975 4387 
Q 3406 4025 3406 3419 
Q 3406 3131 3298 2873 
Q 3191 2616 2906 2266 
Q 2828 2175 2409 1742 
Q 1991 1309 1228 531 
z
" transform="scale(0.015625)"/>
       </defs>
       <use xlink:href="#DejaVuSans-32"/>
      </g>
     </g>
    </g>
    <g id="xtick_3">
     <g id="line2d_3">
      <g>
       <use xlink:href="#m07c5cb5b99" x="206.094" y="303.64" style="stroke: #000000; stroke-width: 0.8"/>
      </g>
     </g>
     <g id="text_3">
      <!-- 4 -->
      <g transform="translate(202.91275 318.238437) scale(0.1 -0.1)">
       <defs>
        <path id="DejaVuSans-34" d="M 2419 4116 
L 825 1625 
L 2419 1625 
L 2419 4116 
z
M 2253 4666 
L 3047 4666 
L 3047 1625 
L 3713 1625 
L 3713 1100 
L 3047 1100 
L 3047 0 
L 2419 0 
L 2419 1100 
L 313 1100 
L 313 1709 
L 2253 4666 
z
" transform="scale(0.015625)"/>
       </defs>
       <use xlink:href="#DejaVuSans-34"/>
      </g>
     </g>
    </g>
    <g id="xtick_4">
     <g id="line2d_4">
      <g>
       <use xlink:href="#m07c5cb5b99" x="285.281" y="303.64" style="stroke: #000000; stroke-width: 0.8"/>
      </g>
     </g>
     <g id="text_4">
      <!-- 6 -->
      <g transform="translate(282.09975 318.238437) scale(0.1 -0.1)">
       <defs>
        <path id="DejaVuSans-36" d="M 2113 2584 
Q 1688 2584 1439 2293 
Q 1191 2003 1191 1497 
Q 1191 994 1439 701 
Q 1688 409 2113 409 
Q 2538 409 2786 701 
Q 3034 994 3034 1497 
Q 3034 2003 2786 2293 
Q 2538 2584 2113 2584 
z
M 3366 4563 
L 3366 3988 
Q 3128 4100 2886 4159 
Q 2644 4219 2406 4219 
Q 1781 4219 1451 3797 
Q 1122 3375 1075 2522 
Q 1259 2794 1537 2939 
Q 1816 3084 2150 3084 
Q 2853 3084 3261 2657 
Q 3669 2231 3669 1497 
Q 3669 778 3244 343 
Q 2819 -91 2113 -91 
Q 1303 -91 875 529 
Q 447 1150 447 2328 
Q 447 3434 972 4092 
Q 1497 4750 2381 4750 
Q 2619 4750 2861 4703 
Q 3103 4656 3366 4563 
z
" transform="scale(0.015625)"/>
       </defs>
       <use xlink:href="#DejaVuSans-36"/>
      </g>
     </g>
    </g>
    <g id="xtick_5">
     <g id="line2d_5">
      <g>
       <use xlink:href="#m07c5cb5b99" x="364.468" y="303.64" style="stroke: #000000; stroke-width: 0.8"/>
      </g>
     </g>
     <g id="text_5">
      <!-- 8 -->
      <g transform="translate(361.28675 318.238437) scale(0.1 -0.1)">
       <defs>
        <path id="DejaVuSans-38" d="M 2034 2216 
Q 1584 2216 1326 1975 
Q 1069 1734 1069 1313 
Q 1069 891 1326 650 
Q 1584 409 2034 409 
Q 2484 409 2743 651 
Q 3003 894 3003 1313 
Q 3003 1734 2745 1975 
Q 2488 2216 2034 2216 
z
M 1403 2484 
Q 997 2584 770 2862 
Q 544 3141 544 3541 
Q 544 4100 942 4425 
Q 1341 4750 2034 4750 
Q 2731 4750 3128 4425 
Q 3525 4100 3525 3541 
Q 3525 3141 3298 2862 
Q 3072 2584 2669 2484 
Q 3125 2378 3379 2068 
Q 3634 1759 3634 1313 
Q 3634 634 3220 271 
Q 2806 -91 2034 -91 
Q 1263 -91 848 271 
Q 434 634 434 1313 
Q 434 1759 690 2068 
Q 947 2378 1403 2484 
z
M 1172 3481 
Q 1172 3119 1398 2916 
Q 1625 2713 2034 2713 
Q 2441 2713 2670 2916 
Q 2900 3119 2900 3481 
Q 2900 3844 2670 4047 
Q 2441 4250 2034 4250 
Q 1625 4250 1398 4047 
Q 1172 3844 1172 3481 
z
" transform="scale(0.015625)"/>
       </defs>
       <use xlink:href="#DejaVuSans-38"/>
      </g>
     </g>
    </g>
    <g id="xtick_6">
     <g id="line2d_6">
      <g>
       <use xlink:href="#m07c5cb5b99" x="443.655" y="303.64" style="stroke: #000000; stroke-width: 0.8"/>
      </g>
     </g>
     <g id="text_6">
      <!-- 10 -->
      <g transform="translate(437.2925 318.238437) scale(0.1 -0.1)">
       <defs>
        <path id="DejaVuSans-31" d="M 794 531 
L 1825 531 
L 1825 4091 
L 703 3866 
L 703 4441 
L 1819 4666 
L 2450 4666 
L 2450 531 
L 3481 531 
L 3481 0 
L 794 0 
L 794 531 
z
" transform="scale(0.015625)"/>
       </defs>
       <use xlink:href="#DejaVuSans-31"/>
       <use xlink:href="#DejaVuSans-30" x="63.623047"/>
      </g>
     </g>
    </g>
    <g id="text_7">
     <!-- x -->
     <g transform="translate(242.728125 331.916562) scale(0.1 -0.1)">
      <defs>
       <path id="DejaVuSans-78" d="M 3513 3500 
L 2247 1797 
L 3578 0 
L 2900 0 
L 1881 1375 
L 863 0 
L 184 0 
L 1544 1831 
L 300 3500 
L 978 3500 
L 1906 2253 
L 2834 3500 
L 3513 3500 
z
" transform="scale(0.015625)"/>
      </defs>
      <use xlink:href="#DejaVuSans-78"/>
     </g>
    </g>
   </g>
   <g id="matplotlib.axis_2">
    <g id="ytick_1">
     <g id="line2d_7">
      <path d="M 47.72 303.64 
L 443.655 303.64 
" clip-path="url(#p1639f187d0)" style="fill: none; stroke-dasharray: 2.96,1.28; stroke-dashoffset: 0; stroke: #b0b0b0; stroke-opacity: 0.7; stroke-width: 0.8"/>
     </g>
     <g id="line2d_8">
      <defs>
       <path id="m377d30718e" d="M 0 0 
L -3.5 0 
" style="stroke: #000000; stroke-width: 0.8"/>
      </defs>
      <g>
       <use xlink:href="#m377d30718e" x="47.72" y="303.64" style="stroke: #000000; stroke-width: 0.8"/>
      </g>
     </g>
     <g id="text_8">
      <!-- 0.0 -->
      <g transform="translate(24.816875 307.439219) scale(0.1 -0.1)">
       <defs>
        <path id="DejaVuSans-2e" d="M 684 794 
L 1344 794 
L 1344 0 
L 684 0 
L 684 794 
z
" transform="scale(0.015625)"/>
       </defs>
       <use xlink:href="#DejaVuSans-30"/>
       <use xlink:href="#DejaVuSans-2e" x="63.623047"/>
       <use xlink:href="#DejaVuSans-30" x="95.410156"/>
      </g>
     </g>
    </g>
    <g id="ytick_2">
     <g id="line2d_9">
      <path d="M 47.72 252.711304 
L 443.655 252.711304 
" clip-path="url(#p1639f187d0)" style="fill: none; stroke-dasharray: 2.96,1.28; stroke-dashoffset: 0; stroke: #b0b0b0; stroke-opacity: 0.7; stroke-width: 0.8"/>
     </g>
     <g id="line2d_10">
      <g>
       <use xlink:href="#m377d30718e" x="47.72" y="252.711304" style="stroke: #000000; stroke-width: 0.8"/>
      </g>
     </g>
     <g id="text_9">
      <!-- 0.2 -->
      <g transform="translate(24.816875 256.510523) scale(0.1 -0.1)">
       <use xlink:href="#DejaVuSans-30"/>
       <use xlink:href="#DejaVuSans-2e" x="63.623047"/>
       <use xlink:href="#DejaVuSans-32" x="95.410156"/>
      </g>
     </g>
    </g>
    <g id="ytick_3">
     <g id="line2d_11">
      <path d="M 47.72 201.782609 
L 443.655 201.782609 
" clip-path="url(#p1639f187d0)" style="fill: none; stroke-dasharray: 2.96,1.28; stroke-dashoffset: 0; stroke: #b0b0b0; stroke-opacity: 0.7; stroke-width: 0.8"/>
     </g>
     <g id="line2d_12">
      <g>
       <use xlink:href="#m377d30718e" x="47.72" y="201.782609" style="stroke: #000000; stroke-width: 0.8"/>
      </g>
     </g>
     <g id="text_10">
      <!-- 0.4 -->
      <g transform="translate(24.816875 205.581827) scale(0.1 -0.1)">
       <use xlink:href="#DejaVuSans-30"/>
       <use xlink:href="#DejaVuSans-2e" x="63.623047"/>
       <use xlink:href="#DejaVuSans-34" x="95.410156"/>
      </g>
     </g>
    </g>
    <g id="ytick_4">
     <g id="line2d_13">
      <path d="M 47.72 150.853913 
L 443.655 150.853913 
" clip-path="url(#p1639f187d0)" style="fill: none; stroke-dasharray: 2.96,1.28; stroke-dashoffset: 0; stroke: #b0b0b0; stroke-opacity: 0.7; stroke-width: 0.8"/>
     </g>
     <g id="line2d_14">
      <g>
       <use xlink:href="#m377d30718e" x="47.72" y="150.853913" style="stroke: #000000; stroke-width: 0.8"/>
      </g>
     </g>
     <g id="text_11">
      <!-- 0.6 -->
      <g transform="translate(24.816875 154.653132) scale(0.1 -0.1)">
       <use xlink:href="#DejaVuSans-30"/>
       <use xlink:href="#DejaVuSans-2e" x="63.623047"/>
       <use xlink:href="#DejaVuSans-36" x="95.410156"/>
      </g>
     </g>
    </g>
    <g id="ytick_5">
     <g id="line2d_15">
      <path d="M 47.72 99.925217 
L 443.655 99.925217 
" clip-path="url(#p1639f187d0)" style="fill: none; stroke-dasharray: 2.96,1.28; stroke-dashoffset: 0; stroke: #b0b0b0; stroke-opacity: 0.7; stroke-width: 0.8"/>
     </g>
     <g id="line2d_16">
      <g>
       <use xlink:href="#m377d30718e" x="47.72" y="99.925217" style="stroke: #000000; stroke-width: 0.8"/>
      </g>
     </g>
     <g id="text_12">
      <!-- 0.8 -->
      <g transform="translate(24.816875 103.724436) scale(0.1 -0.1)">
       <use xlink:href="#DejaVuSans-30"/>
       <use xlink:href="#DejaVuSans-2e" x="63.623047"/>
       <use xlink:href="#DejaVuSans-38" x="95.410156"/>
      </g>
     </g>
    </g>
    <g id="ytick_6">
     <g id="line2d_17">
      <path d="M 47.72 48.996522 
L 443.655 48.996522 
" clip-path="url(#p1639f187d0)" style="fill: none; stroke-dasharray: 2.96,1.28; stroke-dashoffset: 0; stroke: #b0b0b0; stroke-opacity: 0.7; stroke-width: 0.8"/>
     </g>
     <g id="line2d_18">
      <g>
       <use xlink:href="#m377d30718e" x="47.72" y="48.996522" style="stroke: #000000; stroke-width: 0.8"/>
      </g>
     </g>
     <g id="text_13">
      <!-- 1.0 -->
      <g transform="translate(24.816875 52.79574) scale(0.1 -0.1)">
       <use xlink:href="#DejaVuSans-31"/>
       <use xlink:href="#DejaVuSans-2e" x="63.623047"/>
       <use xlink:href="#DejaVuSans-30" x="95.410156"/>
      </g>
     </g>
    </g>
    <g id="text_14">
     <!-- 1/x -->
     <g transform="translate(18.737188 165.045) rotate(-90) scale(0.1 -0.1)">
      <defs>
       <path id="DejaVuSans-2f" d="M 1625 4666 
L 2156 4666 
L 531 -594 
L 0 -594 
L 1625 4666 
z
" transform="scale(0.015625)"/>
      </defs>
      <use xlink:href="#DejaVuSans-31"/>
      <use xlink:href="#DejaVuSans-2f" x="63.623047"/>
      <use xlink:href="#DejaVuSans-78" x="97.314453"/>
     </g>
    </g>
   </g>
   <g id="patch_3">
    <path d="M 47.72 303.64 
L 47.72 10.8 
" style="fill: none; stroke: #000000; stroke-width: 0.8; stroke-linejoin: miter; stroke-linecap: square"/>
   </g>
   <g id="patch_4">
    <path d="M 443.655 303.64 
L 443.655 10.8 
" style="fill: none; stroke: #000000; stroke-width: 0.8; stroke-linejoin: miter; stroke-linecap: square"/>
   </g>
   <g id="patch_5">
    <path d="M 47.72 303.64 
L 443.655 303.64 
" style="fill: none; stroke: #000000; stroke-width: 0.8; stroke-linejoin: miter; stroke-linecap: square"/>
   </g>
   <g id="patch_6">
    <path d="M 47.72 10.8 
L 443.655 10.8 
" style="fill: none; stroke: #000000; stroke-width: 0.8; stroke-linejoin: miter; stroke-linecap: square"/>
   </g>
   <g id="patch_7">
    <path d="M 87.3135 303.64 
L 126.907 303.64 
L 126.907 48.996522 
L 87.3135 48.996522 
z
" clip-path="url(#p1639f187d0)" style="fill: #1f77b4; stroke: #000000; stroke-width: 1.2; stroke-linejoin: miter"/>
   </g>
   <g id="patch_8">
    <path d="M 126.907 303.64 
L 166.5005 303.64 
L 166.5005 176.318261 
L 126.907 176.318261 
z
" clip-path="url(#p1639f187d0)" style="fill: #1f77b4; stroke: #000000; stroke-width: 1.2; stroke-linejoin: miter"/>
   </g>
   <g id="patch_9">
    <path d="M 166.5005 303.64 
L 206.094 303.64 
L 206.094 218.758841 
L 166.5005 218.758841 
z
" clip-path="url(#p1639f187d0)" style="fill: #1f77b4; stroke: #000000; stroke-width: 1.2; stroke-linejoin: miter"/>
   </g>
   <g id="patch_10">
    <path d="M 206.094 303.64 
L 245.6875 303.64 
L 245.6875 239.97913 
L 206.094 239.97913 
z
" clip-path="url(#p1639f187d0)" style="fill: #1f77b4; stroke: #000000; stroke-width: 1.2; stroke-linejoin: miter"/>
   </g>
   <g id="patch_11">
    <path d="M 245.6875 303.64 
L 285.281 303.64 
L 285.281 252.711304 
L 245.6875 252.711304 
z
" clip-path="url(#p1639f187d0)" style="fill: #1f77b4; stroke: #000000; stroke-width: 1.2; stroke-linejoin: miter"/>
   </g>
   <g id="patch_12">
    <path d="M 285.281 303.64 
L 324.8745 303.64 
L 324.8745 261.19942 
L 285.281 261.19942 
z
" clip-path="url(#p1639f187d0)" style="fill: #1f77b4; stroke: #000000; stroke-width: 1.2; stroke-linejoin: miter"/>
   </g>
   <g id="patch_13">
    <path d="M 324.8745 303.64 
L 364.468 303.64 
L 364.468 267.26236 
L 324.8745 267.26236 
z
" clip-path="url(#p1639f187d0)" style="fill: #1f77b4; stroke: #000000; stroke-width: 1.2; stroke-linejoin: miter"/>
   </g>
   <g id="patch_14">
    <path d="M 364.468 303.64 
L 404.0615 303.64 
L 404.0615 271.809565 
L 364.468 271.809565 
z
" clip-path="url(#p1639f187d0)" style="fill: #1f77b4; stroke: #000000; stroke-width: 1.2; stroke-linejoin: miter"/>
   </g>
   <g id="patch_15">
    <path d="M 404.0615 303.64 
L 443.655 303.64 
L 443.655 275.34628 
L 404.0615 275.34628 
z
" clip-path="url(#p1639f187d0)" style="fill: #1f77b4; stroke: #000000; stroke-width: 1.2; stroke-linejoin: miter"/>
   </g>
   <g id="patch_16">
    <path d="M 443.655 303.64 
L 483.2485 303.64 
L 483.2485 278.175652 
L 443.655 278.175652 
z
" clip-path="url(#p1639f187d0)" style="fill: #1f77b4; stroke: #000000; stroke-width: 1.2; stroke-linejoin: miter"/>
   </g>
   <g id="line2d_19">
    <path d="M 87.3135 48.996522 
L 89.453689 62.055162 
L 91.593878 73.839788 
L 93.734068 84.52817 
L 96.230955 95.805985 
L 98.727842 105.979678 
L 101.22473 115.203826 
L 103.721617 123.605439 
L 106.218505 131.289841 
L 109.07209 139.306127 
L 111.925676 146.609855 
L 114.779261 153.291989 
L 117.632847 159.428642 
L 120.486432 165.08399 
L 123.696716 170.938469 
L 126.907 176.318261 
L 130.117284 181.278848 
L 133.684266 186.356074 
L 137.251248 191.028741 
L 140.81823 195.343348 
L 144.74191 199.722992 
L 148.66559 203.762169 
L 152.58927 207.499095 
L 156.869649 211.269327 
L 161.150027 214.755012 
L 165.787104 218.245963 
L 170.780878 221.711229 
L 175.774653 224.906223 
L 181.125126 228.063994 
L 186.832297 231.164548 
L 192.896167 234.191779 
L 199.316734 237.133115 
L 206.094 239.97913 
L 213.227964 242.723133 
L 220.718626 245.360771 
L 228.565986 247.889653 
L 237.126743 250.409442 
L 246.044198 252.802903 
L 255.67505 255.157279 
L 266.019297 257.454663 
L 277.076941 259.681328 
L 289.20468 261.889001 
L 302.045815 263.997046 
L 315.957045 266.052997 
L 330.938369 268.041227 
L 347.346486 269.990683 
L 365.181396 271.881094 
L 384.443099 273.697811 
L 405.488293 275.459117 
L 428.673676 277.174245 
L 443.655 278.175652 
L 443.655 278.175652 
" clip-path="url(#p1639f187d0)" style="fill: none; stroke: #ffd700; stroke-width: 2.8; stroke-linecap: square"/>
   </g>
  </g>
 </g>
 <defs>
  <clipPath id="p1639f187d0">
   <rect x="47.72" y="10.8" width="395.935" height="292.84"/>
  </clipPath>
 </defs>
</svg>
