<?xml version="1.0" encoding="utf-8" standalone="no"?>
<!DOCTYPE svg PUBLIC "-//W3C//DTD SVG 1.1//EN"
  "http://www.w3.org/Graphics/SVG/1.1/DTD/svg11.dtd">
<svg xmlns:xlink="http://www.w3.org/1999/xlink" width="375.784375pt" height="267.01625pt" viewBox="0 0 375.784375 267.01625" xmlns="http://www.w3.org/2000/svg" version="1.1">
 <metadata>
  <rdf:RDF xmlns:dc="http://purl.org/dc/elements/1.1/" xmlns:cc="http://creativecommons.org/ns#" xmlns:rdf="http://www.w3.org/1999/02/22-rdf-syntax-ns#">
   <cc:Work>
    <dc:type rdf:resource="http://purl.org/dc/dcmitype/StillImage"/>
    <dc:date>2026-02-02T16:44:00.586956</dc:date>
    <dc:format>image/svg+xml</dc:format>
    <dc:creator>
     <cc:Agent>
      <dc:title>Matplotlib v3.10.0, https://matplotlib.org/</dc:title>
     </cc:Agent>
    </dc:creator>
   </cc:Work>
  </rdf:RDF>
 </metadata>
 <defs>
  <style type="text/css">*{stroke-linejoin: round; stroke-linecap: butt}</style>
 </defs>
 <g id="figure_1">
  <g id="patch_1">
   <path d="M 0 267.01625 
L 375.784375 267.01625 
L 375.784375 0 
L 0 0 
z
" style="fill: #ffffff"/>
  </g>
  <g id="axes_1">
   <g id="patch_2">
    <path d="M 30.603125 228.96 
L 365.403125 228.96 
L 365.403125 7.2 
L 30.603125 7.2 
z
" style="fill: #ffffff"/>
   </g>
   <g id="line2d_1">
    <path d="M 114.303125 228.96 
L 114.303125 7.2 
" clip-path="url(#p0c47748ae6)" style="fill: none; stroke-dasharray: 7.4,3.2; stroke-dashoffset: 0; stroke: #add8e6; stroke-width: 2"/>
   </g>
   <g id="line2d_2">
    <path d="M 170.103125 228.96 
L 170.103125 7.2 
" clip-path="url(#p0c47748ae6)" style="fill: none; stroke-dasharray: 7.4,3.2; stroke-dashoffset: 0; stroke: #add8e6; stroke-width: 2"/>
   </g>
   <g id="line2d_3">
    <path d="M 225.903125 228.96 
L 225.903125 7.2 
" clip-path="url(#p0c47748ae6)" style="fill: none; stroke-dasharray: 7.4,3.2; stroke-dashoffset: 0; stroke: #add8e6; stroke-width: 2"/>
   </g>
   <g id="line2d_4">
    <path d="M 281.703125 228.96 
L 281.703125 7.2 
" clip-path="url(#p0c47748ae6)" style="fill: none; stroke-dasharray: 7.4,3.2; stroke-dashoffset: 0; stroke: #add8e6; stroke-width: 2"/>
   </g>
   <g id="patch_3">
    <path d="M 168.103943 200.373861 
Q 142.203433 200.373861 118.538991 200.373861 
" style="fill: none; stroke: #add8e6; stroke-width: 2; stroke-linecap: round"/>
    <path d="M 122.538991 202.373861 
L 118.538991 200.373861 
L 122.538991 198.373861 
" style="fill: none; stroke: #add8e6; stroke-width: 2; stroke-linecap: round"/>
   </g>
   <g id="patch_4">
    <path d="M 227.902307 200.373861 
Q 253.802817 200.373861 277.467259 200.373861 
" style="fill: none; stroke: #add8e6; stroke-width: 2; stroke-linecap: round"/>
    <path d="M 273.467259 198.373861 
L 277.467259 200.373861 
L 273.467259 202.373861 
" style="fill: none; stroke: #add8e6; stroke-width: 2; stroke-linecap: round"/>
   </g>
   <g id="matplotlib.axis_1">
    <g id="xtick_1">
     <g id="line2d_5">
      <defs>
       <path id="m181ec13835" d="M 0 0 
L 0 4 
" style="stroke: #000000"/>
      </defs>
      <g>
       <use xlink:href="#m181ec13835" x="30.603125" y="228.96" style="stroke: #000000"/>
      </g>
     </g>
     <g id="text_1">
      <!-- −6 -->
      <g transform="translate(23.232031 244.058438) scale(0.1 -0.1)">
       <defs>
        <path id="DejaVuSans-2212" d="M 678 2272 
L 4684 2272 
L 4684 1741 
L 678 1741 
L 678 2272 
z
" transform="scale(0.015625)"/>
        <path id="DejaVuSans-36" d="M 2113 2584 
Q 1688 2584 1439 2293 
Q 1191 2003 1191 1497 
Q 1191 994 1439 701 
Q 1688 409 2113 409 
Q 2538 409 2786 701 
Q 3034 994 3034 1497 
Q 3034 2003 2786 2293 
Q 2538 2584 2113 2584 
z
M 3366 4563 
L 3366 3988 
Q 3128 4100 2886 4159 
Q 2644 4219 2406 4219 
Q 1781 4219 1451 3797 
Q 1122 3375 1075 2522 
Q 1259 2794 1537 2939 
Q 1816 3084 2150 3084 
Q 2853 3084 3261 2657 
Q 3669 2231 3669 1497 
Q 3669 778 3244 343 
Q 2819 -91 2113 -91 
Q 1303 -91 875 529 
Q 447 1150 447 2328 
Q 447 3434 972 4092 
Q 1497 4750 2381 4750 
Q 2619 4750 2861 4703 
Q 3103 4656 3366 4563 
z
" transform="scale(0.015625)"/>
       </defs>
       <use xlink:href="#DejaVuSans-2212"/>
       <use xlink:href="#DejaVuSans-36" transform="translate(83.789062 0)"/>
      </g>
     </g>
    </g>
    <g id="xtick_2">
     <g id="line2d_6">
      <g>
       <use xlink:href="#m181ec13835" x="86.403125" y="228.96" style="stroke: #000000"/>
      </g>
     </g>
     <g id="text_2">
      <!-- −4 -->
      <g transform="translate(79.032031 244.058438) scale(0.1 -0.1)">
       <defs>
        <path id="DejaVuSans-34" d="M 2419 4116 
L 825 1625 
L 2419 1625 
L 2419 4116 
z
M 2253 4666 
L 3047 4666 
L 3047 1625 
L 3713 1625 
L 3713 1100 
L 3047 1100 
L 3047 0 
L 2419 0 
L 2419 1100 
L 313 1100 
L 313 1709 
L 2253 4666 
z
" transform="scale(0.015625)"/>
       </defs>
       <use xlink:href="#DejaVuSans-2212"/>
       <use xlink:href="#DejaVuSans-34" transform="translate(83.789062 0)"/>
      </g>
     </g>
    </g>
    <g id="xtick_3">
     <g id="line2d_7">
      <g>
       <use xlink:href="#m181ec13835" x="142.203125" y="228.96" style="stroke: #000000"/>
      </g>
     </g>
     <g id="text_3">
      <!-- −2 -->
      <g transform="translate(134.832031 244.058438) scale(0.1 -0.1)">
       <defs>
        <path id="DejaVuSans-32" d="M 1228 531 
L 3431 531 
L 3431 0 
L 469 0 
L 469 531 
Q 828 903 1448 1529 
Q 2069 2156 2228 2338 
Q 2531 2678 2651 2914 
Q 2772 3150 2772 3378 
Q 2772 3750 2511 3984 
Q 2250 4219 1831 4219 
Q 1534 4219 1204 4116 
Q 875 4013 500 3803 
L 500 4441 
Q 881 4594 1212 4672 
Q 1544 4750 1819 4750 
Q 2544 4750 2975 4387 
Q 3406 4025 3406 3419 
Q 3406 3131 3298 2873 
Q 3191 2616 2906 2266 
Q 2828 2175 2409 1742 
Q 1991 1309 1228 531 
z
" transform="scale(0.015625)"/>
       </defs>
       <use xlink:href="#DejaVuSans-2212"/>
       <use xlink:href="#DejaVuSans-32" transform="translate(83.789062 0)"/>
      </g>
     </g>
    </g>
    <g id="xtick_4">
     <g id="line2d_8">
      <g>
       <use xlink:href="#m181ec13835" x="198.003125" y="228.96" style="stroke: #000000"/>
      </g>
     </g>
     <g id="text_4">
      <!-- 0 -->
      <g transform="translate(194.821875 244.058438) scale(0.1 -0.1)">
       <defs>
        <path id="DejaVuSans-30" d="M 2034 4250 
Q 1547 4250 1301 3770 
Q 1056 3291 1056 2328 
Q 1056 1369 1301 889 
Q 1547 409 2034 409 
Q 2525 409 2770 889 
Q 3016 1369 3016 2328 
Q 3016 3291 2770 3770 
Q 2525 4250 2034 4250 
z
M 2034 4750 
Q 2819 4750 3233 4129 
Q 3647 3509 3647 2328 
Q 3647 1150 3233 529 
Q 2819 -91 2034 -91 
Q 1250 -91 836 529 
Q 422 1150 422 2328 
Q 422 3509 836 4129 
Q 1250 4750 2034 4750 
z
" transform="scale(0.015625)"/>
       </defs>
       <use xlink:href="#DejaVuSans-30"/>
      </g>
     </g>
    </g>
    <g id="xtick_5">
     <g id="line2d_9">
      <g>
       <use xlink:href="#m181ec13835" x="253.803125" y="228.96" style="stroke: #000000"/>
      </g>
     </g>
     <g id="text_5">
      <!-- 2 -->
      <g transform="translate(250.621875 244.058438) scale(0.1 -0.1)">
       <use xlink:href="#DejaVuSans-32"/>
      </g>
     </g>
    </g>
    <g id="xtick_6">
     <g id="line2d_10">
      <g>
       <use xlink:href="#m181ec13835" x="309.603125" y="228.96" style="stroke: #000000"/>
      </g>
     </g>
     <g id="text_6">
      <!-- 4 -->
      <g transform="translate(306.421875 244.058438) scale(0.1 -0.1)">
       <use xlink:href="#DejaVuSans-34"/>
      </g>
     </g>
    </g>
    <g id="xtick_7">
     <g id="line2d_11">
      <g>
       <use xlink:href="#m181ec13835" x="365.403125" y="228.96" style="stroke: #000000"/>
      </g>
     </g>
     <g id="text_7">
      <!-- 6 -->
      <g transform="translate(362.221875 244.058438) scale(0.1 -0.1)">
       <use xlink:href="#DejaVuSans-36"/>
      </g>
     </g>
    </g>
    <g id="text_8">
     <!-- x -->
     <g transform="translate(195.04375 257.736562) scale(0.1 -0.1)">
      <defs>
       <path id="DejaVuSans-78" d="M 3513 3500 
L 2247 1797 
L 3578 0 
L 2900 0 
L 1881 1375 
L 863 0 
L 184 0 
L 1544 1831 
L 300 3500 
L 978 3500 
L 1906 2253 
L 2834 3500 
L 3513 3500 
z
" transform="scale(0.015625)"/>
      </defs>
      <use xlink:href="#DejaVuSans-78"/>
     </g>
    </g>
   </g>
   <g id="matplotlib.axis_2">
    <g id="ytick_1">
     <g id="line2d_12">
      <defs>
       <path id="mc1972c84a7" d="M 0 0 
L -4 0 
" style="stroke: #000000"/>
      </defs>
      <g>
       <use xlink:href="#mc1972c84a7" x="30.603125" y="228.96" style="stroke: #000000"/>
      </g>
     </g>
     <g id="text_9">
      <!-- 0.0 -->
      <g transform="translate(7.2 232.759219) scale(0.1 -0.1)">
       <defs>
        <path id="DejaVuSans-2e" d="M 684 794 
L 1344 794 
L 1344 0 
L 684 0 
L 684 794 
z
" transform="scale(0.015625)"/>
       </defs>
       <use xlink:href="#DejaVuSans-30"/>
       <use xlink:href="#DejaVuSans-2e" transform="translate(63.623047 0)"/>
       <use xlink:href="#DejaVuSans-30" transform="translate(95.410156 0)"/>
      </g>
     </g>
    </g>
    <g id="ytick_2">
     <g id="line2d_13">
      <g>
       <use xlink:href="#mc1972c84a7" x="30.603125" y="193.227326" style="stroke: #000000"/>
      </g>
     </g>
     <g id="text_10">
      <!-- 0.1 -->
      <g transform="translate(7.2 197.026545) scale(0.1 -0.1)">
       <defs>
        <path id="DejaVuSans-31" d="M 794 531 
L 1825 531 
L 1825 4091 
L 703 3866 
L 703 4441 
L 1819 4666 
L 2450 4666 
L 2450 531 
L 3481 531 
L 3481 0 
L 794 0 
L 794 531 
z
" transform="scale(0.015625)"/>
       </defs>
       <use xlink:href="#DejaVuSans-30"/>
       <use xlink:href="#DejaVuSans-2e" transform="translate(63.623047 0)"/>
       <use xlink:href="#DejaVuSans-31" transform="translate(95.410156 0)"/>
      </g>
     </g>
    </g>
    <g id="ytick_3">
     <g id="line2d_14">
      <g>
       <use xlink:href="#mc1972c84a7" x="30.603125" y="157.494652" style="stroke: #000000"/>
      </g>
     </g>
     <g id="text_11">
      <!-- 0.2 -->
      <g transform="translate(7.2 161.293871) scale(0.1 -0.1)">
       <use xlink:href="#DejaVuSans-30"/>
       <use xlink:href="#DejaVuSans-2e" transform="translate(63.623047 0)"/>
       <use xlink:href="#DejaVuSans-32" transform="translate(95.410156 0)"/>
      </g>
     </g>
    </g>
    <g id="ytick_4">
     <g id="line2d_15">
      <g>
       <use xlink:href="#mc1972c84a7" x="30.603125" y="121.761978" style="stroke: #000000"/>
      </g>
     </g>
     <g id="text_12">
      <!-- 0.3 -->
      <g transform="translate(7.2 125.561196) scale(0.1 -0.1)">
       <defs>
        <path id="DejaVuSans-33" d="M 2597 2516 
Q 3050 2419 3304 2112 
Q 3559 1806 3559 1356 
Q 3559 666 3084 287 
Q 2609 -91 1734 -91 
Q 1441 -91 1130 -33 
Q 819 25 488 141 
L 488 750 
Q 750 597 1062 519 
Q 1375 441 1716 441 
Q 2309 441 2620 675 
Q 2931 909 2931 1356 
Q 2931 1769 2642 2001 
Q 2353 2234 1838 2234 
L 1294 2234 
L 1294 2753 
L 1863 2753 
Q 2328 2753 2575 2939 
Q 2822 3125 2822 3475 
Q 2822 3834 2567 4026 
Q 2313 4219 1838 4219 
Q 1578 4219 1281 4162 
Q 984 4106 628 3988 
L 628 4550 
Q 988 4650 1302 4700 
Q 1616 4750 1894 4750 
Q 2613 4750 3031 4423 
Q 3450 4097 3450 3541 
Q 3450 3153 3228 2886 
Q 3006 2619 2597 2516 
z
" transform="scale(0.015625)"/>
       </defs>
       <use xlink:href="#DejaVuSans-30"/>
       <use xlink:href="#DejaVuSans-2e" transform="translate(63.623047 0)"/>
       <use xlink:href="#DejaVuSans-33" transform="translate(95.410156 0)"/>
      </g>
     </g>
    </g>
    <g id="ytick_5">
     <g id="line2d_16">
      <g>
       <use xlink:href="#mc1972c84a7" x="30.603125" y="86.029304" style="stroke: #000000"/>
      </g>
     </g>
     <g id="text_13">
      <!-- 0.4 -->
      <g transform="translate(7.2 89.828522) scale(0.1 -0.1)">
       <use xlink:href="#DejaVuSans-30"/>
       <use xlink:href="#DejaVuSans-2e" transform="translate(63.623047 0)"/>
       <use xlink:href="#DejaVuSans-34" transform="translate(95.410156 0)"/>
      </g>
     </g>
    </g>
    <g id="ytick_6">
     <g id="line2d_17">
      <g>
       <use xlink:href="#mc1972c84a7" x="30.603125" y="50.296629" style="stroke: #000000"/>
      </g>
     </g>
     <g id="text_14">
      <!-- 0.5 -->
      <g transform="translate(7.2 54.095848) scale(0.1 -0.1)">
       <defs>
        <path id="DejaVuSans-35" d="M 691 4666 
L 3169 4666 
L 3169 4134 
L 1269 4134 
L 1269 2991 
Q 1406 3038 1543 3061 
Q 1681 3084 1819 3084 
Q 2600 3084 3056 2656 
Q 3513 2228 3513 1497 
Q 3513 744 3044 326 
Q 2575 -91 1722 -91 
Q 1428 -91 1123 -41 
Q 819 9 494 109 
L 494 744 
Q 775 591 1075 516 
Q 1375 441 1709 441 
Q 2250 441 2565 725 
Q 2881 1009 2881 1497 
Q 2881 1984 2565 2268 
Q 2250 2553 1709 2553 
Q 1456 2553 1204 2497 
Q 953 2441 691 2322 
L 691 4666 
z
" transform="scale(0.015625)"/>
       </defs>
       <use xlink:href="#DejaVuSans-30"/>
       <use xlink:href="#DejaVuSans-2e" transform="translate(63.623047 0)"/>
       <use xlink:href="#DejaVuSans-35" transform="translate(95.410156 0)"/>
      </g>
     </g>
    </g>
    <g id="ytick_7">
     <g id="line2d_18">
      <g>
       <use xlink:href="#mc1972c84a7" x="30.603125" y="14.563955" style="stroke: #000000"/>
      </g>
     </g>
     <g id="text_15">
      <!-- 0.6 -->
      <g transform="translate(7.2 18.363174) scale(0.1 -0.1)">
       <use xlink:href="#DejaVuSans-30"/>
       <use xlink:href="#DejaVuSans-2e" transform="translate(63.623047 0)"/>
       <use xlink:href="#DejaVuSans-36" transform="translate(95.410156 0)"/>
      </g>
     </g>
    </g>
   </g>
   <g id="line2d_19">
    <path d="M 30.603125 228.959997 
L 89.877544 228.849567 
L 98.668241 228.603672 
L 104.444985 228.231052 
L 108.882195 227.733071 
L 112.565916 227.10562 
L 115.747311 226.34769 
L 118.593823 225.449265 
L 121.189172 224.40483 
L 123.617078 223.19351 
L 125.961265 221.77103 
L 128.138009 220.193286 
L 130.314753 218.334155 
L 132.407776 216.24886 
L 134.500799 213.839664 
L 136.593823 211.074783 
L 138.686846 207.923045 
L 140.779869 204.35477 
L 142.872892 200.342755 
L 145.049637 195.67416 
L 147.226381 190.478886 
L 149.486846 184.511169 
L 151.831032 177.699733 
L 154.34266 169.705401 
L 157.02173 160.414332 
L 159.951962 149.420434 
L 163.300799 135.94574 
L 167.486846 118.116922 
L 177.533358 74.931141 
L 180.547311 63.196398 
L 182.975218 54.582583 
L 185.151962 47.651047 
L 187.077544 42.239807 
L 188.835683 37.954438 
L 190.426381 34.658495 
L 191.849637 32.204198 
L 193.189172 30.338681 
L 194.361265 29.070188 
L 195.449637 28.202554 
L 196.454288 27.67038 
L 197.375218 27.411024 
L 198.296148 27.371093 
L 199.217078 27.550719 
L 200.138009 27.949314 
L 201.14266 28.632331 
L 202.231032 29.661481 
L 203.403125 31.100898 
L 204.658939 33.015724 
L 205.998474 35.470353 
L 207.505451 38.71998 
L 209.179869 42.904425 
L 211.02173 48.154818 
L 213.031032 54.582583 
L 215.291497 62.575803 
L 217.970567 72.908278 
L 221.319404 86.781835 
L 226.844985 110.809716 
L 232.62173 135.598348 
L 236.22173 150.070237 
L 239.319404 161.617108 
L 242.082195 171.086963 
L 244.677544 179.212612 
L 247.105451 186.1149 
L 249.449637 192.134535 
L 251.710102 197.34887 
L 253.886846 201.839778 
L 256.06359 205.833873 
L 258.240334 209.359417 
L 260.333358 212.337172 
L 262.426381 214.941656 
L 264.519404 217.204412 
L 266.696148 219.229364 
L 268.872892 220.954389 
L 271.133358 222.464834 
L 273.477544 223.767079 
L 275.989172 224.905945 
L 278.668241 225.874539 
L 281.598474 226.695098 
L 284.86359 227.375871 
L 288.631032 227.92901 
L 293.151962 228.358884 
L 298.844985 228.666439 
L 306.882195 228.860577 
L 321.198474 228.948233 
L 365.403125 228.959997 
L 365.403125 228.959997 
" clip-path="url(#p0c47748ae6)" style="fill: none; stroke-dasharray: 2,3.3; stroke-dashoffset: 0; stroke: #0000ff; stroke-width: 2"/>
   </g>
   <g id="line2d_20">
    <path d="M 30.603125 201.676403 
L 35.375218 198.43064 
L 40.06359 194.973803 
L 44.835683 191.174953 
L 49.607776 187.087813 
L 54.379869 182.709165 
L 59.235683 177.953889 
L 64.258939 172.719097 
L 69.365916 167.074921 
L 74.724055 160.816535 
L 80.333358 153.915859 
L 86.277544 146.245481 
L 92.807776 137.445751 
L 100.258939 127.016713 
L 109.886846 113.129201 
L 129.728706 84.413795 
L 136.677544 74.81814 
L 142.454288 67.208786 
L 147.561265 60.83769 
L 152.249637 55.338118 
L 156.603125 50.572281 
L 160.62173 46.495675 
L 164.472892 42.904425 
L 168.072892 39.845893 
L 171.505451 37.213443 
L 174.854288 34.924639 
L 178.035683 33.015724 
L 181.133358 31.413424 
L 184.147311 30.103455 
L 187.077544 29.070188 
L 189.924055 28.296935 
L 192.770567 27.753537 
L 195.533358 27.447721 
L 198.296148 27.36121 
L 201.058939 27.494288 
L 203.82173 27.84652 
L 206.668241 28.43742 
L 209.514753 29.25769 
L 212.444985 30.338681 
L 215.375218 31.655787 
L 218.389172 33.251813 
L 221.486846 35.140782 
L 224.751962 37.396374 
L 228.100799 39.981507 
L 231.617078 42.979055 
L 235.300799 46.414237 
L 239.235683 50.396037 
L 243.42173 54.959368 
L 247.858939 60.130919 
L 252.714753 66.139604 
L 258.072892 73.131852 
L 264.268241 81.597895 
L 271.803125 92.289871 
L 284.444985 110.687543 
L 296.500799 128.086892 
L 304.286846 138.936794 
L 310.98452 147.894694 
L 317.012427 155.594839 
L 322.705451 162.511602 
L 328.147311 168.773613 
L 333.338009 174.411183 
L 338.361265 179.544872 
L 343.300799 184.278825 
L 348.156613 188.6274 
L 352.928706 192.607822 
L 357.700799 196.301748 
L 362.472892 199.715534 
L 365.403125 201.676403 
L 365.403125 201.676403 
" clip-path="url(#p0c47748ae6)" style="fill: none; stroke: #0000ff; stroke-width: 2; stroke-linecap: square"/>
   </g>
   <g id="patch_5">
    <path d="M 30.603125 228.96 
L 30.603125 7.2 
" style="fill: none; stroke: #000000; stroke-width: 0.8; stroke-linejoin: miter; stroke-linecap: square"/>
   </g>
   <g id="patch_6">
    <path d="M 30.603125 228.96 
L 365.403125 228.96 
" style="fill: none; stroke: #000000; stroke-width: 0.8; stroke-linejoin: miter; stroke-linecap: square"/>
   </g>
   <g id="PathCollection_1">
    <defs>
     <path id="mfc801f94c7" d="M 0 3 
C 0.795609 3 1.55874 2.683901 2.12132 2.12132 
C 2.683901 1.55874 3 0.795609 3 0 
C 3 -0.795609 2.683901 -1.55874 2.12132 -2.12132 
C 1.55874 -2.683901 0.795609 -3 0 -3 
C -0.795609 -3 -1.55874 -2.683901 -2.12132 -2.12132 
C -2.683901 -1.55874 -3 -0.795609 -3 0 
C -3 0.795609 -2.683901 1.55874 -2.12132 2.12132 
C -1.55874 2.683901 -0.795609 3 0 3 
z
" style="stroke: #0000ff"/>
    </defs>
    <g clip-path="url(#p0c47748ae6)">
     <use xlink:href="#mfc801f94c7" x="170.103125" y="106.683404" style="fill: #0000ff; stroke: #0000ff"/>
     <use xlink:href="#mfc801f94c7" x="225.903125" y="106.683404" style="fill: #0000ff; stroke: #0000ff"/>
    </g>
   </g>
   <g id="PathCollection_2">
    <g clip-path="url(#p0c47748ae6)">
     <use xlink:href="#mfc801f94c7" x="114.303125" y="106.683404" style="fill: #0000ff; stroke: #0000ff"/>
     <use xlink:href="#mfc801f94c7" x="281.703125" y="106.683404" style="fill: #0000ff; stroke: #0000ff"/>
    </g>
   </g>
  </g>
 </g>
 <defs>
  <clipPath id="p0c47748ae6">
   <rect x="30.603125" y="7.2" width="334.8" height="221.76"/>
  </clipPath>
 </defs>
</svg>
