<?xml version="1.0" encoding="utf-8" standalone="no"?>
<!DOCTYPE svg PUBLIC "-//W3C//DTD SVG 1.1//EN"
  "http://www.w3.org/Graphics/SVG/1.1/DTD/svg11.dtd">
<svg xmlns:xlink="http://www.w3.org/1999/xlink" width="386.28125pt" height="294.73625pt" viewBox="0 0 386.28125 294.73625" xmlns="http://www.w3.org/2000/svg" version="1.1">
 <metadata>
  <rdf:RDF xmlns:dc="http://purl.org/dc/elements/1.1/" xmlns:cc="http://creativecommons.org/ns#" xmlns:rdf="http://www.w3.org/1999/02/22-rdf-syntax-ns#">
   <cc:Work>
    <dc:type rdf:resource="http://purl.org/dc/dcmitype/StillImage"/>
    <dc:date>2026-02-02T14:32:08.106570</dc:date>
    <dc:format>image/svg+xml</dc:format>
    <dc:creator>
     <cc:Agent>
      <dc:title>Matplotlib v3.10.0, https://matplotlib.org/</dc:title>
     </cc:Agent>
    </dc:creator>
   </cc:Work>
  </rdf:RDF>
 </metadata>
 <defs>
  <style type="text/css">*{stroke-linejoin: round; stroke-linecap: butt}</style>
 </defs>
 <g id="figure_1">
  <g id="patch_1">
   <path d="M 0 294.73625 
L 386.28125 294.73625 
L 386.28125 0 
L 0 0 
z
" style="fill: #ffffff"/>
  </g>
  <g id="axes_1">
   <g id="patch_2">
    <path d="M 44.28125 256.68 
L 379.08125 256.68 
L 379.08125 7.2 
L 44.28125 7.2 
z
" style="fill: #ffffff"/>
   </g>
   <g id="matplotlib.axis_1">
    <g id="xtick_1">
     <g id="line2d_1">
      <defs>
       <path id="m8ab64b41ee" d="M 0 0 
L 0 4 
" style="stroke: #000000"/>
      </defs>
      <g>
       <use xlink:href="#m8ab64b41ee" x="59.499432" y="256.68" style="stroke: #000000"/>
      </g>
     </g>
     <g id="text_1">
      <!-- 0 -->
      <g transform="translate(56.318182 271.778437) scale(0.1 -0.1)">
       <defs>
        <path id="DejaVuSans-30" d="M 2034 4250 
Q 1547 4250 1301 3770 
Q 1056 3291 1056 2328 
Q 1056 1369 1301 889 
Q 1547 409 2034 409 
Q 2525 409 2770 889 
Q 3016 1369 3016 2328 
Q 3016 3291 2770 3770 
Q 2525 4250 2034 4250 
z
M 2034 4750 
Q 2819 4750 3233 4129 
Q 3647 3509 3647 2328 
Q 3647 1150 3233 529 
Q 2819 -91 2034 -91 
Q 1250 -91 836 529 
Q 422 1150 422 2328 
Q 422 3509 836 4129 
Q 1250 4750 2034 4750 
z
" transform="scale(0.015625)"/>
       </defs>
       <use xlink:href="#DejaVuSans-30"/>
      </g>
     </g>
    </g>
    <g id="xtick_2">
     <g id="line2d_2">
      <g>
       <use xlink:href="#m8ab64b41ee" x="120.372159" y="256.68" style="stroke: #000000"/>
      </g>
     </g>
     <g id="text_2">
      <!-- 2 -->
      <g transform="translate(117.190909 271.778437) scale(0.1 -0.1)">
       <defs>
        <path id="DejaVuSans-32" d="M 1228 531 
L 3431 531 
L 3431 0 
L 469 0 
L 469 531 
Q 828 903 1448 1529 
Q 2069 2156 2228 2338 
Q 2531 2678 2651 2914 
Q 2772 3150 2772 3378 
Q 2772 3750 2511 3984 
Q 2250 4219 1831 4219 
Q 1534 4219 1204 4116 
Q 875 4013 500 3803 
L 500 4441 
Q 881 4594 1212 4672 
Q 1544 4750 1819 4750 
Q 2544 4750 2975 4387 
Q 3406 4025 3406 3419 
Q 3406 3131 3298 2873 
Q 3191 2616 2906 2266 
Q 2828 2175 2409 1742 
Q 1991 1309 1228 531 
z
" transform="scale(0.015625)"/>
       </defs>
       <use xlink:href="#DejaVuSans-32"/>
      </g>
     </g>
    </g>
    <g id="xtick_3">
     <g id="line2d_3">
      <g>
       <use xlink:href="#m8ab64b41ee" x="181.244886" y="256.68" style="stroke: #000000"/>
      </g>
     </g>
     <g id="text_3">
      <!-- 4 -->
      <g transform="translate(178.063636 271.778437) scale(0.1 -0.1)">
       <defs>
        <path id="DejaVuSans-34" d="M 2419 4116 
L 825 1625 
L 2419 1625 
L 2419 4116 
z
M 2253 4666 
L 3047 4666 
L 3047 1625 
L 3713 1625 
L 3713 1100 
L 3047 1100 
L 3047 0 
L 2419 0 
L 2419 1100 
L 313 1100 
L 313 1709 
L 2253 4666 
z
" transform="scale(0.015625)"/>
       </defs>
       <use xlink:href="#DejaVuSans-34"/>
      </g>
     </g>
    </g>
    <g id="xtick_4">
     <g id="line2d_4">
      <g>
       <use xlink:href="#m8ab64b41ee" x="242.117614" y="256.68" style="stroke: #000000"/>
      </g>
     </g>
     <g id="text_4">
      <!-- 6 -->
      <g transform="translate(238.936364 271.778437) scale(0.1 -0.1)">
       <defs>
        <path id="DejaVuSans-36" d="M 2113 2584 
Q 1688 2584 1439 2293 
Q 1191 2003 1191 1497 
Q 1191 994 1439 701 
Q 1688 409 2113 409 
Q 2538 409 2786 701 
Q 3034 994 3034 1497 
Q 3034 2003 2786 2293 
Q 2538 2584 2113 2584 
z
M 3366 4563 
L 3366 3988 
Q 3128 4100 2886 4159 
Q 2644 4219 2406 4219 
Q 1781 4219 1451 3797 
Q 1122 3375 1075 2522 
Q 1259 2794 1537 2939 
Q 1816 3084 2150 3084 
Q 2853 3084 3261 2657 
Q 3669 2231 3669 1497 
Q 3669 778 3244 343 
Q 2819 -91 2113 -91 
Q 1303 -91 875 529 
Q 447 1150 447 2328 
Q 447 3434 972 4092 
Q 1497 4750 2381 4750 
Q 2619 4750 2861 4703 
Q 3103 4656 3366 4563 
z
" transform="scale(0.015625)"/>
       </defs>
       <use xlink:href="#DejaVuSans-36"/>
      </g>
     </g>
    </g>
    <g id="xtick_5">
     <g id="line2d_5">
      <g>
       <use xlink:href="#m8ab64b41ee" x="302.990341" y="256.68" style="stroke: #000000"/>
      </g>
     </g>
     <g id="text_5">
      <!-- 8 -->
      <g transform="translate(299.809091 271.778437) scale(0.1 -0.1)">
       <defs>
        <path id="DejaVuSans-38" d="M 2034 2216 
Q 1584 2216 1326 1975 
Q 1069 1734 1069 1313 
Q 1069 891 1326 650 
Q 1584 409 2034 409 
Q 2484 409 2743 651 
Q 3003 894 3003 1313 
Q 3003 1734 2745 1975 
Q 2488 2216 2034 2216 
z
M 1403 2484 
Q 997 2584 770 2862 
Q 544 3141 544 3541 
Q 544 4100 942 4425 
Q 1341 4750 2034 4750 
Q 2731 4750 3128 4425 
Q 3525 4100 3525 3541 
Q 3525 3141 3298 2862 
Q 3072 2584 2669 2484 
Q 3125 2378 3379 2068 
Q 3634 1759 3634 1313 
Q 3634 634 3220 271 
Q 2806 -91 2034 -91 
Q 1263 -91 848 271 
Q 434 634 434 1313 
Q 434 1759 690 2068 
Q 947 2378 1403 2484 
z
M 1172 3481 
Q 1172 3119 1398 2916 
Q 1625 2713 2034 2713 
Q 2441 2713 2670 2916 
Q 2900 3119 2900 3481 
Q 2900 3844 2670 4047 
Q 2441 4250 2034 4250 
Q 1625 4250 1398 4047 
Q 1172 3844 1172 3481 
z
" transform="scale(0.015625)"/>
       </defs>
       <use xlink:href="#DejaVuSans-38"/>
      </g>
     </g>
    </g>
    <g id="xtick_6">
     <g id="line2d_6">
      <g>
       <use xlink:href="#m8ab64b41ee" x="363.863068" y="256.68" style="stroke: #000000"/>
      </g>
     </g>
     <g id="text_6">
      <!-- 10 -->
      <g transform="translate(357.500568 271.778437) scale(0.1 -0.1)">
       <defs>
        <path id="DejaVuSans-31" d="M 794 531 
L 1825 531 
L 1825 4091 
L 703 3866 
L 703 4441 
L 1819 4666 
L 2450 4666 
L 2450 531 
L 3481 531 
L 3481 0 
L 794 0 
L 794 531 
z
" transform="scale(0.015625)"/>
       </defs>
       <use xlink:href="#DejaVuSans-31"/>
       <use xlink:href="#DejaVuSans-30" transform="translate(63.623047 0)"/>
      </g>
     </g>
    </g>
    <g id="text_7">
     <!-- x -->
     <g transform="translate(208.721875 285.456562) scale(0.1 -0.1)">
      <defs>
       <path id="DejaVuSans-78" d="M 3513 3500 
L 2247 1797 
L 3578 0 
L 2900 0 
L 1881 1375 
L 863 0 
L 184 0 
L 1544 1831 
L 300 3500 
L 978 3500 
L 1906 2253 
L 2834 3500 
L 3513 3500 
z
" transform="scale(0.015625)"/>
      </defs>
      <use xlink:href="#DejaVuSans-78"/>
     </g>
    </g>
   </g>
   <g id="matplotlib.axis_2">
    <g id="ytick_1">
     <g id="line2d_7">
      <defs>
       <path id="m41ee4d6da8" d="M 0 0 
L -4 0 
" style="stroke: #000000"/>
      </defs>
      <g>
       <use xlink:href="#m41ee4d6da8" x="44.28125" y="256.68" style="stroke: #000000"/>
      </g>
     </g>
     <g id="text_8">
      <!-- 0.0 -->
      <g transform="translate(20.878125 260.479219) scale(0.1 -0.1)">
       <defs>
        <path id="DejaVuSans-2e" d="M 684 794 
L 1344 794 
L 1344 0 
L 684 0 
L 684 794 
z
" transform="scale(0.015625)"/>
       </defs>
       <use xlink:href="#DejaVuSans-30"/>
       <use xlink:href="#DejaVuSans-2e" transform="translate(63.623047 0)"/>
       <use xlink:href="#DejaVuSans-30" transform="translate(95.410156 0)"/>
      </g>
     </g>
    </g>
    <g id="ytick_2">
     <g id="line2d_8">
      <g>
       <use xlink:href="#m41ee4d6da8" x="44.28125" y="209.16" style="stroke: #000000"/>
      </g>
     </g>
     <g id="text_9">
      <!-- 0.2 -->
      <g transform="translate(20.878125 212.959219) scale(0.1 -0.1)">
       <use xlink:href="#DejaVuSans-30"/>
       <use xlink:href="#DejaVuSans-2e" transform="translate(63.623047 0)"/>
       <use xlink:href="#DejaVuSans-32" transform="translate(95.410156 0)"/>
      </g>
     </g>
    </g>
    <g id="ytick_3">
     <g id="line2d_9">
      <g>
       <use xlink:href="#m41ee4d6da8" x="44.28125" y="161.64" style="stroke: #000000"/>
      </g>
     </g>
     <g id="text_10">
      <!-- 0.4 -->
      <g transform="translate(20.878125 165.439219) scale(0.1 -0.1)">
       <use xlink:href="#DejaVuSans-30"/>
       <use xlink:href="#DejaVuSans-2e" transform="translate(63.623047 0)"/>
       <use xlink:href="#DejaVuSans-34" transform="translate(95.410156 0)"/>
      </g>
     </g>
    </g>
    <g id="ytick_4">
     <g id="line2d_10">
      <g>
       <use xlink:href="#m41ee4d6da8" x="44.28125" y="114.12" style="stroke: #000000"/>
      </g>
     </g>
     <g id="text_11">
      <!-- 0.6 -->
      <g transform="translate(20.878125 117.919219) scale(0.1 -0.1)">
       <use xlink:href="#DejaVuSans-30"/>
       <use xlink:href="#DejaVuSans-2e" transform="translate(63.623047 0)"/>
       <use xlink:href="#DejaVuSans-36" transform="translate(95.410156 0)"/>
      </g>
     </g>
    </g>
    <g id="ytick_5">
     <g id="line2d_11">
      <g>
       <use xlink:href="#m41ee4d6da8" x="44.28125" y="66.6" style="stroke: #000000"/>
      </g>
     </g>
     <g id="text_12">
      <!-- 0.8 -->
      <g transform="translate(20.878125 70.399219) scale(0.1 -0.1)">
       <use xlink:href="#DejaVuSans-30"/>
       <use xlink:href="#DejaVuSans-2e" transform="translate(63.623047 0)"/>
       <use xlink:href="#DejaVuSans-38" transform="translate(95.410156 0)"/>
      </g>
     </g>
    </g>
    <g id="ytick_6">
     <g id="line2d_12">
      <g>
       <use xlink:href="#m41ee4d6da8" x="44.28125" y="19.08" style="stroke: #000000"/>
      </g>
     </g>
     <g id="text_13">
      <!-- 1.0 -->
      <g transform="translate(20.878125 22.879219) scale(0.1 -0.1)">
       <use xlink:href="#DejaVuSans-31"/>
       <use xlink:href="#DejaVuSans-2e" transform="translate(63.623047 0)"/>
       <use xlink:href="#DejaVuSans-30" transform="translate(95.410156 0)"/>
      </g>
     </g>
    </g>
    <g id="text_14">
     <!-- CDF(x) -->
     <g transform="translate(14.798438 149.018125) rotate(-90) scale(0.1 -0.1)">
      <defs>
       <path id="DejaVuSans-43" d="M 4122 4306 
L 4122 3641 
Q 3803 3938 3442 4084 
Q 3081 4231 2675 4231 
Q 1875 4231 1450 3742 
Q 1025 3253 1025 2328 
Q 1025 1406 1450 917 
Q 1875 428 2675 428 
Q 3081 428 3442 575 
Q 3803 722 4122 1019 
L 4122 359 
Q 3791 134 3420 21 
Q 3050 -91 2638 -91 
Q 1578 -91 968 557 
Q 359 1206 359 2328 
Q 359 3453 968 4101 
Q 1578 4750 2638 4750 
Q 3056 4750 3426 4639 
Q 3797 4528 4122 4306 
z
" transform="scale(0.015625)"/>
       <path id="DejaVuSans-44" d="M 1259 4147 
L 1259 519 
L 2022 519 
Q 2988 519 3436 956 
Q 3884 1394 3884 2338 
Q 3884 3275 3436 3711 
Q 2988 4147 2022 4147 
L 1259 4147 
z
M 628 4666 
L 1925 4666 
Q 3281 4666 3915 4102 
Q 4550 3538 4550 2338 
Q 4550 1131 3912 565 
Q 3275 0 1925 0 
L 628 0 
L 628 4666 
z
" transform="scale(0.015625)"/>
       <path id="DejaVuSans-46" d="M 628 4666 
L 3309 4666 
L 3309 4134 
L 1259 4134 
L 1259 2759 
L 3109 2759 
L 3109 2228 
L 1259 2228 
L 1259 0 
L 628 0 
L 628 4666 
z
" transform="scale(0.015625)"/>
       <path id="DejaVuSans-28" d="M 1984 4856 
Q 1566 4138 1362 3434 
Q 1159 2731 1159 2009 
Q 1159 1288 1364 580 
Q 1569 -128 1984 -844 
L 1484 -844 
Q 1016 -109 783 600 
Q 550 1309 550 2009 
Q 550 2706 781 3412 
Q 1013 4119 1484 4856 
L 1984 4856 
z
" transform="scale(0.015625)"/>
       <path id="DejaVuSans-29" d="M 513 4856 
L 1013 4856 
Q 1481 4119 1714 3412 
Q 1947 2706 1947 2009 
Q 1947 1309 1714 600 
Q 1481 -109 1013 -844 
L 513 -844 
Q 928 -128 1133 580 
Q 1338 1288 1338 2009 
Q 1338 2731 1133 3434 
Q 928 4138 513 4856 
z
" transform="scale(0.015625)"/>
      </defs>
      <use xlink:href="#DejaVuSans-43"/>
      <use xlink:href="#DejaVuSans-44" transform="translate(69.824219 0)"/>
      <use xlink:href="#DejaVuSans-46" transform="translate(146.826172 0)"/>
      <use xlink:href="#DejaVuSans-28" transform="translate(204.345703 0)"/>
      <use xlink:href="#DejaVuSans-78" transform="translate(243.359375 0)"/>
      <use xlink:href="#DejaVuSans-29" transform="translate(302.539062 0)"/>
     </g>
    </g>
   </g>
   <g id="LineCollection_1">
    <path d="M 59.499432 244.850593 
L 89.935795 244.850593 
" clip-path="url(#p49c828e457)" style="fill: none; stroke: #0000ff; stroke-width: 2"/>
    <path d="M 89.935795 209.36237 
L 120.372159 209.36237 
" clip-path="url(#p49c828e457)" style="fill: none; stroke: #0000ff; stroke-width: 2"/>
    <path d="M 120.372159 156.130037 
L 150.808523 156.130037 
" clip-path="url(#p49c828e457)" style="fill: none; stroke: #0000ff; stroke-width: 2"/>
    <path d="M 150.808523 102.897703 
L 181.244886 102.897703 
" clip-path="url(#p49c828e457)" style="fill: none; stroke: #0000ff; stroke-width: 2"/>
    <path d="M 181.244886 62.973453 
L 211.68125 62.973453 
" clip-path="url(#p49c828e457)" style="fill: none; stroke: #0000ff; stroke-width: 2"/>
    <path d="M 211.68125 39.018903 
L 242.117614 39.018903 
" clip-path="url(#p49c828e457)" style="fill: none; stroke: #0000ff; stroke-width: 2"/>
    <path d="M 242.117614 27.041628 
L 272.553977 27.041628 
" clip-path="url(#p49c828e457)" style="fill: none; stroke: #0000ff; stroke-width: 2"/>
    <path d="M 272.553977 21.90851 
L 302.990341 21.90851 
" clip-path="url(#p49c828e457)" style="fill: none; stroke: #0000ff; stroke-width: 2"/>
    <path d="M 302.990341 19.983591 
L 333.426705 19.983591 
" clip-path="url(#p49c828e457)" style="fill: none; stroke: #0000ff; stroke-width: 2"/>
    <path d="M 333.426705 19.341951 
L 363.863068 19.341951 
" clip-path="url(#p49c828e457)" style="fill: none; stroke: #0000ff; stroke-width: 2"/>
   </g>
   <g id="LineCollection_2">
    <path d="M 59.499432 256.68 
L 59.499432 244.850593 
" clip-path="url(#p49c828e457)" style="fill: none; stroke-dasharray: 1,1.65; stroke-dashoffset: 0; stroke: #000000"/>
   </g>
   <g id="LineCollection_3">
    <path d="M 89.935795 244.850593 
L 89.935795 209.36237 
" clip-path="url(#p49c828e457)" style="fill: none; stroke-dasharray: 1,1.65; stroke-dashoffset: 0; stroke: #000000"/>
   </g>
   <g id="LineCollection_4">
    <path d="M 120.372159 209.36237 
L 120.372159 156.130037 
" clip-path="url(#p49c828e457)" style="fill: none; stroke-dasharray: 1,1.65; stroke-dashoffset: 0; stroke: #000000"/>
   </g>
   <g id="LineCollection_5">
    <path d="M 150.808523 156.130037 
L 150.808523 102.897703 
" clip-path="url(#p49c828e457)" style="fill: none; stroke-dasharray: 1,1.65; stroke-dashoffset: 0; stroke: #000000"/>
   </g>
   <g id="LineCollection_6">
    <path d="M 181.244886 102.897703 
L 181.244886 62.973453 
" clip-path="url(#p49c828e457)" style="fill: none; stroke-dasharray: 1,1.65; stroke-dashoffset: 0; stroke: #000000"/>
   </g>
   <g id="LineCollection_7">
    <path d="M 211.68125 62.973453 
L 211.68125 39.018903 
" clip-path="url(#p49c828e457)" style="fill: none; stroke-dasharray: 1,1.65; stroke-dashoffset: 0; stroke: #000000"/>
   </g>
   <g id="LineCollection_8">
    <path d="M 242.117614 39.018903 
L 242.117614 27.041628 
" clip-path="url(#p49c828e457)" style="fill: none; stroke-dasharray: 1,1.65; stroke-dashoffset: 0; stroke: #000000"/>
   </g>
   <g id="LineCollection_9">
    <path d="M 272.553977 27.041628 
L 272.553977 21.90851 
" clip-path="url(#p49c828e457)" style="fill: none; stroke-dasharray: 1,1.65; stroke-dashoffset: 0; stroke: #000000"/>
   </g>
   <g id="LineCollection_10">
    <path d="M 302.990341 21.90851 
L 302.990341 19.983591 
" clip-path="url(#p49c828e457)" style="fill: none; stroke-dasharray: 1,1.65; stroke-dashoffset: 0; stroke: #000000"/>
   </g>
   <g id="LineCollection_11">
    <path d="M 333.426705 19.983591 
L 333.426705 19.341951 
" clip-path="url(#p49c828e457)" style="fill: none; stroke-dasharray: 1,1.65; stroke-dashoffset: 0; stroke: #000000"/>
   </g>
   <g id="LineCollection_12">
    <path d="M 363.863068 19.341951 
L 363.863068 19.149459 
" clip-path="url(#p49c828e457)" style="fill: none; stroke-dasharray: 1,1.65; stroke-dashoffset: 0; stroke: #000000"/>
   </g>
   <g id="line2d_13">
    <path d="M 59.499432 256.68 
" clip-path="url(#p49c828e457)" style="fill: none; stroke: #1f77b4; stroke-width: 1.5; stroke-linecap: square"/>
    <defs>
     <path id="mdc70ce4703" d="M 0 3 
C 0.795609 3 1.55874 2.683901 2.12132 2.12132 
C 2.683901 1.55874 3 0.795609 3 0 
C 3 -0.795609 2.683901 -1.55874 2.12132 -2.12132 
C 1.55874 -2.683901 0.795609 -3 0 -3 
C -0.795609 -3 -1.55874 -2.683901 -2.12132 -2.12132 
C -2.683901 -1.55874 -3 -0.795609 -3 0 
C -3 0.795609 -2.683901 1.55874 -2.12132 2.12132 
C -1.55874 2.683901 -0.795609 3 0 3 
z
" style="stroke: #0000ff"/>
    </defs>
    <g clip-path="url(#p49c828e457)">
     <use xlink:href="#mdc70ce4703" x="59.499432" y="256.68" style="fill: #ffffff; stroke: #0000ff"/>
    </g>
   </g>
   <g id="line2d_14">
    <path d="M 89.935795 244.850593 
" clip-path="url(#p49c828e457)" style="fill: none; stroke: #ff7f0e; stroke-width: 1.5; stroke-linecap: square"/>
    <g clip-path="url(#p49c828e457)">
     <use xlink:href="#mdc70ce4703" x="89.935795" y="244.850593" style="fill: #ffffff; stroke: #0000ff"/>
    </g>
   </g>
   <g id="line2d_15">
    <path d="M 120.372159 209.36237 
" clip-path="url(#p49c828e457)" style="fill: none; stroke: #2ca02c; stroke-width: 1.5; stroke-linecap: square"/>
    <g clip-path="url(#p49c828e457)">
     <use xlink:href="#mdc70ce4703" x="120.372159" y="209.36237" style="fill: #ffffff; stroke: #0000ff"/>
    </g>
   </g>
   <g id="line2d_16">
    <path d="M 150.808523 156.130037 
" clip-path="url(#p49c828e457)" style="fill: none; stroke: #d62728; stroke-width: 1.5; stroke-linecap: square"/>
    <g clip-path="url(#p49c828e457)">
     <use xlink:href="#mdc70ce4703" x="150.808523" y="156.130037" style="fill: #ffffff; stroke: #0000ff"/>
    </g>
   </g>
   <g id="line2d_17">
    <path d="M 181.244886 102.897703 
" clip-path="url(#p49c828e457)" style="fill: none; stroke: #9467bd; stroke-width: 1.5; stroke-linecap: square"/>
    <g clip-path="url(#p49c828e457)">
     <use xlink:href="#mdc70ce4703" x="181.244886" y="102.897703" style="fill: #ffffff; stroke: #0000ff"/>
    </g>
   </g>
   <g id="line2d_18">
    <path d="M 211.68125 62.973453 
" clip-path="url(#p49c828e457)" style="fill: none; stroke: #8c564b; stroke-width: 1.5; stroke-linecap: square"/>
    <g clip-path="url(#p49c828e457)">
     <use xlink:href="#mdc70ce4703" x="211.68125" y="62.973453" style="fill: #ffffff; stroke: #0000ff"/>
    </g>
   </g>
   <g id="line2d_19">
    <path d="M 242.117614 39.018903 
" clip-path="url(#p49c828e457)" style="fill: none; stroke: #e377c2; stroke-width: 1.5; stroke-linecap: square"/>
    <g clip-path="url(#p49c828e457)">
     <use xlink:href="#mdc70ce4703" x="242.117614" y="39.018903" style="fill: #ffffff; stroke: #0000ff"/>
    </g>
   </g>
   <g id="line2d_20">
    <path d="M 272.553977 27.041628 
" clip-path="url(#p49c828e457)" style="fill: none; stroke: #7f7f7f; stroke-width: 1.5; stroke-linecap: square"/>
    <g clip-path="url(#p49c828e457)">
     <use xlink:href="#mdc70ce4703" x="272.553977" y="27.041628" style="fill: #ffffff; stroke: #0000ff"/>
    </g>
   </g>
   <g id="line2d_21">
    <path d="M 302.990341 21.90851 
" clip-path="url(#p49c828e457)" style="fill: none; stroke: #bcbd22; stroke-width: 1.5; stroke-linecap: square"/>
    <g clip-path="url(#p49c828e457)">
     <use xlink:href="#mdc70ce4703" x="302.990341" y="21.90851" style="fill: #ffffff; stroke: #0000ff"/>
    </g>
   </g>
   <g id="line2d_22">
    <path d="M 333.426705 19.983591 
" clip-path="url(#p49c828e457)" style="fill: none; stroke: #17becf; stroke-width: 1.5; stroke-linecap: square"/>
    <g clip-path="url(#p49c828e457)">
     <use xlink:href="#mdc70ce4703" x="333.426705" y="19.983591" style="fill: #ffffff; stroke: #0000ff"/>
    </g>
   </g>
   <g id="line2d_23">
    <path d="M 363.863068 19.341951 
" clip-path="url(#p49c828e457)" style="fill: none; stroke: #1f77b4; stroke-width: 1.5; stroke-linecap: square"/>
    <g clip-path="url(#p49c828e457)">
     <use xlink:href="#mdc70ce4703" x="363.863068" y="19.341951" style="fill: #ffffff; stroke: #0000ff"/>
    </g>
   </g>
   <g id="line2d_24">
    <defs>
     <path id="m5d2e96c8bc" d="M 0 3 
C 0.795609 3 1.55874 2.683901 2.12132 2.12132 
C 2.683901 1.55874 3 0.795609 3 0 
C 3 -0.795609 2.683901 -1.55874 2.12132 -2.12132 
C 1.55874 -2.683901 0.795609 -3 0 -3 
C -0.795609 -3 -1.55874 -2.683901 -2.12132 -2.12132 
C -2.683901 -1.55874 -3 -0.795609 -3 0 
C -3 0.795609 -2.683901 1.55874 -2.12132 2.12132 
C -1.55874 2.683901 -0.795609 3 0 3 
z
" style="stroke: #0000ff"/>
    </defs>
    <g clip-path="url(#p49c828e457)">
     <use xlink:href="#m5d2e96c8bc" x="59.499432" y="244.850593" style="fill: #0000ff; stroke: #0000ff"/>
     <use xlink:href="#m5d2e96c8bc" x="89.935795" y="209.36237" style="fill: #0000ff; stroke: #0000ff"/>
     <use xlink:href="#m5d2e96c8bc" x="120.372159" y="156.130037" style="fill: #0000ff; stroke: #0000ff"/>
     <use xlink:href="#m5d2e96c8bc" x="150.808523" y="102.897703" style="fill: #0000ff; stroke: #0000ff"/>
     <use xlink:href="#m5d2e96c8bc" x="181.244886" y="62.973453" style="fill: #0000ff; stroke: #0000ff"/>
     <use xlink:href="#m5d2e96c8bc" x="211.68125" y="39.018903" style="fill: #0000ff; stroke: #0000ff"/>
     <use xlink:href="#m5d2e96c8bc" x="242.117614" y="27.041628" style="fill: #0000ff; stroke: #0000ff"/>
     <use xlink:href="#m5d2e96c8bc" x="272.553977" y="21.90851" style="fill: #0000ff; stroke: #0000ff"/>
     <use xlink:href="#m5d2e96c8bc" x="302.990341" y="19.983591" style="fill: #0000ff; stroke: #0000ff"/>
     <use xlink:href="#m5d2e96c8bc" x="333.426705" y="19.341951" style="fill: #0000ff; stroke: #0000ff"/>
     <use xlink:href="#m5d2e96c8bc" x="363.863068" y="19.149459" style="fill: #0000ff; stroke: #0000ff"/>
    </g>
   </g>
   <g id="patch_3">
    <path d="M 44.28125 256.68 
L 44.28125 7.2 
" style="fill: none; stroke: #000000; stroke-width: 0.8; stroke-linejoin: miter; stroke-linecap: square"/>
   </g>
   <g id="patch_4">
    <path d="M 44.28125 256.68 
L 379.08125 256.68 
" style="fill: none; stroke: #000000; stroke-width: 0.8; stroke-linejoin: miter; stroke-linecap: square"/>
   </g>
  </g>
 </g>
 <defs>
  <clipPath id="p49c828e457">
   <rect x="44.28125" y="7.2" width="334.8" height="249.48"/>
  </clipPath>
 </defs>
</svg>
